<?xml version="1.0" encoding="utf-8"?>
<!-- Generator: Adobe Illustrator 24.0.1, SVG Export Plug-In . SVG Version: 6.00 Build 0)  -->
<svg version="1.1" id="Camada_1" xmlns="http://www.w3.org/2000/svg" xmlns:xlink="http://www.w3.org/1999/xlink" x="0px" y="0px"
	 viewBox="0 0 1500 1500" style="enable-background:new 0 0 1500 1500;" xml:space="preserve">
<style type="text/css">
	.st0{fill:#00446D;stroke:#FFFFFF;stroke-width:10;stroke-miterlimit:10;}
	.st1{fill:#437397;stroke:#FFFFFF;stroke-width:10;stroke-miterlimit:10;}
	.st2{fill:#00446D;}
	.st3{fill:#437397;}
	.st4{fill:#DDB97A;stroke:#FFFFFF;stroke-width:10;stroke-miterlimit:10;}
	.st5{fill:#DDB97A;}
	.st6{fill:#00446D;stroke:#FFFFFF;stroke-width:4.2275;stroke-miterlimit:10;}
	.st7{fill:#DDB97A;stroke:#FFFFFF;stroke-width:4.2275;stroke-miterlimit:10;}
	.st8{fill:#00446D;stroke:#FFFFFF;stroke-width:7.0747;stroke-miterlimit:10;}
	.st9{fill:#437397;stroke:#FFFFFF;stroke-width:7.0747;stroke-miterlimit:10;}
</style>
<g>
	<g>
		<path class="st0" d="M-1339.53,1161.89c-37.48,0-67.99-29.29-67.99-67.12s30.16-66.77,67.64-66.77
			c23.36,0,43.93,10.81,56.83,30.33c4.18,6.28,7.5,13.6,8.72,21.09h-34.52c-5.06-13.25-16.74-22.49-31.21-22.49
			c-20.92,0-34.52,17.78-34.52,37.66s13.6,38.35,34.69,38.35c14.47,0,25.28-9.07,31.03-21.79h34.52
			C-1281.83,1141.67-1308.32,1161.89-1339.53,1161.89z"/>
		<path class="st0" d="M-1195.01,1161.89c-36.44,0-67.81-28.24-67.81-65.37c0-9.59,1.57-18.65,5.06-27.54
			c1.92-5.06,5.06-10.11,8.37-14.47c13.25-17.43,32.6-26.5,54.57-26.5c37.66,0,68.16,28.94,68.16,66.94
			C-1126.67,1133.13-1157.18,1161.89-1195.01,1161.89z M-1194.66,1056.95c-21.09,0-35.21,17.43-35.21,37.66
			c0,20.57,14.12,38.35,35.56,38.35c20.75,0,34.69-18.13,34.69-37.83C-1159.62,1075.08-1173.57,1056.95-1194.66,1056.95z"/>
		<path class="st0" d="M-1028.69,1159.45l-49.16-78.45l-0.35,0.17l0.87,78.28h-31.55v-129.01h28.42l49.86,81.06l0.35-0.35
			l-1.39-80.72h31.55v129.01H-1028.69z"/>
		<path class="st0" d="M-937.34,1161.89c-25.98,0-46.55-13.42-46.55-40.97v-4.18h32.77c0,8.37,3.83,17.61,13.42,17.61
			c6.8,0,12.55-5.4,12.55-12.38c0-8.37-6.97-11.16-13.77-14.12c-3.84-1.74-7.67-3.31-11.51-4.88
			c-16.74-6.97-31.55-16.74-31.55-36.96c0-24.06,23.19-38,45.15-38c12.55,0,26.67,4.71,34.87,14.64c6.63,8.19,8.19,15.34,8.54,25.45
			h-32.6c-1.05-7.15-3.49-12.55-11.85-12.55c-5.75,0-11.33,4.01-11.33,10.11c0,1.92,0.17,3.83,1.22,5.4
			c3.14,5.23,20.05,11.85,25.45,14.29c17.08,7.84,30.16,16.74,30.16,36.96C-892.37,1149.34-911.89,1161.89-937.34,1161.89z"/>
		<path class="st0" d="M-828.21,1059.39v100.07h-32.95v-100.07h-25.45v-28.94h83.68v28.94H-828.21z"/>
		<path class="st0" d="M-727.97,1159.45l-29.81-41.67h-0.35v41.67h-31.55v-129.01h40.79c13.6,0,28.59,0.35,39.75,9.24
			c10.63,8.54,15.86,21.79,15.86,35.21c0,19.87-11.68,37.31-32.08,40.62l35.04,43.93H-727.97z M-746.1,1059.39h-12.03v35.91h11.68
			c12.38,0,21.62-5.23,21.62-18.48C-724.83,1064.09-734.77,1059.39-746.1,1059.39z"/>
		<path class="st0" d="M-588.33,1147.95c-9.76,9.94-22.31,13.95-36.09,13.95c-13.42,0-27.72-3.83-37.13-13.77
			c-11.68-12.38-12.9-23.36-12.9-39.75v-77.93h32.95v77.93c0,11.68,1.92,24.58,16.74,24.58c15.52,0,16.39-12.38,16.39-24.58v-77.93
			h32.95v77.93C-575.43,1123.71-577.17,1136.79-588.33,1147.95z"/>
		<path class="st0" d="M-489.48,1162.07c-38,0-68.51-29.46-68.51-67.64c0-38.7,31.21-66.42,69.04-66.42
			c27.89,0,56.66,18.13,64.5,45.67h-36.96c-5.93-10.63-16.21-16.74-28.42-16.74c-21.09,0-35.21,17.08-35.21,37.48
			c0,21.09,13.42,38.7,35.39,38.7c14.12,0,26.85-6.45,30.86-20.75h-38.53v-26.32h76.53c0.17,2.27,0.17,4.53,0.17,6.8
			C-420.62,1132.43-449.91,1162.07-489.48,1162.07z"/>
		<path class="st0" d="M-341.82,1159.45l-29.81-41.67h-0.35v41.67h-31.55v-129.01h40.79c13.6,0,28.59,0.35,39.75,9.24
			c10.63,8.54,15.86,21.79,15.86,35.21c0,19.87-11.68,37.31-32.08,40.62l35.04,43.93H-341.82z M-359.95,1059.39h-12.03v35.91h11.68
			c12.38,0,21.62-5.23,21.62-18.48C-338.69,1064.09-348.62,1059.39-359.95,1059.39z"/>
		<path class="st0" d="M-289.7,1159.45v-129.01h32.95v129.01H-289.7z"/>
		<path class="st0" d="M-189.98,1159.45h-45.15v-129.01h42.71c23.36,0,42.36,3.84,57.01,24.06c8.37,11.68,11.85,25.8,11.85,40.1
			C-123.56,1136.96-147.79,1159.45-189.98,1159.45z M-187.89,1059.39h-14.29v71.13h14.12c22.49,0,31.55-14.47,31.55-35.39
			C-156.51,1074.55-165.92,1059.39-187.89,1059.39z"/>
	</g>
	<g>
		<path class="st1" d="M-1400.93,1287.12v-72.48h39.08v9.7h-28.5v21.35h28.5v9.7h-28.5v22.04h28.5v9.7H-1400.93z"/>
		<path class="st1" d="M-1311.9,1287.12v-29.48c0-9.21-2.74-16.95-13.52-16.95c-9.99,0-14.3,7.74-14.3,16.85v29.58h-10.19v-54.26
			h9.5v5.78h0.2c3.92-5.19,9.6-7.25,15.87-7.25c7.74,0,14.99,3.04,19.2,9.7c2.64,4.11,3.43,9.11,3.43,13.91v32.13H-1311.9z"/>
		<path class="st1" d="M-1262.83,1308.47c-11.85,0-21.94-6.17-26.74-17.14h11.36c3.72,5.29,8.91,7.84,15.48,7.84
			c12.34,0,19.1-6.76,19.1-19.2h-0.2c-4.31,5.97-11.56,8.52-18.71,8.52c-15.57,0-28.99-13.03-28.99-28.7
			c0-4.21,1.08-8.42,2.94-12.14c5-10.38,14.69-16.26,26.25-16.26c6.66,0,14.2,2.64,18.71,7.74v-6.27h10.19v46.92
			C-1233.44,1298.09-1244.81,1308.47-1262.83,1308.47z M-1255.38,1242.16c-2.25-0.88-4.7-1.47-7.15-1.47
			c-10.58,0-18.81,8.82-18.81,19.3c0,10.28,8.33,19.2,18.71,19.2c7.93,0,14.1-4.41,17.24-11.56c1.08-2.35,1.76-4.99,1.76-7.54
			C-1243.63,1251.76-1247.55,1245.2-1255.38,1242.16z"/>
		<path class="st1" d="M-1169.48,1264.39h-44.96c2.06,8.42,8.91,14.79,17.83,14.79c6.37,0,12.54-3.43,15.48-9.11h10.19
			c-4.11,11.07-14.2,18.41-26.05,18.41c-15.48,0-27.62-13.42-27.62-28.6c0-15.67,11.95-28.5,27.82-28.5
			c15.38,0,27.62,12.63,27.62,27.92C-1169.19,1260.96-1169.29,1262.73-1169.48,1264.39z M-1196.91,1240.69
			c-8.81,0-16.94,6.96-17.53,15.87h35.06C-1179.96,1247.64-1188.09,1240.69-1196.91,1240.69z"/>
		<path class="st1" d="M-1121.1,1287.12v-29.48c0-9.21-2.74-16.95-13.52-16.95c-9.99,0-14.3,7.74-14.3,16.85v29.58h-10.19v-54.26
			h9.5v5.78h0.2c3.92-5.19,9.6-7.25,15.87-7.25c7.74,0,14.99,3.04,19.2,9.7c2.64,4.11,3.43,9.11,3.43,13.91v32.13H-1121.1z"/>
		<path class="st1" d="M-1059.97,1287.12v-29.48c0-9.21-2.74-16.95-13.52-16.95c-9.99,0-14.3,7.74-14.3,16.85v29.58h-10.19v-72.48
			h10.19v24h0.2c3.53-5.29,9.11-7.25,15.18-7.25c7.74,0,14.99,3.04,19.2,9.7c2.64,4.11,3.43,9.11,3.43,13.91v32.13H-1059.97z"/>
		<path class="st1" d="M-992.39,1287.12v-8.42h-0.2c-3.82,6.56-10.97,9.79-18.41,9.79c-16.26,0-28.8-11.95-28.8-28.31
			c0-16.46,12.34-28.8,28.8-28.8c7.25,0,14.4,2.94,18.41,9.11h0.2v-7.64h10.19v54.26H-992.39z M-1011,1240.69
			c-10.77,0-18.61,8.82-18.61,19.39c0,10.19,8.13,19.1,18.51,19.1c10.58,0,18.9-8.62,18.9-19.1
			C-992.19,1249.21-999.93,1240.69-1011,1240.69z"/>
		<path class="st1" d="M-952.92,1243.82c-4.8,2.45-5.97,8.72-5.97,13.62v29.68h-10.19v-54.26h9.5v4.9h0.2
			c3.33-4.7,8.33-6.17,13.81-6.37v10.48C-947.82,1241.87-950.96,1242.75-952.92,1243.82z"/>
		<path class="st1" d="M-935.68,1226.59v-11.95h10.19v11.95H-935.68z M-935.68,1287.12v-54.26h10.19v54.26H-935.68z"/>
		<path class="st1" d="M-867.8,1287.12v-8.42h-0.2c-3.82,6.56-10.97,9.79-18.41,9.79c-16.26,0-28.8-11.95-28.8-28.31
			c0-16.46,12.34-28.8,28.8-28.8c7.25,0,14.4,2.94,18.41,9.11h0.2v-7.64h10.19v54.26H-867.8z M-886.41,1240.69
			c-10.77,0-18.61,8.82-18.61,19.39c0,10.19,8.13,19.1,18.51,19.1c10.58,0,18.9-8.62,18.9-19.1
			C-867.6,1249.21-875.34,1240.69-886.41,1240.69z"/>
		<path class="st1" d="M-763.19,1264.39h-44.96c2.06,8.42,8.91,14.79,17.83,14.79c6.37,0,12.54-3.43,15.48-9.11h10.19
			c-4.11,11.07-14.2,18.41-26.05,18.41c-15.48,0-27.62-13.42-27.62-28.6c0-15.67,11.95-28.5,27.82-28.5
			c15.38,0,27.62,12.63,27.62,27.92C-762.9,1260.96-762.99,1262.73-763.19,1264.39z M-790.62,1240.69
			c-8.81,0-16.94,6.96-17.53,15.87h35.06C-773.67,1247.64-781.8,1240.69-790.62,1240.69z"/>
		<path class="st1" d="M-677.78,1287.12l-8.03-21.35h-26.05l-8.03,21.35h-11.17l27.52-72.48h9.5l27.52,72.48H-677.78z
			 M-698.64,1228.35h-0.2l-9.3,27.72h18.71L-698.64,1228.35z"/>
		<path class="st1" d="M-636.34,1308.47c-11.85,0-21.94-6.17-26.74-17.14h11.36c3.72,5.29,8.91,7.84,15.48,7.84
			c12.34,0,19.1-6.76,19.1-19.2h-0.2c-4.31,5.97-11.56,8.52-18.71,8.52c-15.57,0-28.99-13.03-28.99-28.7
			c0-4.21,1.08-8.42,2.94-12.14c5-10.38,14.69-16.26,26.25-16.26c6.66,0,14.2,2.64,18.71,7.74v-6.27h10.19v46.92
			C-606.96,1298.09-618.32,1308.47-636.34,1308.47z M-628.9,1242.16c-2.25-0.88-4.7-1.47-7.15-1.47c-10.58,0-18.81,8.82-18.81,19.3
			c0,10.28,8.33,19.2,18.71,19.2c7.93,0,14.1-4.41,17.24-11.56c1.08-2.35,1.76-4.99,1.76-7.54
			C-617.14,1251.76-621.06,1245.2-628.9,1242.16z"/>
		<path class="st1" d="M-577.77,1243.82c-4.8,2.45-5.97,8.72-5.97,13.62v29.68h-10.19v-54.26h9.5v4.9h0.2
			c3.33-4.7,8.33-6.17,13.81-6.37v10.48C-572.68,1241.87-575.81,1242.75-577.77,1243.82z"/>
		<path class="st1" d="M-560.53,1226.59v-11.95h10.19v11.95H-560.53z M-560.53,1287.12v-54.26h10.19v54.26H-560.53z"/>
		<path class="st1" d="M-465.33,1287.12v-30.17c0-8.52-2.84-16.26-12.83-16.26c-10.58,0-12.93,7.25-12.93,16.16v30.27h-10.19v-30.17
			c0-4.11,0-7.54-2.25-11.17c-2.35-3.62-5.88-5.09-10.09-5.09c-10.48,0-13.42,7.05-13.42,16.16v30.27h-10.19v-54.26h9.4v5.88h0.2
			c4.5-5.29,8.42-7.35,15.57-7.35c6.37,0,14.01,3.04,16.85,9.11c4.21-6.66,9.99-9.11,17.92-9.11c14.4,0,22.14,9.01,22.14,23.02
			v32.71H-465.33z"/>
		<path class="st1" d="M-389.71,1264.39h-44.96c2.06,8.42,8.91,14.79,17.83,14.79c6.37,0,12.54-3.43,15.48-9.11h10.19
			c-4.11,11.07-14.2,18.41-26.05,18.41c-15.48,0-27.62-13.42-27.62-28.6c0-15.67,11.95-28.5,27.82-28.5
			c15.38,0,27.62,12.63,27.62,27.92C-389.41,1260.96-389.51,1262.73-389.71,1264.39z M-417.13,1240.69
			c-8.82,0-16.95,6.96-17.53,15.87h35.06C-400.19,1247.64-408.32,1240.69-417.13,1240.69z"/>
		<path class="st1" d="M-341.32,1287.12v-29.48c0-9.21-2.74-16.95-13.52-16.95c-9.99,0-14.3,7.74-14.3,16.85v29.58h-10.19v-54.26
			h9.5v5.78h0.2c3.92-5.19,9.6-7.25,15.87-7.25c7.74,0,14.99,3.04,19.2,9.7c2.64,4.11,3.43,9.11,3.43,13.91v32.13H-341.32z"/>
		<path class="st1" d="M-303.51,1288.49c-2.35,0-4.7-0.49-6.95-1.27c-8.03-2.84-12.24-9.4-12.24-17.92h10.19
			c0.39,5.58,3.13,9.89,9.21,9.89c4.51,0,7.84-2.74,7.84-7.45c0-11.36-24.78-5.48-24.78-24.68c0-9.3,8.13-15.67,17.04-15.67
			c9.3,0,16.46,6.46,16.65,15.87h-10.19c-0.49-3.92-2.84-6.56-6.95-6.56c-3.43,0-6.37,2.16-6.37,5.78c0,4.8,4.7,5.88,8.42,7.05
			c8.91,2.74,16.36,7.15,16.36,17.63C-285.29,1281.83-293.13,1288.49-303.51,1288.49z"/>
		<path class="st1" d="M-237.89,1287.12v-5.88h-0.2c-3.13,5.29-10.19,7.25-15.97,7.25c-5.68,0-11.17-1.67-15.47-5.39
			c-5.98-5.19-7.15-13.42-7.15-20.86v-29.38h10.19v29.38c0,9.6,2.84,16.95,13.52,16.95c10.38,0,14.2-7.84,14.2-17.24v-29.09h10.19
			v54.26H-237.89z"/>
		<path class="st1" d="M-199.29,1243.82c-4.8,2.45-5.97,8.72-5.97,13.62v29.68h-10.19v-54.26h9.5v4.9h0.2
			c3.33-4.7,8.33-6.17,13.81-6.37v10.48C-194.2,1241.87-197.33,1242.75-199.29,1243.82z"/>
		<path class="st1" d="M-140.33,1287.12v-8.42h-0.2c-3.82,6.56-10.97,9.79-18.41,9.79c-16.26,0-28.8-11.95-28.8-28.31
			c0-16.46,12.34-28.8,28.8-28.8c7.25,0,14.4,2.94,18.41,9.11h0.2v-7.64h10.19v54.26H-140.33z M-158.94,1240.69
			c-10.77,0-18.61,8.82-18.61,19.39c0,10.19,8.13,19.1,18.51,19.1c10.58,0,18.9-8.62,18.9-19.1
			C-140.13,1249.21-147.87,1240.69-158.94,1240.69z"/>
	</g>
	<g>
		<path class="st2" d="M-1339.53,1161.89c-37.48,0-67.99-29.29-67.99-67.12s30.16-66.77,67.64-66.77
			c23.36,0,43.93,10.81,56.83,30.33c4.18,6.28,7.5,13.6,8.72,21.09h-34.52c-5.06-13.25-16.74-22.49-31.21-22.49
			c-20.92,0-34.52,17.78-34.52,37.66s13.6,38.35,34.69,38.35c14.47,0,25.28-9.07,31.03-21.79h34.52
			C-1281.83,1141.67-1308.32,1161.89-1339.53,1161.89z"/>
		<path class="st2" d="M-1195.01,1161.89c-36.44,0-67.81-28.24-67.81-65.37c0-9.59,1.57-18.65,5.06-27.54
			c1.92-5.06,5.06-10.11,8.37-14.47c13.25-17.43,32.6-26.5,54.57-26.5c37.66,0,68.16,28.94,68.16,66.94
			C-1126.67,1133.13-1157.18,1161.89-1195.01,1161.89z M-1194.66,1056.95c-21.09,0-35.21,17.43-35.21,37.66
			c0,20.57,14.12,38.35,35.56,38.35c20.75,0,34.69-18.13,34.69-37.83C-1159.62,1075.08-1173.57,1056.95-1194.66,1056.95z"/>
		<path class="st2" d="M-1028.69,1159.45l-49.16-78.45l-0.35,0.17l0.87,78.28h-31.55v-129.01h28.42l49.86,81.06l0.35-0.35
			l-1.39-80.72h31.55v129.01H-1028.69z"/>
		<path class="st2" d="M-937.34,1161.89c-25.98,0-46.55-13.42-46.55-40.97v-4.18h32.77c0,8.37,3.83,17.61,13.42,17.61
			c6.8,0,12.55-5.4,12.55-12.38c0-8.37-6.97-11.16-13.77-14.12c-3.84-1.74-7.67-3.31-11.51-4.88
			c-16.74-6.97-31.55-16.74-31.55-36.96c0-24.06,23.19-38,45.15-38c12.55,0,26.67,4.71,34.87,14.64c6.63,8.19,8.19,15.34,8.54,25.45
			h-32.6c-1.05-7.15-3.49-12.55-11.85-12.55c-5.75,0-11.33,4.01-11.33,10.11c0,1.92,0.17,3.83,1.22,5.4
			c3.14,5.23,20.05,11.85,25.45,14.29c17.08,7.84,30.16,16.74,30.16,36.96C-892.37,1149.34-911.89,1161.89-937.34,1161.89z"/>
		<path class="st2" d="M-828.21,1059.39v100.07h-32.95v-100.07h-25.45v-28.94h83.68v28.94H-828.21z"/>
		<path class="st2" d="M-727.97,1159.45l-29.81-41.67h-0.35v41.67h-31.55v-129.01h40.79c13.6,0,28.59,0.35,39.75,9.24
			c10.63,8.54,15.86,21.79,15.86,35.21c0,19.87-11.68,37.31-32.08,40.62l35.04,43.93H-727.97z M-746.1,1059.39h-12.03v35.91h11.68
			c12.38,0,21.62-5.23,21.62-18.48C-724.83,1064.09-734.77,1059.39-746.1,1059.39z"/>
		<path class="st2" d="M-588.33,1147.95c-9.76,9.94-22.31,13.95-36.09,13.95c-13.42,0-27.72-3.83-37.13-13.77
			c-11.68-12.38-12.9-23.36-12.9-39.75v-77.93h32.95v77.93c0,11.68,1.92,24.58,16.74,24.58c15.52,0,16.39-12.38,16.39-24.58v-77.93
			h32.95v77.93C-575.43,1123.71-577.17,1136.79-588.33,1147.95z"/>
		<path class="st2" d="M-489.48,1162.07c-38,0-68.51-29.46-68.51-67.64c0-38.7,31.21-66.42,69.04-66.42
			c27.89,0,56.66,18.13,64.5,45.67h-36.96c-5.93-10.63-16.21-16.74-28.42-16.74c-21.09,0-35.21,17.08-35.21,37.48
			c0,21.09,13.42,38.7,35.39,38.7c14.12,0,26.85-6.45,30.86-20.75h-38.53v-26.32h76.53c0.17,2.27,0.17,4.53,0.17,6.8
			C-420.62,1132.43-449.91,1162.07-489.48,1162.07z"/>
		<path class="st2" d="M-341.82,1159.45l-29.81-41.67h-0.35v41.67h-31.55v-129.01h40.79c13.6,0,28.59,0.35,39.75,9.24
			c10.63,8.54,15.86,21.79,15.86,35.21c0,19.87-11.68,37.31-32.08,40.62l35.04,43.93H-341.82z M-359.95,1059.39h-12.03v35.91h11.68
			c12.38,0,21.62-5.23,21.62-18.48C-338.69,1064.09-348.62,1059.39-359.95,1059.39z"/>
		<path class="st2" d="M-289.7,1159.45v-129.01h32.95v129.01H-289.7z"/>
		<path class="st2" d="M-189.98,1159.45h-45.15v-129.01h42.71c23.36,0,42.36,3.84,57.01,24.06c8.37,11.68,11.85,25.8,11.85,40.1
			C-123.56,1136.96-147.79,1159.45-189.98,1159.45z M-187.89,1059.39h-14.29v71.13h14.12c22.49,0,31.55-14.47,31.55-35.39
			C-156.51,1074.55-165.92,1059.39-187.89,1059.39z"/>
	</g>
	<g>
		<path class="st3" d="M-1400.93,1287.12v-72.48h39.08v9.7h-28.5v21.35h28.5v9.7h-28.5v22.04h28.5v9.7H-1400.93z"/>
		<path class="st3" d="M-1311.9,1287.12v-29.48c0-9.21-2.74-16.95-13.52-16.95c-9.99,0-14.3,7.74-14.3,16.85v29.58h-10.19v-54.26
			h9.5v5.78h0.2c3.92-5.19,9.6-7.25,15.87-7.25c7.74,0,14.99,3.04,19.2,9.7c2.64,4.11,3.43,9.11,3.43,13.91v32.13H-1311.9z"/>
		<path class="st3" d="M-1262.83,1308.47c-11.85,0-21.94-6.17-26.74-17.14h11.36c3.72,5.29,8.91,7.84,15.48,7.84
			c12.34,0,19.1-6.76,19.1-19.2h-0.2c-4.31,5.97-11.56,8.52-18.71,8.52c-15.57,0-28.99-13.03-28.99-28.7
			c0-4.21,1.08-8.42,2.94-12.14c5-10.38,14.69-16.26,26.25-16.26c6.66,0,14.2,2.64,18.71,7.74v-6.27h10.19v46.92
			C-1233.44,1298.09-1244.81,1308.47-1262.83,1308.47z M-1255.38,1242.16c-2.25-0.88-4.7-1.47-7.15-1.47
			c-10.58,0-18.81,8.82-18.81,19.3c0,10.28,8.33,19.2,18.71,19.2c7.93,0,14.1-4.41,17.24-11.56c1.08-2.35,1.76-4.99,1.76-7.54
			C-1243.63,1251.76-1247.55,1245.2-1255.38,1242.16z"/>
		<path class="st3" d="M-1169.48,1264.39h-44.96c2.06,8.42,8.91,14.79,17.83,14.79c6.37,0,12.54-3.43,15.48-9.11h10.19
			c-4.11,11.07-14.2,18.41-26.05,18.41c-15.48,0-27.62-13.42-27.62-28.6c0-15.67,11.95-28.5,27.82-28.5
			c15.38,0,27.62,12.63,27.62,27.92C-1169.19,1260.96-1169.29,1262.73-1169.48,1264.39z M-1196.91,1240.69
			c-8.81,0-16.94,6.96-17.53,15.87h35.06C-1179.96,1247.64-1188.09,1240.69-1196.91,1240.69z"/>
		<path class="st3" d="M-1121.1,1287.12v-29.48c0-9.21-2.74-16.95-13.52-16.95c-9.99,0-14.3,7.74-14.3,16.85v29.58h-10.19v-54.26
			h9.5v5.78h0.2c3.92-5.19,9.6-7.25,15.87-7.25c7.74,0,14.99,3.04,19.2,9.7c2.64,4.11,3.43,9.11,3.43,13.91v32.13H-1121.1z"/>
		<path class="st3" d="M-1059.97,1287.12v-29.48c0-9.21-2.74-16.95-13.52-16.95c-9.99,0-14.3,7.74-14.3,16.85v29.58h-10.19v-72.48
			h10.19v24h0.2c3.53-5.29,9.11-7.25,15.18-7.25c7.74,0,14.99,3.04,19.2,9.7c2.64,4.11,3.43,9.11,3.43,13.91v32.13H-1059.97z"/>
		<path class="st3" d="M-992.39,1287.12v-8.42h-0.2c-3.82,6.56-10.97,9.79-18.41,9.79c-16.26,0-28.8-11.95-28.8-28.31
			c0-16.46,12.34-28.8,28.8-28.8c7.25,0,14.4,2.94,18.41,9.11h0.2v-7.64h10.19v54.26H-992.39z M-1011,1240.69
			c-10.77,0-18.61,8.82-18.61,19.39c0,10.19,8.13,19.1,18.51,19.1c10.58,0,18.9-8.62,18.9-19.1
			C-992.19,1249.21-999.93,1240.69-1011,1240.69z"/>
		<path class="st3" d="M-952.92,1243.82c-4.8,2.45-5.97,8.72-5.97,13.62v29.68h-10.19v-54.26h9.5v4.9h0.2
			c3.33-4.7,8.33-6.17,13.81-6.37v10.48C-947.82,1241.87-950.96,1242.75-952.92,1243.82z"/>
		<path class="st3" d="M-935.68,1226.59v-11.95h10.19v11.95H-935.68z M-935.68,1287.12v-54.26h10.19v54.26H-935.68z"/>
		<path class="st3" d="M-867.8,1287.12v-8.42h-0.2c-3.82,6.56-10.97,9.79-18.41,9.79c-16.26,0-28.8-11.95-28.8-28.31
			c0-16.46,12.34-28.8,28.8-28.8c7.25,0,14.4,2.94,18.41,9.11h0.2v-7.64h10.19v54.26H-867.8z M-886.41,1240.69
			c-10.77,0-18.61,8.82-18.61,19.39c0,10.19,8.13,19.1,18.51,19.1c10.58,0,18.9-8.62,18.9-19.1
			C-867.6,1249.21-875.34,1240.69-886.41,1240.69z"/>
		<path class="st3" d="M-763.19,1264.39h-44.96c2.06,8.42,8.91,14.79,17.83,14.79c6.37,0,12.54-3.43,15.48-9.11h10.19
			c-4.11,11.07-14.2,18.41-26.05,18.41c-15.48,0-27.62-13.42-27.62-28.6c0-15.67,11.95-28.5,27.82-28.5
			c15.38,0,27.62,12.63,27.62,27.92C-762.9,1260.96-762.99,1262.73-763.19,1264.39z M-790.62,1240.69
			c-8.81,0-16.94,6.96-17.53,15.87h35.06C-773.67,1247.64-781.8,1240.69-790.62,1240.69z"/>
		<path class="st3" d="M-677.78,1287.12l-8.03-21.35h-26.05l-8.03,21.35h-11.17l27.52-72.48h9.5l27.52,72.48H-677.78z
			 M-698.64,1228.35h-0.2l-9.3,27.72h18.71L-698.64,1228.35z"/>
		<path class="st3" d="M-636.34,1308.47c-11.85,0-21.94-6.17-26.74-17.14h11.36c3.72,5.29,8.91,7.84,15.48,7.84
			c12.34,0,19.1-6.76,19.1-19.2h-0.2c-4.31,5.97-11.56,8.52-18.71,8.52c-15.57,0-28.99-13.03-28.99-28.7
			c0-4.21,1.08-8.42,2.94-12.14c5-10.38,14.69-16.26,26.25-16.26c6.66,0,14.2,2.64,18.71,7.74v-6.27h10.19v46.92
			C-606.96,1298.09-618.32,1308.47-636.34,1308.47z M-628.9,1242.16c-2.25-0.88-4.7-1.47-7.15-1.47c-10.58,0-18.81,8.82-18.81,19.3
			c0,10.28,8.33,19.2,18.71,19.2c7.93,0,14.1-4.41,17.24-11.56c1.08-2.35,1.76-4.99,1.76-7.54
			C-617.14,1251.76-621.06,1245.2-628.9,1242.16z"/>
		<path class="st3" d="M-577.77,1243.82c-4.8,2.45-5.97,8.72-5.97,13.62v29.68h-10.19v-54.26h9.5v4.9h0.2
			c3.33-4.7,8.33-6.17,13.81-6.37v10.48C-572.68,1241.87-575.81,1242.75-577.77,1243.82z"/>
		<path class="st3" d="M-560.53,1226.59v-11.95h10.19v11.95H-560.53z M-560.53,1287.12v-54.26h10.19v54.26H-560.53z"/>
		<path class="st3" d="M-465.33,1287.12v-30.17c0-8.52-2.84-16.26-12.83-16.26c-10.58,0-12.93,7.25-12.93,16.16v30.27h-10.19v-30.17
			c0-4.11,0-7.54-2.25-11.17c-2.35-3.62-5.88-5.09-10.09-5.09c-10.48,0-13.42,7.05-13.42,16.16v30.27h-10.19v-54.26h9.4v5.88h0.2
			c4.5-5.29,8.42-7.35,15.57-7.35c6.37,0,14.01,3.04,16.85,9.11c4.21-6.66,9.99-9.11,17.92-9.11c14.4,0,22.14,9.01,22.14,23.02
			v32.71H-465.33z"/>
		<path class="st3" d="M-389.71,1264.39h-44.96c2.06,8.42,8.91,14.79,17.83,14.79c6.37,0,12.54-3.43,15.48-9.11h10.19
			c-4.11,11.07-14.2,18.41-26.05,18.41c-15.48,0-27.62-13.42-27.62-28.6c0-15.67,11.95-28.5,27.82-28.5
			c15.38,0,27.62,12.63,27.62,27.92C-389.41,1260.96-389.51,1262.73-389.71,1264.39z M-417.13,1240.69
			c-8.82,0-16.95,6.96-17.53,15.87h35.06C-400.19,1247.64-408.32,1240.69-417.13,1240.69z"/>
		<path class="st3" d="M-341.32,1287.12v-29.48c0-9.21-2.74-16.95-13.52-16.95c-9.99,0-14.3,7.74-14.3,16.85v29.58h-10.19v-54.26
			h9.5v5.78h0.2c3.92-5.19,9.6-7.25,15.87-7.25c7.74,0,14.99,3.04,19.2,9.7c2.64,4.11,3.43,9.11,3.43,13.91v32.13H-341.32z"/>
		<path class="st3" d="M-303.51,1288.49c-2.35,0-4.7-0.49-6.95-1.27c-8.03-2.84-12.24-9.4-12.24-17.92h10.19
			c0.39,5.58,3.13,9.89,9.21,9.89c4.51,0,7.84-2.74,7.84-7.45c0-11.36-24.78-5.48-24.78-24.68c0-9.3,8.13-15.67,17.04-15.67
			c9.3,0,16.46,6.46,16.65,15.87h-10.19c-0.49-3.92-2.84-6.56-6.95-6.56c-3.43,0-6.37,2.16-6.37,5.78c0,4.8,4.7,5.88,8.42,7.05
			c8.91,2.74,16.36,7.15,16.36,17.63C-285.29,1281.83-293.13,1288.49-303.51,1288.49z"/>
		<path class="st3" d="M-237.89,1287.12v-5.88h-0.2c-3.13,5.29-10.19,7.25-15.97,7.25c-5.68,0-11.17-1.67-15.47-5.39
			c-5.98-5.19-7.15-13.42-7.15-20.86v-29.38h10.19v29.38c0,9.6,2.84,16.95,13.52,16.95c10.38,0,14.2-7.84,14.2-17.24v-29.09h10.19
			v54.26H-237.89z"/>
		<path class="st3" d="M-199.29,1243.82c-4.8,2.45-5.97,8.72-5.97,13.62v29.68h-10.19v-54.26h9.5v4.9h0.2
			c3.33-4.7,8.33-6.17,13.81-6.37v10.48C-194.2,1241.87-197.33,1242.75-199.29,1243.82z"/>
		<path class="st3" d="M-140.33,1287.12v-8.42h-0.2c-3.82,6.56-10.97,9.79-18.41,9.79c-16.26,0-28.8-11.95-28.8-28.31
			c0-16.46,12.34-28.8,28.8-28.8c7.25,0,14.4,2.94,18.41,9.11h0.2v-7.64h10.19v54.26H-140.33z M-158.94,1240.69
			c-10.77,0-18.61,8.82-18.61,19.39c0,10.19,8.13,19.1,18.51,19.1c10.58,0,18.9-8.62,18.9-19.1
			C-140.13,1249.21-147.87,1240.69-158.94,1240.69z"/>
	</g>
</g>
<g>
	<path class="st0" d="M-1002.27,492.83l16.43-29.3c0,0,5.21,14.43,15.34,20.58c0,0-6.24,88.34,5.78,145.5l-28.06-75.21
		L-1002.27,492.83z"/>
	<path class="st0" d="M-971.4,793.79c0.41-1.73,0.93-3.49,1.52-5.3c1.56-4.75-0.88-13.93-4.7-16.68c-1.87-1.34-3.85-2.52-5.91-3.59
		C-977.31,776.69-974.28,785.21-971.4,793.79z"/>
	<path class="st0" d="M-813.98,302.8c-1.8-2.18-6.29-3.52-9.3-3.05c-8.97,1.43-17.77,3.91-28.39,6.4c1.88-4.58,2.84-6.93,5.33-13
		c-18.16,5.87-33.31,10.52-48.29,15.71c-6.79,2.35-13.29,5.62-19.78,8.76c-5.38,2.6-10.46,5.83-15.87,8.37
		c-2.78,1.31-5.97,1.72-9.66,2.73c12.35,13.93,20.08-4.4,31.15-2.29c-5.37,4.37-10.11,8.24-15.51,12.64c2.9,1.35,4.77,2.21,7.54,3.5
		c-9.34,12.01-17.04,24.15-27.09,33.86c-0.52,0.5-1,1.03-1.46,1.58c4.13-0.5,8.3-0.8,12.48-0.91
		c37.73-27.28,79.9-47.13,119.08-72.31C-813.59,303.93-813.62,303.23-813.98,302.8z"/>
	<path class="st0" d="M-1065.39,462.63c1.23,4.62,1.77,6.64,2.88,10.8c11.84-17.6,22.89-34.04,33.95-50.47
		c1.64,0.87,3.28,1.75,4.92,2.62c-2.91,8.17-5.82,16.34-9.35,26.27c4.59-3.72,7.84-6.36,12.42-10.08
		c-1.95,6.04-3.13,10.67-4.92,15.05c-2.83,6.92-5.69,13.64-1.35,21.04c0.67,1.14,0.81,3.19,0.26,4.37
		c-5.76,12.25-6.12,25.48-5.56,40.99c-6.66-3.26-10.99-5.39-16.4-8.04c3.15-4.71,6.13-9.16,11.1-16.58
		c-7.21,3.24-11.47,5.16-16.23,7.31c-0.21-0.48-1.06-2.39-3.34-7.53c-1.52,8.85-2.95,14.95-3.27,21.12
		c-0.06,1.14,4.38,2.52,10.28,5.69c-8.64,3.6-15.36,6.16-21.85,9.22c-2.7,1.27-6.09,3.1-7.13,5.55
		c-7.46,17.58-14.39,35.39-21.53,53.11c-0.23,0.57-0.86,0.98-2.96,3.3C-1099.57,548.88-1085.62,506.48-1065.39,462.63z"/>
	<path class="st0" d="M-433.49,678.16c-47.52,208.25-225.46,273.43-225.46,273.43c181.7-24.84,238.57-241.92,238.57-241.92"/>
	<g>
		
			<rect x="-638.48" y="555.38" transform="matrix(0.9445 -0.3285 0.3285 0.9445 -236.7249 -162.4624)" class="st0" width="78.66" height="127.89"/>
		
			<rect x="-690.12" y="443.76" transform="matrix(0.9445 -0.3285 0.3285 0.9445 -189.5335 -188.5826)" class="st4" width="74.52" height="45.69"/>
		
			<rect x="-714.74" y="373.12" transform="matrix(0.9445 -0.3285 0.3285 0.9445 -170.6574 -199.9506)" class="st0" width="75.36" height="63.89"/>
		
			<rect x="-833.13" y="761.1" transform="matrix(0.9445 -0.3285 0.3285 0.9445 -305.7356 -208.8203)" class="st0" width="124.57" height="78.55"/>
		<polygon class="st0" points="-714.27,739.12 -688.47,813.3 -688.4,813.28 -683.45,827.52 -595.65,796.98 -573.42,734.71 
			-517.65,715.32 -531.49,675.54 		"/>
		
			<rect x="-742.15" y="587.96" transform="matrix(0.9445 -0.3285 0.3285 0.9445 -252.6248 -191.4207)" class="st4" width="98.71" height="127.89"/>
		
			<rect x="-681.38" y="501.86" transform="matrix(0.9445 -0.3285 0.3285 0.9445 -209.8536 -183.941)" class="st4" width="64.21" height="54.41"/>
		
			<rect x="-609.77" y="485.55" transform="matrix(0.9445 -0.3285 0.3285 0.9445 -201.8934 -169.4431)" class="st0" width="14.76" height="54.41"/>
		<polygon class="st0" points="-762.77,480.26 -762.8,480.18 -762.86,480.3 -776.5,473.02 -757.92,526.42 -690.53,502.98 
			-705.38,460.3 		"/>
		
			<rect x="-730.24" y="522.91" transform="matrix(0.9445 -0.3285 0.3285 0.9445 -220.1269 -202.6516)" class="st0" width="40.9" height="54.41"/>
		<path class="st0" d="M-819.35,618.02l17.27-6.01l-19.79-56.88c-2.66-7.41-5.33-14.82-7.99-22.23
			c-1.23,2.66-17.46,46.25-31.41,83.86c-10.84,29.22-20.32,54.83-20.32,54.83L-846.31,773l58.8-20.45l-40.57-116.63
			C-833.28,621-819.35,618.02-819.35,618.02z"/>
		<path class="st0" d="M-809.71,624.86c-10,3.48-6.97,12.22-6.97,12.22l38.98,112.05l49.04-17.06l-42.02-120.79L-809.71,624.86z"/>
		<polygon class="st0" points="-796.96,551.63 -813.44,543.15 -791.15,607.22 -788.35,606.24 -731.43,586.44 -749.31,535.06 		"/>
		<polygon class="st0" points="-801.05,459.92 -824.1,523.45 -794.61,539.19 -768.89,530.24 -791.6,464.96 		"/>
		<polygon class="st0" points="-777.97,405.42 -796.15,450.73 -760.58,467.94 -710.61,450.56 -731.89,389.39 		"/>
	</g>
	<path class="st0" d="M-1033.37,374.24c7.37-5.36,14.7-10.77,21.99-16.26c4.39-3.3,8.76-6.63,13.12-9.97
		c0.66-0.51,1.33-1.02,1.99-1.53c1.59-1.23,3.17-2.46,4.76-3.7c2.54-1.98,5.06-3.97,7.59-5.97c2.41-2.86,5.36-5.08,8.63-6.68
		c0.08-0.06,0.15-0.11,0.23-0.17c0.25-0.2,0.49-0.41,0.71-0.59c1.07-0.89,2.13-1.79,3.19-2.68c4.58-19.84,14.77-49.71,39.14-76.79
		c65.57-72.86,171.56-56.36,181.29-54.69C-750.73,195.21-1005.85,123.76-1033.37,374.24z"/>
	<polygon class="st0" points="-1032.73,746.66 -1062.2,746.66 -1103.65,710.93 -1103.65,676.26 -1119.44,649.59 -1076.09,624.17 
		-1044.9,628.1 -990,638.39 -971.43,653.14 -936.09,655.98 -919.75,690.83 -924.85,738.99 -943.99,749.34 -946.49,816.7 
		-933.17,862.28 -946.49,875.75 -987.3,830.33 -1006.77,796.5 	"/>
	<polygon class="st0" points="-915.18,336.79 -952.9,384.85 -977.6,422.3 -969.96,441.77 -953.95,442.01 -918.02,424.14 
		-879.42,406.93 -802.83,307.68 -802.83,287.38 	"/>
	<polygon class="st0" points="-1086.98,551.53 -1020.58,530.53 -1017.6,480.83 -1000,429.91 -1020.5,409.97 -1083.71,507.17 	"/>
	<path class="st2" d="M-1002.51,492.83l16.43-29.3c0,0,5.21,14.43,15.34,20.58c0,0-6.24,88.34,5.78,145.5l-28.06-75.21
		L-1002.51,492.83z"/>
	<path class="st2" d="M-971.64,793.79c0.41-1.73,0.93-3.49,1.52-5.3c1.56-4.75-0.88-13.93-4.7-16.68c-1.87-1.34-3.85-2.52-5.91-3.59
		C-977.55,776.69-974.52,785.21-971.64,793.79z"/>
	<path class="st2" d="M-814.22,302.8c-1.8-2.18-6.29-3.52-9.3-3.05c-8.97,1.43-17.77,3.91-28.39,6.4c1.88-4.58,2.84-6.93,5.33-13
		c-18.16,5.87-33.31,10.52-48.29,15.71c-6.79,2.35-13.29,5.62-19.78,8.76c-5.38,2.6-10.46,5.83-15.87,8.37
		c-2.78,1.31-5.97,1.72-9.66,2.73c12.35,13.93,20.08-4.4,31.15-2.29c-5.37,4.37-10.11,8.24-15.51,12.64c2.9,1.35,4.77,2.21,7.54,3.5
		c-9.34,12.01-17.04,24.15-27.09,33.86c-0.52,0.5-1,1.03-1.46,1.58c4.13-0.5,8.3-0.8,12.48-0.91
		c37.73-27.28,79.9-47.13,119.08-72.31C-813.83,303.93-813.86,303.23-814.22,302.8z"/>
	<path class="st2" d="M-1065.63,462.63c1.23,4.62,1.77,6.64,2.88,10.8c11.84-17.6,22.89-34.04,33.95-50.47
		c1.64,0.87,3.28,1.75,4.92,2.62c-2.91,8.17-5.82,16.34-9.35,26.27c4.59-3.72,7.84-6.36,12.42-10.08
		c-1.95,6.04-3.13,10.67-4.92,15.05c-2.83,6.92-5.69,13.64-1.35,21.04c0.67,1.14,0.81,3.19,0.26,4.37
		c-5.76,12.25-6.12,25.48-5.56,40.99c-6.66-3.26-10.99-5.39-16.4-8.04c3.15-4.71,6.13-9.16,11.1-16.58
		c-7.21,3.24-11.47,5.16-16.23,7.31c-0.21-0.48-1.06-2.39-3.34-7.53c-1.52,8.85-2.95,14.95-3.27,21.12
		c-0.06,1.14,4.38,2.52,10.28,5.69c-8.64,3.6-15.36,6.16-21.85,9.22c-2.7,1.27-6.1,3.1-7.13,5.55
		c-7.46,17.58-14.39,35.39-21.53,53.11c-0.23,0.57-0.86,0.98-2.96,3.3C-1099.81,548.88-1085.86,506.48-1065.63,462.63z"/>
	<path class="st2" d="M-433.73,678.16c-47.52,208.25-225.46,273.43-225.46,273.43c181.7-24.84,238.57-241.92,238.57-241.92"/>
	<g>
		
			<rect x="-638.72" y="555.38" transform="matrix(0.9445 -0.3285 0.3285 0.9445 -236.7382 -162.5414)" class="st2" width="78.66" height="127.89"/>
		
			<rect x="-690.36" y="443.76" transform="matrix(0.9445 -0.3285 0.3285 0.9445 -189.5469 -188.6616)" class="st5" width="74.52" height="45.69"/>
		
			<rect x="-714.98" y="373.12" transform="matrix(0.9445 -0.3285 0.3285 0.9445 -170.6708 -200.0296)" class="st2" width="75.36" height="63.89"/>
		
			<rect x="-833.37" y="761.1" transform="matrix(0.9445 -0.3285 0.3285 0.9445 -305.749 -208.8993)" class="st2" width="124.57" height="78.55"/>
		<polygon class="st2" points="-714.51,739.12 -688.71,813.3 -688.64,813.28 -683.69,827.52 -595.89,796.98 -573.66,734.71 
			-517.9,715.32 -531.73,675.54 		"/>
		
			<rect x="-742.39" y="587.96" transform="matrix(0.9445 -0.3285 0.3285 0.9445 -252.6381 -191.4998)" class="st5" width="98.71" height="127.89"/>
		
			<rect x="-681.62" y="501.86" transform="matrix(0.9445 -0.3285 0.3285 0.9445 -209.867 -184.02)" class="st5" width="64.21" height="54.41"/>
		
			<rect x="-610.01" y="485.55" transform="matrix(0.9445 -0.3285 0.3285 0.9445 -201.9068 -169.5222)" class="st2" width="14.76" height="54.41"/>
		<polygon class="st2" points="-763.01,480.26 -763.04,480.18 -763.1,480.3 -776.74,473.02 -758.17,526.42 -690.77,502.98 
			-705.62,460.3 		"/>
		
			<rect x="-730.48" y="522.91" transform="matrix(0.9445 -0.3285 0.3285 0.9445 -220.1403 -202.7307)" class="st2" width="40.9" height="54.41"/>
		<path class="st2" d="M-819.59,618.02l17.27-6.01l-19.79-56.88c-2.66-7.41-5.33-14.82-7.99-22.23
			c-1.23,2.66-17.46,46.25-31.41,83.86c-10.84,29.22-20.32,54.83-20.32,54.83L-846.55,773l58.8-20.45l-40.57-116.63
			C-833.52,621-819.59,618.02-819.59,618.02z"/>
		<path class="st2" d="M-809.95,624.86c-10,3.48-6.97,12.22-6.97,12.22l38.98,112.05l49.04-17.06l-42.02-120.79L-809.95,624.86z"/>
		<polygon class="st2" points="-797.2,551.63 -813.68,543.15 -791.39,607.22 -788.59,606.24 -731.67,586.44 -749.55,535.06 		"/>
		<polygon class="st2" points="-801.29,459.92 -824.34,523.45 -794.85,539.19 -769.13,530.24 -791.84,464.96 		"/>
		<polygon class="st2" points="-778.21,405.42 -796.39,450.73 -760.82,467.94 -710.85,450.56 -732.13,389.39 		"/>
	</g>
	<path class="st2" d="M-1033.61,374.24c7.37-5.36,14.7-10.77,21.99-16.26c4.39-3.3,8.76-6.63,13.12-9.97
		c0.66-0.51,1.33-1.02,1.99-1.53c1.59-1.23,3.17-2.46,4.76-3.7c2.54-1.98,5.06-3.97,7.59-5.97c2.41-2.86,5.36-5.08,8.63-6.68
		c0.08-0.06,0.15-0.11,0.23-0.17c0.25-0.2,0.49-0.41,0.71-0.59c1.07-0.89,2.13-1.79,3.19-2.68c4.58-19.84,14.77-49.71,39.14-76.79
		c65.57-72.86,171.56-56.36,181.29-54.69C-750.97,195.21-1006.09,123.76-1033.61,374.24z"/>
	<polygon class="st2" points="-1032.97,746.66 -1062.44,746.66 -1103.89,710.93 -1103.89,676.26 -1119.68,649.59 -1076.33,624.17 
		-1045.14,628.1 -990.24,638.39 -971.67,653.14 -936.34,655.98 -919.99,690.83 -925.09,738.99 -944.23,749.34 -946.73,816.7 
		-933.41,862.28 -946.73,875.75 -987.54,830.33 -1007.01,796.5 	"/>
	<polygon class="st2" points="-915.42,336.79 -953.14,384.85 -977.84,422.3 -970.2,441.77 -954.19,442.01 -918.26,424.14 
		-879.66,406.93 -803.07,307.68 -803.07,287.38 	"/>
	<polygon class="st2" points="-1087.22,551.53 -1020.82,530.53 -1017.84,480.83 -1000.24,429.91 -1020.74,409.97 -1083.95,507.17 	
		"/>
	<g>
		<path class="st0" d="M-592.66,252.66l-43.84-20.27c-2.98-1.38-6.5-0.08-7.88,2.9l-2.92,6.32l-6.72-3.11l9.18-19.86
			c2.94-6.37,0.17-13.92-6.2-16.86l-1.08-0.5c-6.37-2.94-13.92-0.17-16.86,6.2l-9.18,19.86l-7.4-3.42l2.92-6.32
			c1.38-2.98,0.08-6.5-2.9-7.88l-43.84-20.27c-2.98-1.38-6.5-0.08-7.88,2.9l-8.24,17.83c-1.38,2.98-0.08,6.5,2.9,7.88l43.84,20.27
			c2.98,1.38,6.5,0.08,7.88-2.9l2.06-4.46l7.4,3.42l-9.18,19.86c-2.94,6.37-0.17,13.92,6.2,16.86l1.08,0.5
			c6.37,2.94,13.92,0.17,16.86-6.2l9.18-19.86l6.72,3.11l-2.06,4.46c-1.38,2.98-0.08,6.5,2.9,7.88l43.84,20.27
			c2.98,1.38,6.5,0.08,7.88-2.9l8.24-17.83C-588.39,257.57-589.68,254.04-592.66,252.66z"/>
		<path class="st0" d="M-674.11,287.7c0,0-7.72,2.07-16.47-2.43c-9.09-3.75-12.52-10.97-12.52-10.97s-1.37-4.35-3.94-2.95
			c-2.57,1.41-1.11,4.11-1.11,4.11c4.13,9.35,15.24,14.82,15.24,14.82s11.37,4.92,21.17,2.01c0,0,3-0.64,2.41-3.51
			C-669.91,285.92-674.11,287.7-674.11,287.7z"/>
		<path class="st0" d="M-688.25,280.23c0,0,8.26,3.57,15.38,1.46c0,0,2.18-0.47,1.75-2.55c-0.43-2.08-3.48-0.79-3.48-0.79
			s-5.61,1.5-11.96-1.76c-6.6-2.73-9.09-7.97-9.09-7.97s-1-3.16-2.86-2.14c-1.86,1.02-0.81,2.99-0.81,2.99
			C-696.32,276.26-688.25,280.23-688.25,280.23z"/>
	</g>
	<path class="st0" d="M-417.05,563.12c-11.65-61.17-35.87-114.37-73.13-159.19l8.27,47.59c-7.44-11.91-14.87-23.83-22.31-35.74
		c-10.08-13.68-20.16-27.36-30.24-41.04c-25.2-5.04-50.4-10.08-75.6-15.12c13.68,43.2,27.36,86.4,41.04,129.6
		c9.89,12.4,19.78,24.8,29.67,37.2l35.13,111.84l19.04,66.96c13.09-16.56,26.19-33.12,39.28-49.68c-5.76-32.4-11.52-64.8-17.28-97.2
		c13.3,30.16,26.59,60.32,39.89,90.47c0.4,0.15,0.81,0.29,1.21,0.44c0.56,5.83,1.11,11.67,1.7,17.8v0v0
		c0.71,7.44,1.46,15.32,2.31,24.19C-409.58,646.39-409.13,604.67-417.05,563.12z"/>
	<g>
		<path class="st2" d="M-592.9,252.66l-43.84-20.27c-2.98-1.38-6.5-0.08-7.88,2.9l-2.92,6.32l-6.72-3.11l9.18-19.86
			c2.94-6.37,0.17-13.92-6.2-16.86l-1.08-0.5c-6.37-2.94-13.92-0.17-16.86,6.2l-9.18,19.86l-7.4-3.42l2.92-6.32
			c1.38-2.98,0.08-6.5-2.9-7.88l-43.84-20.27c-2.98-1.38-6.5-0.08-7.88,2.9l-8.24,17.83c-1.38,2.98-0.08,6.5,2.9,7.88l43.84,20.27
			c2.98,1.38,6.5,0.08,7.88-2.9l2.06-4.46l7.4,3.42l-9.18,19.86c-2.94,6.37-0.17,13.92,6.2,16.86l1.08,0.5
			c6.37,2.94,13.92,0.17,16.86-6.2l9.18-19.86l6.72,3.11l-2.06,4.46c-1.38,2.98-0.08,6.5,2.9,7.88l43.84,20.27
			c2.98,1.38,6.5,0.08,7.88-2.9l8.24-17.83C-588.63,257.57-589.92,254.04-592.9,252.66z"/>
		<path class="st2" d="M-674.35,287.7c0,0-7.72,2.07-16.47-2.43c-9.09-3.75-12.52-10.97-12.52-10.97s-1.37-4.35-3.94-2.95
			s-1.11,4.11-1.11,4.11c4.13,9.35,15.24,14.82,15.24,14.82s11.37,4.92,21.17,2.01c0,0,3-0.64,2.41-3.51
			C-670.15,285.92-674.35,287.7-674.35,287.7z"/>
		<path class="st2" d="M-688.49,280.23c0,0,8.26,3.57,15.38,1.46c0,0,2.18-0.47,1.75-2.55c-0.43-2.08-3.48-0.79-3.48-0.79
			s-5.61,1.5-11.96-1.76c-6.6-2.73-9.09-7.97-9.09-7.97s-1-3.16-2.86-2.14c-1.86,1.02-0.81,2.99-0.81,2.99
			C-696.56,276.26-688.49,280.23-688.49,280.23z"/>
	</g>
	<path class="st2" d="M-417.29,563.12c-11.65-61.17-35.87-114.37-73.13-159.19l8.27,47.59c-7.44-11.91-14.87-23.83-22.31-35.74
		c-10.08-13.68-20.16-27.36-30.24-41.04c-25.2-5.04-50.4-10.08-75.6-15.12c13.68,43.2,27.36,86.4,41.04,129.6
		c9.89,12.4,19.78,24.8,29.67,37.2l35.13,111.84l19.04,66.96c13.09-16.56,26.19-33.12,39.28-49.68c-5.76-32.4-11.52-64.8-17.28-97.2
		c13.3,30.16,26.59,60.32,39.89,90.47c0.4,0.15,0.81,0.29,1.21,0.44c0.56,5.83,1.11,11.67,1.7,17.8v0v0
		c0.71,7.44,1.46,15.32,2.31,24.19C-409.82,646.39-409.37,604.67-417.29,563.12z"/>
</g>
<g>
	<g>
		<path class="st6" d="M-2883.41,720.13l6.95-12.39c0,0,2.2,6.1,6.49,8.7c0,0-2.64,37.35,2.45,61.51l-11.86-31.8L-2883.41,720.13z"
			/>
		<path class="st6" d="M-2870.36,847.36c0.18-0.73,0.39-1.48,0.64-2.24c0.66-2.01-0.37-5.89-1.99-7.05
			c-0.79-0.57-1.63-1.06-2.5-1.52C-2872.86,840.13-2871.58,843.73-2870.36,847.36z"/>
		<path class="st6" d="M-2803.81,639.8c-0.76-0.92-2.66-1.49-3.93-1.29c-3.79,0.6-7.51,1.65-12,2.7c0.79-1.94,1.2-2.93,2.25-5.5
			c-7.68,2.48-14.08,4.45-20.41,6.64c-2.87,1-5.62,2.38-8.36,3.7c-2.27,1.1-4.42,2.46-6.71,3.54c-1.17,0.55-2.53,0.73-4.09,1.15
			c5.22,5.89,8.49-1.86,13.17-0.97c-2.27,1.85-4.28,3.48-6.56,5.34c1.23,0.57,2.02,0.94,3.19,1.48
			c-3.95,5.08-7.21,10.21-11.45,14.31c-0.22,0.21-0.42,0.44-0.62,0.67c1.75-0.21,3.51-0.34,5.28-0.38
			c15.95-11.53,33.78-19.92,50.34-30.57C-2803.65,640.28-2803.66,639.98-2803.81,639.8z"/>
		<path class="st6" d="M-2910.1,707.36c0.52,1.95,0.75,2.81,1.22,4.57c5-7.44,9.68-14.39,14.35-21.34c0.69,0.37,1.39,0.74,2.08,1.11
			c-1.23,3.45-2.46,6.91-3.95,11.11c1.94-1.57,3.31-2.69,5.25-4.26c-0.82,2.56-1.32,4.51-2.08,6.36c-1.2,2.92-2.4,5.77-0.57,8.89
			c0.28,0.48,0.34,1.35,0.11,1.85c-2.43,5.18-2.59,10.77-2.35,17.33c-2.82-1.38-4.65-2.28-6.94-3.4c1.33-1.99,2.59-3.87,4.69-7.01
			c-3.05,1.37-4.85,2.18-6.86,3.09c-0.09-0.2-0.45-1.01-1.41-3.18c-0.64,3.74-1.25,6.32-1.38,8.93c-0.03,0.48,1.85,1.07,4.35,2.41
			c-3.65,1.52-6.49,2.6-9.24,3.9c-1.14,0.54-2.58,1.31-3.01,2.34c-3.15,7.43-6.08,14.96-9.1,22.45c-0.1,0.24-0.36,0.42-1.25,1.4
			C-2924.55,743.82-2918.65,725.9-2910.1,707.36z"/>
		<path class="st6" d="M-2642.96,798.48c-20.09,88.04-95.31,115.59-95.31,115.59c76.81-10.5,100.85-102.27,100.85-102.27"/>
		<g>
			
				<rect x="-2729.62" y="746.57" transform="matrix(0.9445 -0.3285 0.3285 0.9445 -404.7436 -848.3629)" class="st6" width="33.25" height="54.06"/>
			
				<rect x="-2751.45" y="699.39" transform="matrix(0.9445 -0.3285 0.3285 0.9445 -384.7937 -859.4051)" class="st7" width="31.5" height="19.32"/>
			
				<rect x="-2761.86" y="669.52" transform="matrix(0.9445 -0.3285 0.3285 0.9445 -376.8139 -864.2109)" class="st6" width="31.86" height="27.01"/>
			
				<rect x="-2811.91" y="833.54" transform="matrix(0.9445 -0.3285 0.3285 0.9445 -433.9176 -867.9604)" class="st6" width="52.66" height="33.21"/>
			<polygon class="st6" points="-2761.66,824.25 -2750.76,855.61 -2750.73,855.6 -2748.63,861.62 -2711.52,848.71 -2702.12,822.39 
				-2678.54,814.19 -2684.39,797.37 			"/>
			
				<rect x="-2773.45" y="760.35" transform="matrix(0.9445 -0.3285 0.3285 0.9445 -411.4652 -860.6049)" class="st7" width="41.73" height="54.06"/>
			
				<rect x="-2747.76" y="723.95" transform="matrix(0.9445 -0.3285 0.3285 0.9445 -393.3839 -857.4429)" class="st7" width="27.14" height="23"/>
			
				<rect x="-2717.49" y="717.06" transform="matrix(0.9445 -0.3285 0.3285 0.9445 -390.0188 -851.314)" class="st6" width="6.24" height="23"/>
			<polygon class="st6" points="-2782.16,714.82 -2782.18,714.78 -2782.2,714.83 -2787.97,711.76 -2780.12,734.33 -2751.63,724.42 
				-2757.9,706.38 			"/>
			
				<rect x="-2768.41" y="732.85" transform="matrix(0.9445 -0.3285 0.3285 0.9445 -397.7269 -865.3527)" class="st6" width="17.29" height="23"/>
			<path class="st6" d="M-2806.08,773.06l7.3-2.54l-8.36-24.05c-1.13-3.13-2.25-6.27-3.38-9.4c-0.52,1.12-7.38,19.55-13.28,35.45
				c-4.58,12.35-8.59,23.18-8.59,23.18l14.91,42.87l24.86-8.65l-17.15-49.3C-2811.97,774.31-2806.08,773.06-2806.08,773.06z"/>
			<path class="st6" d="M-2802.01,775.95c-4.23,1.47-2.94,5.17-2.94,5.17l16.48,47.37l20.73-7.21l-17.76-51.06L-2802.01,775.95z"/>
			<polygon class="st6" points="-2796.62,744.99 -2803.58,741.4 -2794.16,768.49 -2792.98,768.08 -2768.92,759.71 -2776.47,737.98 
							"/>
			<polygon class="st6" points="-2798.35,706.22 -2808.09,733.08 -2795.63,739.73 -2784.75,735.95 -2794.35,708.35 			"/>
			<polygon class="st6" points="-2788.59,683.18 -2796.28,702.33 -2781.24,709.61 -2760.12,702.26 -2769.11,676.4 			"/>
		</g>
		<path class="st6" d="M-2896.56,670c3.12-2.27,6.22-4.55,9.29-6.87c1.86-1.4,3.7-2.8,5.55-4.22c0.28-0.22,0.56-0.43,0.84-0.65
			c0.67-0.52,1.34-1.04,2.01-1.56c1.07-0.84,2.14-1.68,3.21-2.52c1.02-1.21,2.27-2.15,3.65-2.83c0.03-0.02,0.06-0.05,0.1-0.07
			c0.1-0.09,0.21-0.17,0.3-0.25c0.45-0.38,0.9-0.76,1.35-1.13c1.94-8.39,6.24-21.02,16.55-32.46c27.72-30.8,72.53-23.83,76.64-23.12
			C-2777.08,594.32-2884.93,564.11-2896.56,670z"/>
		<polygon class="st6" points="-2896.29,827.44 -2908.75,827.44 -2926.27,812.33 -2926.27,797.68 -2932.95,786.4 -2914.62,775.65 
			-2901.43,777.32 -2878.23,781.67 -2870.38,787.9 -2855.44,789.1 -2848.53,803.83 -2850.68,824.19 -2858.77,828.57 
			-2859.83,857.04 -2854.2,876.32 -2859.83,882.01 -2877.08,862.81 -2885.32,848.51 		"/>
		<polygon class="st6" points="-2846.6,654.17 -2862.54,674.48 -2872.98,690.31 -2869.76,698.54 -2862.99,698.65 -2847.8,691.09 
			-2831.48,683.82 -2799.1,641.86 -2799.1,633.28 		"/>
		<polygon class="st6" points="-2919.22,744.95 -2891.15,736.07 -2889.89,715.06 -2882.45,693.53 -2891.12,685.1 -2917.84,726.19 		
			"/>
		<path class="st2" d="M-2883.52,720.13l6.95-12.39c0,0,2.2,6.1,6.49,8.7c0,0-2.64,37.35,2.45,61.51l-11.86-31.8L-2883.52,720.13z"
			/>
		<path class="st2" d="M-2870.47,847.36c0.18-0.73,0.39-1.48,0.64-2.24c0.66-2.01-0.37-5.89-1.99-7.05
			c-0.79-0.57-1.63-1.06-2.5-1.52C-2872.97,840.13-2871.68,843.73-2870.47,847.36z"/>
		<path class="st2" d="M-2803.92,639.8c-0.76-0.92-2.66-1.49-3.93-1.29c-3.79,0.6-7.51,1.65-12,2.7c0.8-1.94,1.2-2.93,2.25-5.5
			c-7.68,2.48-14.08,4.45-20.41,6.64c-2.87,1-5.62,2.38-8.36,3.7c-2.27,1.1-4.42,2.46-6.71,3.54c-1.17,0.55-2.53,0.73-4.09,1.15
			c5.22,5.89,8.49-1.86,13.17-0.97c-2.27,1.85-4.28,3.48-6.56,5.34c1.23,0.57,2.02,0.94,3.19,1.48
			c-3.95,5.08-7.21,10.21-11.45,14.31c-0.22,0.21-0.42,0.44-0.62,0.67c1.75-0.21,3.51-0.34,5.28-0.38
			c15.95-11.53,33.78-19.92,50.34-30.57C-2803.75,640.28-2803.77,639.98-2803.92,639.8z"/>
		<path class="st2" d="M-2910.2,707.36c0.52,1.95,0.75,2.81,1.22,4.57c5-7.44,9.68-14.39,14.35-21.34c0.69,0.37,1.39,0.74,2.08,1.11
			c-1.23,3.45-2.46,6.91-3.95,11.11c1.94-1.57,3.31-2.69,5.25-4.26c-0.82,2.56-1.32,4.51-2.08,6.36c-1.2,2.92-2.4,5.77-0.57,8.89
			c0.28,0.48,0.34,1.35,0.11,1.85c-2.43,5.18-2.59,10.77-2.35,17.33c-2.82-1.38-4.65-2.28-6.94-3.4c1.33-1.99,2.59-3.87,4.69-7.01
			c-3.05,1.37-4.85,2.18-6.86,3.09c-0.09-0.2-0.45-1.01-1.41-3.18c-0.64,3.74-1.25,6.32-1.38,8.93c-0.02,0.48,1.85,1.07,4.35,2.41
			c-3.65,1.52-6.49,2.6-9.24,3.9c-1.14,0.54-2.58,1.31-3.02,2.34c-3.15,7.43-6.08,14.96-9.1,22.45c-0.1,0.24-0.36,0.42-1.25,1.4
			C-2924.65,743.82-2918.75,725.9-2910.2,707.36z"/>
		<path class="st2" d="M-2643.06,798.48c-20.09,88.04-95.31,115.59-95.31,115.59c76.81-10.5,100.85-102.27,100.85-102.27"/>
		<g>
			
				<rect x="-2729.72" y="746.57" transform="matrix(0.9445 -0.3285 0.3285 0.9445 -404.7493 -848.3963)" class="st2" width="33.25" height="54.06"/>
			
				<rect x="-2751.55" y="699.39" transform="matrix(0.9445 -0.3285 0.3285 0.9445 -384.7993 -859.4385)" class="st5" width="31.5" height="19.32"/>
			
				<rect x="-2761.96" y="669.52" transform="matrix(0.9445 -0.3285 0.3285 0.9445 -376.8195 -864.2443)" class="st2" width="31.86" height="27.01"/>
			
				<rect x="-2812.01" y="833.54" transform="matrix(0.9445 -0.3285 0.3285 0.9445 -433.9232 -867.9939)" class="st2" width="52.66" height="33.21"/>
			<polygon class="st2" points="-2761.77,824.25 -2750.86,855.61 -2750.83,855.6 -2748.74,861.62 -2711.62,848.71 -2702.22,822.39 
				-2678.65,814.19 -2684.5,797.37 			"/>
			
				<rect x="-2773.55" y="760.35" transform="matrix(0.9445 -0.3285 0.3285 0.9445 -411.4709 -860.6383)" class="st5" width="41.73" height="54.06"/>
			
				<rect x="-2747.86" y="723.95" transform="matrix(0.9445 -0.3285 0.3285 0.9445 -393.3896 -857.4763)" class="st5" width="27.14" height="23"/>
			
				<rect x="-2717.59" y="717.06" transform="matrix(0.9445 -0.3285 0.3285 0.9445 -390.0244 -851.3474)" class="st2" width="6.24" height="23"/>
			<polygon class="st2" points="-2782.27,714.82 -2782.28,714.78 -2782.31,714.83 -2788.07,711.76 -2780.22,734.33 -2751.73,724.42 
				-2758.01,706.38 			"/>
			
				<rect x="-2768.51" y="732.85" transform="matrix(0.9445 -0.3285 0.3285 0.9445 -397.7325 -865.3861)" class="st2" width="17.29" height="23"/>
			<path class="st2" d="M-2806.19,773.06l7.3-2.54l-8.36-24.05c-1.13-3.13-2.25-6.27-3.38-9.4c-0.52,1.12-7.38,19.55-13.28,35.45
				c-4.58,12.35-8.59,23.18-8.59,23.18l14.91,42.87l24.86-8.65l-17.15-49.3C-2812.07,774.31-2806.19,773.06-2806.19,773.06z"/>
			<path class="st2" d="M-2802.11,775.95c-4.23,1.47-2.94,5.17-2.94,5.17l16.48,47.37l20.73-7.21l-17.76-51.06L-2802.11,775.95z"/>
			<polygon class="st2" points="-2796.72,744.99 -2803.69,741.4 -2794.27,768.49 -2793.08,768.08 -2769.02,759.71 -2776.58,737.98 
							"/>
			<polygon class="st2" points="-2798.45,706.22 -2808.2,733.08 -2795.73,739.73 -2784.86,735.95 -2794.46,708.35 			"/>
			<polygon class="st2" points="-2788.69,683.18 -2796.38,702.33 -2781.34,709.61 -2760.22,702.26 -2769.21,676.4 			"/>
		</g>
		<path class="st2" d="M-2896.66,670c3.12-2.27,6.22-4.55,9.29-6.87c1.86-1.4,3.7-2.8,5.55-4.22c0.28-0.22,0.56-0.43,0.84-0.65
			c0.67-0.52,1.34-1.04,2.01-1.56c1.07-0.84,2.14-1.68,3.21-2.52c1.02-1.21,2.27-2.15,3.65-2.83c0.03-0.02,0.06-0.05,0.1-0.07
			c0.1-0.09,0.21-0.17,0.3-0.25c0.45-0.38,0.9-0.76,1.35-1.13c1.94-8.39,6.24-21.02,16.55-32.46c27.72-30.8,72.53-23.83,76.64-23.12
			C-2777.18,594.32-2885.03,564.11-2896.66,670z"/>
		<polygon class="st2" points="-2896.39,827.44 -2908.85,827.44 -2926.37,812.33 -2926.37,797.68 -2933.05,786.4 -2914.72,775.65 
			-2901.54,777.32 -2878.33,781.67 -2870.48,787.9 -2855.54,789.1 -2848.63,803.83 -2850.78,824.19 -2858.88,828.57 
			-2859.94,857.04 -2854.3,876.32 -2859.94,882.01 -2877.19,862.81 -2885.42,848.51 		"/>
		<polygon class="st2" points="-2846.7,654.17 -2862.64,674.48 -2873.09,690.31 -2869.86,698.54 -2863.09,698.65 -2847.9,691.09 
			-2831.58,683.82 -2799.2,641.86 -2799.2,633.28 		"/>
		<polygon class="st2" points="-2919.33,744.95 -2891.26,736.07 -2889.99,715.06 -2882.56,693.53 -2891.22,685.1 -2917.95,726.19 		
			"/>
		<g>
			<path class="st6" d="M-2710.25,618.6l-18.53-8.57c-1.26-0.58-2.75-0.03-3.33,1.22l-1.23,2.67l-2.84-1.31l3.88-8.4
				c1.24-2.69,0.07-5.88-2.62-7.13l-0.46-0.21c-2.69-1.24-5.88-0.07-7.13,2.62l-3.88,8.4l-3.13-1.45l1.23-2.67
				c0.58-1.26,0.03-2.75-1.22-3.33l-18.53-8.57c-1.26-0.58-2.75-0.03-3.33,1.22l-3.49,7.54c-0.58,1.26-0.03,2.75,1.22,3.33
				l18.53,8.57c1.26,0.58,2.75,0.03,3.33-1.22l0.87-1.88l3.13,1.45l-3.88,8.4c-1.24,2.69-0.07,5.88,2.62,7.13l0.46,0.21
				c2.69,1.24,5.89,0.07,7.13-2.62l3.88-8.4l2.84,1.31l-0.87,1.88c-0.58,1.26-0.03,2.75,1.22,3.33l18.53,8.57
				c1.26,0.58,2.75,0.03,3.33-1.22l3.49-7.54C-2708.45,620.67-2708.99,619.18-2710.25,618.6z"/>
			<path class="st6" d="M-2744.69,633.41c0,0-3.26,0.87-6.96-1.03c-3.84-1.59-5.29-4.64-5.29-4.64s-0.58-1.84-1.66-1.25
				s-0.47,1.74-0.47,1.74c1.75,3.95,6.44,6.27,6.44,6.27s4.81,2.08,8.95,0.85c0,0,1.27-0.27,1.02-1.48
				C-2742.91,632.66-2744.69,633.41-2744.69,633.41z"/>
			<path class="st6" d="M-2750.66,630.26c0,0,3.49,1.51,6.5,0.62c0,0,0.92-0.2,0.74-1.08c-0.18-0.88-1.47-0.33-1.47-0.33
				s-2.37,0.64-5.06-0.74c-2.79-1.15-3.84-3.37-3.84-3.37s-0.42-1.34-1.21-0.91c-0.79,0.43-0.34,1.26-0.34,1.26
				C-2754.08,628.58-2750.66,630.26-2750.66,630.26z"/>
		</g>
		<path class="st6" d="M-2636.01,749.85c-4.93-25.86-15.17-48.35-30.92-67.3l3.5,20.12c-3.14-5.04-6.29-10.07-9.43-15.11
			c-4.26-5.78-8.52-11.57-12.78-17.35c-10.65-2.13-21.31-4.26-31.96-6.39c5.78,18.26,11.57,36.53,17.35,54.79
			c4.18,5.24,8.36,10.48,12.54,15.73l14.85,47.28l8.05,28.31c5.54-7,11.07-14,16.61-21c-2.44-13.7-4.87-27.39-7.3-41.09
			c5.62,12.75,11.24,25.5,16.86,38.25c0.17,0.06,0.34,0.12,0.51,0.19c0.24,2.47,0.47,4.93,0.72,7.53v0l0,0
			c0.3,3.15,0.62,6.48,0.98,10.22C-2632.86,785.05-2632.67,767.41-2636.01,749.85z"/>
		<g>
			<path class="st2" d="M-2710.35,618.6l-18.53-8.57c-1.26-0.58-2.75-0.03-3.33,1.22l-1.23,2.67l-2.84-1.31l3.88-8.4
				c1.24-2.69,0.07-5.88-2.62-7.13l-0.46-0.21c-2.69-1.24-5.88-0.07-7.13,2.62l-3.88,8.4l-3.13-1.45l1.23-2.67
				c0.58-1.26,0.03-2.75-1.22-3.33l-18.53-8.57c-1.26-0.58-2.75-0.03-3.33,1.22l-3.48,7.54c-0.58,1.26-0.03,2.75,1.22,3.33
				l18.53,8.57c1.26,0.58,2.75,0.03,3.33-1.22l0.87-1.88l3.13,1.45l-3.88,8.4c-1.24,2.69-0.07,5.88,2.62,7.13l0.46,0.21
				c2.69,1.24,5.88,0.07,7.13-2.62l3.88-8.4l2.84,1.31l-0.87,1.88c-0.58,1.26-0.03,2.75,1.22,3.33l18.53,8.57
				c1.26,0.58,2.75,0.03,3.33-1.22l3.49-7.54C-2708.55,620.67-2709.1,619.18-2710.35,618.6z"/>
			<path class="st2" d="M-2744.79,633.41c0,0-3.26,0.87-6.96-1.03c-3.84-1.59-5.29-4.64-5.29-4.64s-0.58-1.84-1.66-1.25
				c-1.08,0.59-0.47,1.74-0.47,1.74c1.75,3.95,6.44,6.27,6.44,6.27s4.81,2.08,8.95,0.85c0,0,1.27-0.27,1.02-1.48
				S-2744.79,633.41-2744.79,633.41z"/>
			<path class="st2" d="M-2750.76,630.26c0,0,3.49,1.51,6.5,0.62c0,0,0.92-0.2,0.74-1.08s-1.47-0.33-1.47-0.33s-2.37,0.64-5.06-0.74
				c-2.79-1.15-3.84-3.37-3.84-3.37s-0.42-1.34-1.21-0.91c-0.79,0.43-0.34,1.26-0.34,1.26
				C-2754.18,628.58-2750.76,630.26-2750.76,630.26z"/>
		</g>
		<path class="st2" d="M-2636.11,749.85c-4.93-25.86-15.17-48.35-30.92-67.3l3.5,20.12c-3.14-5.04-6.29-10.07-9.43-15.11
			c-4.26-5.78-8.52-11.57-12.78-17.35c-10.65-2.13-21.31-4.26-31.96-6.39c5.78,18.26,11.57,36.53,17.35,54.79
			c4.18,5.24,8.36,10.48,12.54,15.73l14.85,47.28l8.05,28.31c5.54-7,11.07-14,16.61-21c-2.43-13.7-4.87-27.39-7.3-41.09
			c5.62,12.75,11.24,25.5,16.86,38.25c0.17,0.06,0.34,0.12,0.51,0.19c0.24,2.47,0.47,4.93,0.72,7.53v0l0,0
			c0.3,3.15,0.62,6.48,0.98,10.22C-2632.96,785.05-2632.77,767.41-2636.11,749.85z"/>
	</g>
	<g>
		<g>
			<path class="st8" d="M-2526.47,776.02c-26.52,0-48.1-20.72-48.1-47.48s21.34-47.24,47.85-47.24c16.53,0,31.08,7.65,40.21,21.46
				c2.96,4.44,5.3,9.62,6.17,14.92h-24.42c-3.58-9.37-11.84-15.91-22.08-15.91c-14.8,0-24.42,12.58-24.42,26.64
				c0,14.06,9.62,27.13,24.54,27.13c10.24,0,17.88-6.41,21.95-15.42h24.42C-2485.65,761.71-2504.4,776.02-2526.47,776.02z"/>
			<path class="st8" d="M-2424.23,776.02c-25.78,0-47.98-19.98-47.98-46.25c0-6.78,1.11-13.2,3.58-19.49
				c1.36-3.58,3.58-7.15,5.92-10.24c9.37-12.33,23.06-18.75,38.6-18.75c26.64,0,48.22,20.47,48.22,47.36
				C-2375.88,755.67-2397.47,776.02-2424.23,776.02z M-2423.98,701.77c-14.92,0-24.91,12.33-24.91,26.64
				c0,14.55,9.99,27.13,25.16,27.13c14.68,0,24.54-12.83,24.54-26.76C-2399.19,714.59-2409.06,701.77-2423.98,701.77z"/>
			<path class="st8" d="M-2306.57,774.29l-34.78-55.5l-0.25,0.12l0.62,55.38h-22.32v-91.27h20.1l35.27,57.35l0.25-0.25l-0.99-57.1
				h22.32v91.27H-2306.57z"/>
			<path class="st8" d="M-2241.94,776.02c-18.38,0-32.93-9.5-32.93-28.98v-2.96h23.19c0,5.92,2.71,12.46,9.5,12.46
				c4.81,0,8.88-3.82,8.88-8.76c0-5.92-4.93-7.89-9.74-9.99c-2.71-1.23-5.43-2.34-8.14-3.45c-11.84-4.93-22.32-11.84-22.32-26.15
				c0-17.02,16.4-26.89,31.94-26.89c8.88,0,18.87,3.33,24.67,10.36c4.69,5.8,5.8,10.85,6.04,18.01h-23.06
				c-0.74-5.06-2.47-8.88-8.39-8.88c-4.07,0-8.02,2.84-8.02,7.15c0,1.36,0.12,2.71,0.86,3.82c2.22,3.7,14.18,8.39,18.01,10.11
				c12.09,5.55,21.34,11.84,21.34,26.15C-2210.12,767.14-2223.93,776.02-2241.94,776.02z"/>
			<path class="st8" d="M-2164.73,703.5v70.79h-23.31V703.5h-18.01v-20.47h59.2v20.47H-2164.73z"/>
			<path class="st8" d="M-2093.82,774.29l-21.09-29.48h-0.25v29.48h-22.32v-91.27h28.86c9.62,0,20.23,0.25,28.12,6.54
				c7.52,6.04,11.22,15.42,11.22,24.91c0,14.06-8.26,26.39-22.69,28.74l24.79,31.08H-2093.82z M-2106.64,703.5h-8.51v25.41h8.26
				c8.76,0,15.29-3.7,15.29-13.07C-2091.6,706.83-2098.63,703.5-2106.64,703.5z"/>
			<path class="st8" d="M-1995.03,766.15c-6.91,7.03-15.79,9.87-25.53,9.87c-9.5,0-19.61-2.71-26.27-9.74
				c-8.26-8.76-9.13-16.53-9.13-28.12v-55.13h23.31v55.13c0,8.26,1.36,17.39,11.84,17.39c10.98,0,11.59-8.76,11.59-17.39v-55.13
				h23.31v55.13C-1985.9,749.01-1987.13,758.26-1995.03,766.15z"/>
			<path class="st8" d="M-1925.09,776.14c-26.89,0-48.47-20.84-48.47-47.85c0-27.38,22.08-46.99,48.84-46.99
				c19.73,0,40.08,12.83,45.63,32.31h-26.15c-4.19-7.52-11.47-11.84-20.1-11.84c-14.92,0-24.91,12.09-24.91,26.52
				c0,14.92,9.5,27.38,25.04,27.38c9.99,0,18.99-4.56,21.83-14.68h-27.26v-18.62h54.14c0.12,1.6,0.12,3.21,0.12,4.81
				C-1876.38,755.17-1897.1,776.14-1925.09,776.14z"/>
			<path class="st8" d="M-1820.63,774.29l-21.09-29.48h-0.25v29.48h-22.32v-91.27h28.86c9.62,0,20.23,0.25,28.12,6.54
				c7.52,6.04,11.22,15.42,11.22,24.91c0,14.06-8.26,26.39-22.69,28.74l24.79,31.08H-1820.63z M-1833.46,703.5h-8.51v25.41h8.26
				c8.76,0,15.29-3.7,15.29-13.07C-1818.41,706.83-1825.44,703.5-1833.46,703.5z"/>
			<path class="st8" d="M-1783.75,774.29v-91.27h23.31v91.27H-1783.75z"/>
			<path class="st8" d="M-1713.21,774.29h-31.94v-91.27h30.22c16.53,0,29.97,2.71,40.33,17.02c5.92,8.26,8.39,18.25,8.39,28.37
				C-1666.21,758.38-1683.36,774.29-1713.21,774.29z M-1711.73,703.5h-10.11v50.32h9.99c15.91,0,22.32-10.24,22.32-25.04
				C-1689.53,714.23-1696.19,703.5-1711.73,703.5z"/>
		</g>
		<g>
			<path class="st9" d="M-2567.37,864.61v-51.28h27.65v6.86h-20.16v15.11h20.16v6.86h-20.16v15.59h20.16v6.86H-2567.37z"/>
			<path class="st9" d="M-2504.38,864.61v-20.86c0-6.51-1.94-11.99-9.56-11.99c-7.07,0-10.12,5.47-10.12,11.92v20.93h-7.21v-38.39
				h6.72v4.09h0.14c2.77-3.67,6.79-5.13,11.23-5.13c5.47,0,10.6,2.15,13.58,6.86c1.87,2.91,2.43,6.44,2.43,9.84v22.73H-2504.38z"/>
			<path class="st9" d="M-2469.66,879.71c-8.38,0-15.52-4.37-18.92-12.13h8.04c2.63,3.74,6.31,5.54,10.95,5.54
				c8.73,0,13.51-4.78,13.51-13.58h-0.14c-3.05,4.23-8.18,6.03-13.24,6.03c-11.02,0-20.51-9.22-20.51-20.3
				c0-2.98,0.76-5.96,2.08-8.59c3.53-7.35,10.39-11.5,18.57-11.5c4.71,0,10.05,1.87,13.23,5.47v-4.43h7.21v33.19
				C-2448.88,872.37-2456.91,879.71-2469.66,879.71z M-2464.4,832.8c-1.59-0.62-3.33-1.04-5.06-1.04c-7.48,0-13.3,6.24-13.3,13.65
				c0,7.28,5.89,13.58,13.24,13.58c5.61,0,9.98-3.12,12.2-8.18c0.76-1.66,1.25-3.53,1.25-5.34
				C-2456.08,839.59-2458.85,834.95-2464.4,832.8z"/>
			<path class="st9" d="M-2403.63,848.53h-31.81c1.45,5.96,6.31,10.46,12.61,10.46c4.5,0,8.87-2.42,10.95-6.44h7.21
				c-2.91,7.83-10.05,13.03-18.43,13.03c-10.95,0-19.54-9.49-19.54-20.23c0-11.09,8.45-20.16,19.68-20.16
				c10.88,0,19.54,8.94,19.54,19.75C-2403.42,846.1-2403.49,847.35-2403.63,848.53z M-2423.03,831.76c-6.24,0-11.99,4.92-12.4,11.23
				h24.81C-2411.04,836.68-2416.79,831.76-2423.03,831.76z"/>
			<path class="st9" d="M-2369.39,864.61v-20.86c0-6.51-1.94-11.99-9.56-11.99c-7.07,0-10.12,5.47-10.12,11.92v20.93h-7.21v-38.39
				h6.72v4.09h0.14c2.77-3.67,6.79-5.13,11.23-5.13c5.47,0,10.6,2.15,13.58,6.86c1.87,2.91,2.43,6.44,2.43,9.84v22.73H-2369.39z"/>
			<path class="st9" d="M-2326.15,864.61v-20.86c0-6.51-1.94-11.99-9.56-11.99c-7.07,0-10.12,5.47-10.12,11.92v20.93h-7.21v-51.28
				h7.21v16.98h0.14c2.49-3.74,6.44-5.13,10.74-5.13c5.47,0,10.6,2.15,13.58,6.86c1.87,2.91,2.43,6.44,2.43,9.84v22.73H-2326.15z"/>
			<path class="st9" d="M-2278.34,864.61v-5.96h-0.14c-2.7,4.64-7.76,6.93-13.03,6.93c-11.5,0-20.37-8.45-20.37-20.03
				c0-11.64,8.73-20.37,20.37-20.37c5.13,0,10.19,2.08,13.03,6.44h0.14v-5.4h7.21v38.39H-2278.34z M-2291.5,831.76
				c-7.62,0-13.17,6.24-13.17,13.72c0,7.21,5.75,13.51,13.1,13.51c7.48,0,13.37-6.1,13.37-13.51
				C-2278.2,837.79-2283.67,831.76-2291.5,831.76z"/>
			<path class="st9" d="M-2250.41,833.98c-3.4,1.73-4.23,6.17-4.23,9.63v21h-7.21v-38.39h6.72v3.46h0.14
				c2.36-3.33,5.89-4.36,9.77-4.5v7.41C-2246.81,832.59-2249.03,833.22-2250.41,833.98z"/>
			<path class="st9" d="M-2238.22,821.78v-8.45h7.21v8.45H-2238.22z M-2238.22,864.61v-38.39h7.21v38.39H-2238.22z"/>
			<path class="st9" d="M-2190.2,864.61v-5.96h-0.14c-2.7,4.64-7.76,6.93-13.03,6.93c-11.5,0-20.37-8.45-20.37-20.03
				c0-11.64,8.73-20.37,20.37-20.37c5.13,0,10.19,2.08,13.03,6.44h0.14v-5.4h7.21v38.39H-2190.2z M-2203.36,831.76
				c-7.62,0-13.17,6.24-13.17,13.72c0,7.21,5.75,13.51,13.1,13.51c7.48,0,13.37-6.1,13.37-13.51
				C-2190.06,837.79-2195.53,831.76-2203.36,831.76z"/>
			<path class="st9" d="M-2116.19,848.53h-31.81c1.46,5.96,6.31,10.46,12.61,10.46c4.5,0,8.87-2.42,10.95-6.44h7.21
				c-2.91,7.83-10.05,13.03-18.43,13.03c-10.95,0-19.54-9.49-19.54-20.23c0-11.09,8.45-20.16,19.68-20.16
				c10.88,0,19.54,8.94,19.54,19.75C-2115.98,846.1-2116.05,847.35-2116.19,848.53z M-2135.59,831.76c-6.24,0-11.99,4.92-12.4,11.23
				h24.81C-2123.6,836.68-2129.35,831.76-2135.59,831.76z"/>
			<path class="st9" d="M-2055.76,864.61l-5.68-15.11h-18.43l-5.68,15.11h-7.9l19.47-51.28h6.72l19.47,51.28H-2055.76z
				 M-2070.52,823.03h-0.14l-6.58,19.61h13.24L-2070.52,823.03z"/>
			<path class="st9" d="M-2026.45,879.71c-8.38,0-15.52-4.37-18.92-12.13h8.04c2.63,3.74,6.31,5.54,10.95,5.54
				c8.73,0,13.51-4.78,13.51-13.58h-0.14c-3.05,4.23-8.18,6.03-13.24,6.03c-11.02,0-20.51-9.22-20.51-20.3
				c0-2.98,0.76-5.96,2.08-8.59c3.53-7.35,10.39-11.5,18.57-11.5c4.71,0,10.05,1.87,13.24,5.47v-4.43h7.21v33.19
				C-2005.66,872.37-2013.7,879.71-2026.45,879.71z M-2021.18,832.8c-1.59-0.62-3.33-1.04-5.06-1.04c-7.48,0-13.3,6.24-13.3,13.65
				c0,7.28,5.89,13.58,13.24,13.58c5.61,0,9.98-3.12,12.2-8.18c0.76-1.66,1.25-3.53,1.25-5.34
				C-2012.86,839.59-2015.64,834.95-2021.18,832.8z"/>
			<path class="st9" d="M-1985.01,833.98c-3.4,1.73-4.23,6.17-4.23,9.63v21h-7.21v-38.39h6.72v3.46h0.14
				c2.36-3.33,5.89-4.36,9.77-4.5v7.41C-1981.4,832.59-1983.62,833.22-1985.01,833.98z"/>
			<path class="st9" d="M-1972.81,821.78v-8.45h7.21v8.45H-1972.81z M-1972.81,864.61v-38.39h7.21v38.39H-1972.81z"/>
			<path class="st9" d="M-1905.46,864.61v-21.34c0-6.03-2.01-11.5-9.08-11.5c-7.48,0-9.15,5.13-9.15,11.43v21.41h-7.21v-21.34
				c0-2.91,0-5.34-1.59-7.9c-1.66-2.56-4.16-3.6-7.14-3.6c-7.41,0-9.49,4.99-9.49,11.43v21.41h-7.21v-38.39h6.65v4.16h0.14
				c3.19-3.74,5.96-5.2,11.02-5.2c4.5,0,9.91,2.15,11.92,6.44c2.98-4.71,7.07-6.44,12.68-6.44c10.19,0,15.66,6.38,15.66,16.28v23.14
				H-1905.46z"/>
			<path class="st9" d="M-1851.96,848.53h-31.81c1.45,5.96,6.31,10.46,12.61,10.46c4.5,0,8.87-2.42,10.95-6.44h7.21
				c-2.91,7.83-10.05,13.03-18.43,13.03c-10.95,0-19.54-9.49-19.54-20.23c0-11.09,8.45-20.16,19.68-20.16
				c10.88,0,19.54,8.94,19.54,19.75C-1851.75,846.1-1851.82,847.35-1851.96,848.53z M-1871.36,831.76c-6.24,0-11.99,4.92-12.4,11.23
				h24.81C-1859.38,836.68-1865.13,831.76-1871.36,831.76z"/>
			<path class="st9" d="M-1817.73,864.61v-20.86c0-6.51-1.94-11.99-9.56-11.99c-7.07,0-10.12,5.47-10.12,11.92v20.93h-7.21v-38.39
				h6.72v4.09h0.14c2.77-3.67,6.79-5.13,11.23-5.13c5.47,0,10.6,2.15,13.58,6.86c1.87,2.91,2.43,6.44,2.43,9.84v22.73H-1817.73z"/>
			<path class="st9" d="M-1790.98,865.58c-1.66,0-3.33-0.35-4.92-0.9c-5.68-2.01-8.66-6.65-8.66-12.68h7.21c0.28,3.95,2.22,7,6.51,7
				c3.19,0,5.54-1.94,5.54-5.27c0-8.04-17.53-3.88-17.53-17.46c0-6.58,5.75-11.09,12.06-11.09c6.58,0,11.64,4.57,11.78,11.23h-7.21
				c-0.35-2.77-2.01-4.64-4.92-4.64c-2.43,0-4.5,1.53-4.5,4.09c0,3.4,3.33,4.16,5.96,4.99c6.31,1.94,11.57,5.06,11.57,12.47
				C-1778.09,860.87-1783.63,865.58-1790.98,865.58z"/>
			<path class="st9" d="M-1744.55,864.61v-4.16h-0.14c-2.22,3.74-7.21,5.13-11.3,5.13c-4.02,0-7.9-1.18-10.95-3.81
				c-4.23-3.67-5.06-9.49-5.06-14.76v-20.79h7.21v20.79c0,6.79,2.01,11.99,9.56,11.99c7.34,0,10.05-5.54,10.05-12.2v-20.58h7.21
				v38.39H-1744.55z"/>
			<path class="st9" d="M-1717.25,833.98c-3.4,1.73-4.23,6.17-4.23,9.63v21h-7.21v-38.39h6.72v3.46h0.14
				c2.36-3.33,5.89-4.36,9.77-4.5v7.41C-1713.65,832.59-1715.86,833.22-1717.25,833.98z"/>
			<path class="st9" d="M-1675.53,864.61v-5.96h-0.14c-2.7,4.64-7.76,6.93-13.03,6.93c-11.5,0-20.37-8.45-20.37-20.03
				c0-11.64,8.73-20.37,20.37-20.37c5.13,0,10.19,2.08,13.03,6.44h0.14v-5.4h7.21v38.39H-1675.53z M-1688.7,831.76
				c-7.62,0-13.17,6.24-13.17,13.72c0,7.21,5.75,13.51,13.1,13.51c7.48,0,13.37-6.1,13.37-13.51
				C-1675.4,837.79-1680.87,831.76-1688.7,831.76z"/>
		</g>
		<g>
			<path class="st2" d="M-2526.64,776.02c-26.52,0-48.1-20.72-48.1-47.48s21.34-47.24,47.85-47.24c16.53,0,31.08,7.65,40.21,21.46
				c2.96,4.44,5.3,9.62,6.17,14.92h-24.42c-3.58-9.37-11.84-15.91-22.08-15.91c-14.8,0-24.42,12.58-24.42,26.64
				c0,14.06,9.62,27.13,24.54,27.13c10.24,0,17.88-6.41,21.95-15.42h24.42C-2485.82,761.71-2504.57,776.02-2526.64,776.02z"/>
			<path class="st2" d="M-2424.4,776.02c-25.78,0-47.98-19.98-47.98-46.25c0-6.78,1.11-13.2,3.58-19.49
				c1.36-3.58,3.58-7.15,5.92-10.24c9.37-12.33,23.06-18.75,38.6-18.75c26.64,0,48.22,20.47,48.22,47.36
				C-2376.05,755.67-2397.64,776.02-2424.4,776.02z M-2424.15,701.77c-14.92,0-24.91,12.33-24.91,26.64
				c0,14.55,9.99,27.13,25.16,27.13c14.68,0,24.54-12.83,24.54-26.76C-2399.36,714.59-2409.23,701.77-2424.15,701.77z"/>
			<path class="st2" d="M-2306.74,774.29l-34.78-55.5l-0.25,0.12l0.62,55.38h-22.32v-91.27h20.1l35.27,57.35l0.25-0.25l-0.99-57.1
				h22.32v91.27H-2306.74z"/>
			<path class="st2" d="M-2242.11,776.02c-18.38,0-32.93-9.5-32.93-28.98v-2.96h23.19c0,5.92,2.71,12.46,9.5,12.46
				c4.81,0,8.88-3.82,8.88-8.76c0-5.92-4.93-7.89-9.74-9.99c-2.71-1.23-5.43-2.34-8.14-3.45c-11.84-4.93-22.32-11.84-22.32-26.15
				c0-17.02,16.4-26.89,31.94-26.89c8.88,0,18.87,3.33,24.67,10.36c4.69,5.8,5.8,10.85,6.04,18.01h-23.06
				c-0.74-5.06-2.47-8.88-8.39-8.88c-4.07,0-8.02,2.84-8.02,7.15c0,1.36,0.12,2.71,0.86,3.82c2.22,3.7,14.18,8.39,18.01,10.11
				c12.09,5.55,21.34,11.84,21.34,26.15C-2210.29,767.14-2224.1,776.02-2242.11,776.02z"/>
			<path class="st2" d="M-2164.9,703.5v70.79h-23.31V703.5h-18.01v-20.47h59.2v20.47H-2164.9z"/>
			<path class="st2" d="M-2093.99,774.29l-21.09-29.48h-0.25v29.48h-22.32v-91.27h28.86c9.62,0,20.23,0.25,28.12,6.54
				c7.52,6.04,11.22,15.42,11.22,24.91c0,14.06-8.26,26.39-22.69,28.74l24.79,31.08H-2093.99z M-2106.81,703.5h-8.51v25.41h8.26
				c8.76,0,15.29-3.7,15.29-13.07C-2091.77,706.83-2098.8,703.5-2106.81,703.5z"/>
			<path class="st2" d="M-1995.2,766.15c-6.91,7.03-15.79,9.87-25.53,9.87c-9.5,0-19.61-2.71-26.27-9.74
				c-8.26-8.76-9.13-16.53-9.13-28.12v-55.13h23.31v55.13c0,8.26,1.36,17.39,11.84,17.39c10.98,0,11.59-8.76,11.59-17.39v-55.13
				h23.31v55.13C-1986.07,749.01-1987.3,758.26-1995.2,766.15z"/>
			<path class="st2" d="M-1925.26,776.14c-26.89,0-48.47-20.84-48.47-47.85c0-27.38,22.08-46.99,48.84-46.99
				c19.73,0,40.08,12.83,45.63,32.31h-26.15c-4.19-7.52-11.47-11.84-20.1-11.84c-14.92,0-24.91,12.09-24.91,26.52
				c0,14.92,9.5,27.38,25.04,27.38c9.99,0,18.99-4.56,21.83-14.68h-27.26v-18.62h54.14c0.12,1.6,0.12,3.21,0.12,4.81
				C-1876.55,755.17-1897.27,776.14-1925.26,776.14z"/>
			<path class="st2" d="M-1820.8,774.29l-21.09-29.48h-0.25v29.48h-22.32v-91.27h28.86c9.62,0,20.23,0.25,28.12,6.54
				c7.52,6.04,11.22,15.42,11.22,24.91c0,14.06-8.26,26.39-22.69,28.74l24.79,31.08H-1820.8z M-1833.63,703.5h-8.51v25.41h8.26
				c8.76,0,15.29-3.7,15.29-13.07C-1818.58,706.83-1825.61,703.5-1833.63,703.5z"/>
			<path class="st2" d="M-1783.92,774.29v-91.27h23.31v91.27H-1783.92z"/>
			<path class="st2" d="M-1713.38,774.29h-31.94v-91.27h30.22c16.53,0,29.97,2.71,40.33,17.02c5.92,8.26,8.39,18.25,8.39,28.37
				C-1666.39,758.38-1683.53,774.29-1713.38,774.29z M-1711.9,703.5h-10.11v50.32h9.99c15.91,0,22.32-10.24,22.32-25.04
				C-1689.7,714.23-1696.36,703.5-1711.9,703.5z"/>
		</g>
		<g>
			<path class="st3" d="M-2567.54,864.61v-51.28h27.65v6.86h-20.16v15.11h20.16v6.86h-20.16v15.59h20.16v6.86H-2567.54z"/>
			<path class="st3" d="M-2504.55,864.61v-20.86c0-6.51-1.94-11.99-9.56-11.99c-7.07,0-10.12,5.47-10.12,11.92v20.93h-7.21v-38.39
				h6.72v4.09h0.14c2.77-3.67,6.79-5.13,11.23-5.13c5.47,0,10.6,2.15,13.58,6.86c1.87,2.91,2.43,6.44,2.43,9.84v22.73H-2504.55z"/>
			<path class="st3" d="M-2469.83,879.71c-8.38,0-15.52-4.37-18.92-12.13h8.04c2.63,3.74,6.31,5.54,10.95,5.54
				c8.73,0,13.51-4.78,13.51-13.58h-0.14c-3.05,4.23-8.18,6.03-13.24,6.03c-11.02,0-20.51-9.22-20.51-20.3
				c0-2.98,0.76-5.96,2.08-8.59c3.53-7.35,10.39-11.5,18.57-11.5c4.71,0,10.05,1.87,13.23,5.47v-4.43h7.21v33.19
				C-2449.05,872.37-2457.08,879.71-2469.83,879.71z M-2464.57,832.8c-1.59-0.62-3.33-1.04-5.06-1.04c-7.48,0-13.3,6.24-13.3,13.65
				c0,7.28,5.89,13.58,13.24,13.58c5.61,0,9.98-3.12,12.2-8.18c0.76-1.66,1.25-3.53,1.25-5.34
				C-2456.25,839.59-2459.02,834.95-2464.57,832.8z"/>
			<path class="st3" d="M-2403.8,848.53h-31.81c1.45,5.96,6.31,10.46,12.61,10.46c4.5,0,8.87-2.42,10.95-6.44h7.21
				c-2.91,7.83-10.05,13.03-18.43,13.03c-10.95,0-19.54-9.49-19.54-20.23c0-11.09,8.45-20.16,19.68-20.16
				c10.88,0,19.54,8.94,19.54,19.75C-2403.59,846.1-2403.66,847.35-2403.8,848.53z M-2423.2,831.76c-6.24,0-11.99,4.92-12.4,11.23
				h24.81C-2411.21,836.68-2416.96,831.76-2423.2,831.76z"/>
			<path class="st3" d="M-2369.56,864.61v-20.86c0-6.51-1.94-11.99-9.56-11.99c-7.07,0-10.12,5.47-10.12,11.92v20.93h-7.21v-38.39
				h6.72v4.09h0.14c2.77-3.67,6.79-5.13,11.23-5.13c5.47,0,10.6,2.15,13.58,6.86c1.87,2.91,2.43,6.44,2.43,9.84v22.73H-2369.56z"/>
			<path class="st3" d="M-2326.32,864.61v-20.86c0-6.51-1.94-11.99-9.56-11.99c-7.07,0-10.12,5.47-10.12,11.92v20.93h-7.21v-51.28
				h7.21v16.98h0.14c2.49-3.74,6.44-5.13,10.74-5.13c5.47,0,10.6,2.15,13.58,6.86c1.87,2.91,2.42,6.44,2.42,9.84v22.73H-2326.32z"/>
			<path class="st3" d="M-2278.51,864.61v-5.96h-0.14c-2.7,4.64-7.76,6.93-13.03,6.93c-11.5,0-20.37-8.45-20.37-20.03
				c0-11.64,8.73-20.37,20.37-20.37c5.13,0,10.19,2.08,13.03,6.44h0.14v-5.4h7.21v38.39H-2278.51z M-2291.67,831.76
				c-7.62,0-13.17,6.24-13.17,13.72c0,7.21,5.75,13.51,13.1,13.51c7.48,0,13.37-6.1,13.37-13.51
				C-2278.37,837.79-2283.84,831.76-2291.67,831.76z"/>
			<path class="st3" d="M-2250.58,833.98c-3.4,1.73-4.23,6.17-4.23,9.63v21h-7.21v-38.39h6.72v3.46h0.14
				c2.36-3.33,5.89-4.36,9.77-4.5v7.41C-2246.98,832.59-2249.2,833.22-2250.58,833.98z"/>
			<path class="st3" d="M-2238.39,821.78v-8.45h7.21v8.45H-2238.39z M-2238.39,864.61v-38.39h7.21v38.39H-2238.39z"/>
			<path class="st3" d="M-2190.37,864.61v-5.96h-0.14c-2.7,4.64-7.76,6.93-13.03,6.93c-11.5,0-20.37-8.45-20.37-20.03
				c0-11.64,8.73-20.37,20.37-20.37c5.13,0,10.19,2.08,13.03,6.44h0.14v-5.4h7.21v38.39H-2190.37z M-2203.53,831.76
				c-7.62,0-13.17,6.24-13.17,13.72c0,7.21,5.75,13.51,13.1,13.51c7.48,0,13.37-6.1,13.37-13.51
				C-2190.23,837.79-2195.7,831.76-2203.53,831.76z"/>
			<path class="st3" d="M-2116.36,848.53h-31.81c1.46,5.96,6.31,10.46,12.61,10.46c4.5,0,8.87-2.42,10.95-6.44h7.21
				c-2.91,7.83-10.05,13.03-18.43,13.03c-10.95,0-19.54-9.49-19.54-20.23c0-11.09,8.45-20.16,19.68-20.16
				c10.88,0,19.54,8.94,19.54,19.75C-2116.15,846.1-2116.22,847.35-2116.36,848.53z M-2135.76,831.76c-6.24,0-11.99,4.92-12.4,11.23
				h24.81C-2123.77,836.68-2129.52,831.76-2135.76,831.76z"/>
			<path class="st3" d="M-2055.93,864.61l-5.68-15.11h-18.43l-5.68,15.11h-7.9l19.47-51.28h6.72l19.47,51.28H-2055.93z
				 M-2070.69,823.03h-0.14l-6.58,19.61h13.24L-2070.69,823.03z"/>
			<path class="st3" d="M-2026.62,879.71c-8.38,0-15.52-4.37-18.92-12.13h8.04c2.63,3.74,6.31,5.54,10.95,5.54
				c8.73,0,13.51-4.78,13.51-13.58h-0.14c-3.05,4.23-8.18,6.03-13.24,6.03c-11.02,0-20.51-9.22-20.51-20.3
				c0-2.98,0.76-5.96,2.08-8.59c3.53-7.35,10.39-11.5,18.57-11.5c4.71,0,10.05,1.87,13.24,5.47v-4.43h7.21v33.19
				C-2005.83,872.37-2013.87,879.71-2026.62,879.71z M-2021.35,832.8c-1.59-0.62-3.33-1.04-5.06-1.04c-7.48,0-13.3,6.24-13.3,13.65
				c0,7.28,5.89,13.58,13.24,13.58c5.61,0,9.98-3.12,12.2-8.18c0.76-1.66,1.25-3.53,1.25-5.34
				C-2013.04,839.59-2015.81,834.95-2021.35,832.8z"/>
			<path class="st3" d="M-1985.18,833.98c-3.4,1.73-4.23,6.17-4.23,9.63v21h-7.21v-38.39h6.72v3.46h0.14
				c2.36-3.33,5.89-4.36,9.77-4.5v7.41C-1981.57,832.59-1983.79,833.22-1985.18,833.98z"/>
			<path class="st3" d="M-1972.98,821.78v-8.45h7.21v8.45H-1972.98z M-1972.98,864.61v-38.39h7.21v38.39H-1972.98z"/>
			<path class="st3" d="M-1905.63,864.61v-21.34c0-6.03-2.01-11.5-9.08-11.5c-7.48,0-9.15,5.13-9.15,11.43v21.41h-7.21v-21.34
				c0-2.91,0-5.34-1.59-7.9c-1.66-2.56-4.16-3.6-7.14-3.6c-7.41,0-9.49,4.99-9.49,11.43v21.41h-7.21v-38.39h6.65v4.16h0.14
				c3.19-3.74,5.96-5.2,11.02-5.2c4.5,0,9.91,2.15,11.92,6.44c2.98-4.71,7.07-6.44,12.68-6.44c10.19,0,15.66,6.38,15.66,16.28v23.14
				H-1905.63z"/>
			<path class="st3" d="M-1852.13,848.53h-31.81c1.45,5.96,6.31,10.46,12.61,10.46c4.5,0,8.87-2.42,10.95-6.44h7.21
				c-2.91,7.83-10.05,13.03-18.43,13.03c-10.95,0-19.54-9.49-19.54-20.23c0-11.09,8.45-20.16,19.68-20.16
				c10.88,0,19.54,8.94,19.54,19.75C-1851.92,846.1-1851.99,847.35-1852.13,848.53z M-1871.53,831.76c-6.24,0-11.99,4.92-12.4,11.23
				h24.81C-1859.55,836.68-1865.3,831.76-1871.53,831.76z"/>
			<path class="st3" d="M-1817.9,864.61v-20.86c0-6.51-1.94-11.99-9.56-11.99c-7.07,0-10.12,5.47-10.12,11.92v20.93h-7.21v-38.39
				h6.72v4.09h0.14c2.77-3.67,6.79-5.13,11.23-5.13c5.47,0,10.6,2.15,13.58,6.86c1.87,2.91,2.43,6.44,2.43,9.84v22.73H-1817.9z"/>
			<path class="st3" d="M-1791.15,865.58c-1.66,0-3.33-0.35-4.92-0.9c-5.68-2.01-8.66-6.65-8.66-12.68h7.21c0.28,3.95,2.22,7,6.51,7
				c3.19,0,5.54-1.94,5.54-5.27c0-8.04-17.53-3.88-17.53-17.46c0-6.58,5.75-11.09,12.06-11.09c6.58,0,11.64,4.57,11.78,11.23h-7.21
				c-0.35-2.77-2.01-4.64-4.92-4.64c-2.43,0-4.5,1.53-4.5,4.09c0,3.4,3.33,4.16,5.96,4.99c6.31,1.94,11.57,5.06,11.57,12.47
				C-1778.26,860.87-1783.8,865.58-1791.15,865.58z"/>
			<path class="st3" d="M-1744.72,864.61v-4.16h-0.14c-2.22,3.74-7.21,5.13-11.3,5.13c-4.02,0-7.9-1.18-10.95-3.81
				c-4.23-3.67-5.06-9.49-5.06-14.76v-20.79h7.21v20.79c0,6.79,2.01,11.99,9.56,11.99c7.34,0,10.05-5.54,10.05-12.2v-20.58h7.21
				v38.39H-1744.72z"/>
			<path class="st3" d="M-1717.42,833.98c-3.4,1.73-4.23,6.17-4.23,9.63v21h-7.21v-38.39h6.72v3.46h0.14
				c2.36-3.33,5.89-4.36,9.77-4.5v7.41C-1713.82,832.59-1716.03,833.22-1717.42,833.98z"/>
			<path class="st3" d="M-1675.7,864.61v-5.96h-0.14c-2.7,4.64-7.76,6.93-13.03,6.93c-11.5,0-20.37-8.45-20.37-20.03
				c0-11.64,8.73-20.37,20.37-20.37c5.13,0,10.19,2.08,13.03,6.44h0.14v-5.4h7.21v38.39H-1675.7z M-1688.87,831.76
				c-7.62,0-13.17,6.24-13.17,13.72c0,7.21,5.75,13.51,13.1,13.51c7.48,0,13.37-6.1,13.37-13.51
				C-1675.57,837.79-1681.04,831.76-1688.87,831.76z"/>
		</g>
	</g>
</g>
<path class="st2" d="M504.14,488.52l16.43-29.3c0,0,5.21,14.43,15.34,20.58c0,0-6.24,88.34,5.78,145.5l-28.06-75.21L504.14,488.52z"
	/>
<g>
	<path class="st2" d="M174.29,1157.59c-37.48,0-67.99-29.29-67.99-67.12s30.16-66.77,67.64-66.77c23.36,0,43.93,10.81,56.83,30.33
		c4.18,6.28,7.5,13.6,8.72,21.09h-34.52c-5.06-13.25-16.74-22.49-31.21-22.49c-20.92,0-34.52,17.78-34.52,37.66
		s13.6,38.35,34.69,38.35c14.47,0,25.28-9.07,31.03-21.79h34.52C231.99,1137.36,205.49,1157.59,174.29,1157.59z"/>
	<path class="st2" d="M318.81,1157.59c-36.44,0-67.81-28.24-67.81-65.37c0-9.59,1.57-18.65,5.06-27.54
		c1.92-5.06,5.06-10.11,8.37-14.47c13.25-17.43,32.6-26.5,54.57-26.5c37.66,0,68.16,28.94,68.16,66.94
		C387.14,1128.82,356.64,1157.59,318.81,1157.59z M319.15,1052.64c-21.09,0-35.21,17.43-35.21,37.66
		c0,20.57,14.12,38.35,35.56,38.35c20.75,0,34.69-18.13,34.69-37.83C354.2,1070.77,340.25,1052.64,319.15,1052.64z"/>
	<path class="st2" d="M485.12,1155.15l-49.16-78.45l-0.35,0.17l0.87,78.28h-31.55v-129.01h28.42l49.86,81.06l0.35-0.35l-1.39-80.72
		h31.55v129.01H485.12z"/>
	<path class="st2" d="M576.47,1157.59c-25.98,0-46.55-13.42-46.55-40.97v-4.18h32.77c0,8.37,3.83,17.61,13.42,17.61
		c6.8,0,12.55-5.4,12.55-12.38c0-8.37-6.97-11.16-13.77-14.12c-3.84-1.74-7.67-3.31-11.51-4.88c-16.74-6.97-31.55-16.74-31.55-36.96
		c0-24.06,23.19-38,45.15-38c12.55,0,26.67,4.71,34.87,14.64c6.63,8.19,8.19,15.34,8.54,25.45h-32.6
		c-1.05-7.15-3.49-12.55-11.85-12.55c-5.75,0-11.33,4.01-11.33,10.11c0,1.92,0.17,3.83,1.22,5.4c3.14,5.23,20.05,11.85,25.45,14.29
		c17.08,7.84,30.16,16.74,30.16,36.96C621.45,1145.03,601.92,1157.59,576.47,1157.59z"/>
	<path class="st2" d="M685.6,1055.08v100.07h-32.95v-100.07H627.2v-28.94h83.68v28.94H685.6z"/>
	<path class="st2" d="M785.84,1155.15l-29.81-41.67h-0.35v41.67h-31.55v-129.01h40.79c13.6,0,28.59,0.35,39.75,9.24
		c10.63,8.54,15.86,21.79,15.86,35.21c0,19.87-11.68,37.31-32.08,40.62l35.04,43.93H785.84z M767.71,1055.08h-12.03v35.91h11.68
		c12.38,0,21.62-5.23,21.62-18.48C788.98,1059.79,779.04,1055.08,767.71,1055.08z"/>
	<path class="st2" d="M925.48,1143.64c-9.76,9.94-22.31,13.95-36.09,13.95c-13.42,0-27.72-3.83-37.13-13.77
		c-11.68-12.38-12.9-23.36-12.9-39.75v-77.93h32.95v77.93c0,11.68,1.92,24.58,16.74,24.58c15.52,0,16.39-12.38,16.39-24.58v-77.93
		h32.95v77.93C938.39,1119.41,936.64,1132.48,925.48,1143.64z"/>
	<path class="st2" d="M1024.33,1157.76c-38,0-68.51-29.46-68.51-67.64c0-38.7,31.21-66.42,69.04-66.42
		c27.89,0,56.66,18.13,64.5,45.67h-36.96c-5.93-10.63-16.21-16.74-28.42-16.74c-21.09,0-35.21,17.08-35.21,37.48
		c0,21.09,13.42,38.7,35.39,38.7c14.12,0,26.85-6.45,30.86-20.75h-38.53v-26.32h76.53c0.17,2.27,0.17,4.53,0.17,6.8
		C1093.19,1128.12,1063.91,1157.76,1024.33,1157.76z"/>
	<path class="st2" d="M1171.99,1155.15l-29.81-41.67h-0.35v41.67h-31.55v-129.01h40.79c13.6,0,28.59,0.35,39.75,9.24
		c10.63,8.54,15.86,21.79,15.86,35.21c0,19.87-11.68,37.31-32.08,40.62l35.04,43.93H1171.99z M1153.86,1055.08h-12.03v35.91h11.68
		c12.38,0,21.62-5.23,21.62-18.48C1175.13,1059.79,1165.19,1055.08,1153.86,1055.08z"/>
	<path class="st2" d="M1224.12,1155.15v-129.01h32.95v129.01H1224.12z"/>
	<path class="st2" d="M1323.84,1155.15h-45.15v-129.01h42.71c23.36,0,42.36,3.84,57.01,24.06c8.37,11.68,11.85,25.8,11.85,40.1
		C1390.26,1132.66,1366.02,1155.15,1323.84,1155.15z M1325.93,1055.08h-14.29v71.13h14.12c22.49,0,31.55-14.47,31.55-35.39
		C1357.31,1070.25,1347.89,1055.08,1325.93,1055.08z"/>
</g>
<g>
	<path class="st3" d="M116.48,1282.81v-72.48h39.08v9.7h-28.5v21.35h28.5v9.7h-28.5v22.04h28.5v9.7H116.48z"/>
	<path class="st3" d="M205.51,1282.81v-29.48c0-9.21-2.74-16.95-13.52-16.95c-9.99,0-14.3,7.74-14.3,16.85v29.58h-10.19v-54.26h9.5
		v5.78h0.2c3.92-5.19,9.6-7.25,15.87-7.25c7.74,0,14.99,3.04,19.2,9.7c2.64,4.11,3.43,9.11,3.43,13.91v32.13H205.51z"/>
	<path class="st3" d="M254.59,1304.16c-11.85,0-21.94-6.17-26.74-17.14h11.36c3.72,5.29,8.91,7.84,15.48,7.84
		c12.34,0,19.1-6.76,19.1-19.2h-0.2c-4.31,5.97-11.56,8.52-18.71,8.52c-15.57,0-28.99-13.03-28.99-28.7c0-4.21,1.08-8.42,2.94-12.14
		c5-10.38,14.69-16.26,26.25-16.26c6.66,0,14.2,2.64,18.71,7.74v-6.27h10.19v46.92C283.97,1293.78,272.61,1304.16,254.59,1304.16z
		 M262.03,1237.85c-2.25-0.88-4.7-1.47-7.15-1.47c-10.58,0-18.81,8.82-18.81,19.3c0,10.28,8.33,19.2,18.71,19.2
		c7.93,0,14.1-4.41,17.24-11.56c1.08-2.35,1.76-4.99,1.76-7.54C273.78,1247.45,269.86,1240.89,262.03,1237.85z"/>
	<path class="st3" d="M347.93,1260.09h-44.96c2.06,8.42,8.91,14.79,17.83,14.79c6.37,0,12.54-3.43,15.48-9.11h10.19
		c-4.11,11.07-14.2,18.41-26.05,18.41c-15.48,0-27.62-13.42-27.62-28.6c0-15.67,11.95-28.5,27.82-28.5
		c15.38,0,27.62,12.63,27.62,27.92C348.22,1256.66,348.13,1258.42,347.93,1260.09z M320.51,1236.38c-8.81,0-16.94,6.96-17.53,15.87
		h35.06C337.45,1243.34,329.32,1236.38,320.51,1236.38z"/>
	<path class="st3" d="M396.32,1282.81v-29.48c0-9.21-2.74-16.95-13.52-16.95c-9.99,0-14.3,7.74-14.3,16.85v29.58h-10.19v-54.26h9.5
		v5.78h0.2c3.92-5.19,9.6-7.25,15.87-7.25c7.74,0,14.99,3.04,19.2,9.7c2.64,4.11,3.43,9.11,3.43,13.91v32.13H396.32z"/>
	<path class="st3" d="M457.44,1282.81v-29.48c0-9.21-2.74-16.95-13.52-16.95c-9.99,0-14.3,7.74-14.3,16.85v29.58h-10.19v-72.48
		h10.19v24h0.2c3.53-5.29,9.11-7.25,15.18-7.25c7.74,0,14.99,3.04,19.2,9.7c2.64,4.11,3.43,9.11,3.43,13.91v32.13H457.44z"/>
	<path class="st3" d="M525.02,1282.81v-8.42h-0.2c-3.82,6.56-10.97,9.79-18.41,9.79c-16.26,0-28.8-11.95-28.8-28.31
		c0-16.46,12.34-28.8,28.8-28.8c7.25,0,14.4,2.94,18.41,9.11h0.2v-7.64h10.19v54.26H525.02z M506.41,1236.38
		c-10.77,0-18.61,8.82-18.61,19.39c0,10.19,8.13,19.1,18.51,19.1c10.58,0,18.9-8.62,18.9-19.1
		C525.22,1244.9,517.48,1236.38,506.41,1236.38z"/>
	<path class="st3" d="M564.5,1239.52c-4.8,2.45-5.97,8.72-5.97,13.62v29.68h-10.19v-54.26h9.5v4.9h0.2
		c3.33-4.7,8.33-6.17,13.81-6.37v10.48C569.59,1237.56,566.46,1238.44,564.5,1239.52z"/>
	<path class="st3" d="M581.74,1222.28v-11.95h10.19v11.95H581.74z M581.74,1282.81v-54.26h10.19v54.26H581.74z"/>
	<path class="st3" d="M649.61,1282.81v-8.42h-0.2c-3.82,6.56-10.97,9.79-18.41,9.79c-16.26,0-28.8-11.95-28.8-28.31
		c0-16.46,12.34-28.8,28.8-28.8c7.25,0,14.4,2.94,18.41,9.11h0.2v-7.64h10.19v54.26H649.61z M631,1236.38
		c-10.77,0-18.61,8.82-18.61,19.39c0,10.19,8.13,19.1,18.51,19.1c10.58,0,18.9-8.62,18.9-19.1
		C649.81,1244.9,642.07,1236.38,631,1236.38z"/>
	<path class="st3" d="M754.22,1260.09h-44.96c2.06,8.42,8.91,14.79,17.83,14.79c6.37,0,12.54-3.43,15.48-9.11h10.19
		c-4.11,11.07-14.2,18.41-26.05,18.41c-15.48,0-27.62-13.42-27.62-28.6c0-15.67,11.95-28.5,27.82-28.5
		c15.38,0,27.62,12.63,27.62,27.92C754.52,1256.66,754.42,1258.42,754.22,1260.09z M726.8,1236.38c-8.81,0-16.94,6.96-17.53,15.87
		h35.06C743.74,1243.34,735.61,1236.38,726.8,1236.38z"/>
	<path class="st3" d="M839.64,1282.81l-8.03-21.35h-26.05l-8.03,21.35h-11.17l27.52-72.48h9.5l27.52,72.48H839.64z M818.77,1224.04
		h-0.2l-9.3,27.72h18.71L818.77,1224.04z"/>
	<path class="st3" d="M881.07,1304.16c-11.85,0-21.94-6.17-26.74-17.14h11.36c3.72,5.29,8.91,7.84,15.48,7.84
		c12.34,0,19.1-6.76,19.1-19.2h-0.2c-4.31,5.97-11.56,8.52-18.71,8.52c-15.57,0-28.99-13.03-28.99-28.7c0-4.21,1.08-8.42,2.94-12.14
		c5-10.38,14.69-16.26,26.25-16.26c6.66,0,14.2,2.64,18.71,7.74v-6.27h10.19v46.92C910.46,1293.78,899.09,1304.16,881.07,1304.16z
		 M888.52,1237.85c-2.25-0.88-4.7-1.47-7.15-1.47c-10.58,0-18.81,8.82-18.81,19.3c0,10.28,8.33,19.2,18.71,19.2
		c7.93,0,14.1-4.41,17.24-11.56c1.08-2.35,1.76-4.99,1.76-7.54C900.27,1247.45,896.35,1240.89,888.52,1237.85z"/>
	<path class="st3" d="M939.64,1239.52c-4.8,2.45-5.97,8.72-5.97,13.62v29.68h-10.19v-54.26h9.5v4.9h0.2
		c3.33-4.7,8.33-6.17,13.81-6.37v10.48C944.74,1237.56,941.6,1238.44,939.64,1239.52z"/>
	<path class="st3" d="M956.88,1222.28v-11.95h10.19v11.95H956.88z M956.88,1282.81v-54.26h10.19v54.26H956.88z"/>
	<path class="st3" d="M1052.09,1282.81v-30.17c0-8.52-2.84-16.26-12.83-16.26c-10.58,0-12.93,7.25-12.93,16.16v30.27h-10.19v-30.17
		c0-4.11,0-7.54-2.25-11.17c-2.35-3.62-5.88-5.09-10.09-5.09c-10.48,0-13.42,7.05-13.42,16.16v30.27H980.2v-54.26h9.4v5.88h0.2
		c4.5-5.29,8.42-7.35,15.57-7.35c6.37,0,14.01,3.04,16.85,9.11c4.21-6.66,9.99-9.11,17.92-9.11c14.4,0,22.14,9.01,22.14,23.02v32.71
		H1052.09z"/>
	<path class="st3" d="M1127.71,1260.09h-44.96c2.06,8.42,8.91,14.79,17.83,14.79c6.37,0,12.54-3.43,15.48-9.11h10.19
		c-4.11,11.07-14.2,18.41-26.05,18.41c-15.48,0-27.62-13.42-27.62-28.6c0-15.67,11.95-28.5,27.82-28.5
		c15.38,0,27.62,12.63,27.62,27.92C1128,1256.66,1127.9,1258.42,1127.71,1260.09z M1100.28,1236.38c-8.82,0-16.95,6.96-17.53,15.87
		h35.06C1117.22,1243.34,1109.1,1236.38,1100.28,1236.38z"/>
	<path class="st3" d="M1176.09,1282.81v-29.48c0-9.21-2.74-16.95-13.52-16.95c-9.99,0-14.3,7.74-14.3,16.85v29.58h-10.19v-54.26h9.5
		v5.78h0.2c3.92-5.19,9.6-7.25,15.87-7.25c7.74,0,14.99,3.04,19.2,9.7c2.64,4.11,3.43,9.11,3.43,13.91v32.13H1176.09z"/>
	<path class="st3" d="M1213.9,1284.18c-2.35,0-4.7-0.49-6.95-1.27c-8.03-2.84-12.24-9.4-12.24-17.92h10.19
		c0.39,5.58,3.13,9.89,9.21,9.89c4.51,0,7.84-2.74,7.84-7.45c0-11.36-24.78-5.48-24.78-24.68c0-9.3,8.13-15.67,17.04-15.67
		c9.3,0,16.46,6.46,16.65,15.87h-10.19c-0.49-3.92-2.84-6.56-6.95-6.56c-3.43,0-6.37,2.16-6.37,5.78c0,4.8,4.7,5.88,8.42,7.05
		c8.91,2.74,16.36,7.15,16.36,17.63C1232.12,1277.52,1224.28,1284.18,1213.9,1284.18z"/>
	<path class="st3" d="M1279.53,1282.81v-5.88h-0.2c-3.13,5.29-10.19,7.25-15.97,7.25c-5.68,0-11.17-1.67-15.47-5.39
		c-5.98-5.19-7.15-13.42-7.15-20.86v-29.38h10.19v29.38c0,9.6,2.84,16.95,13.52,16.95c10.38,0,14.2-7.84,14.2-17.24v-29.09h10.19
		v54.26H1279.53z"/>
	<path class="st3" d="M1318.12,1239.52c-4.8,2.45-5.97,8.72-5.97,13.62v29.68h-10.19v-54.26h9.5v4.9h0.2
		c3.33-4.7,8.33-6.17,13.81-6.37v10.48C1323.21,1237.56,1320.08,1238.44,1318.12,1239.52z"/>
	<path class="st3" d="M1377.09,1282.81v-8.42h-0.2c-3.82,6.56-10.97,9.79-18.41,9.79c-16.26,0-28.8-11.95-28.8-28.31
		c0-16.46,12.34-28.8,28.8-28.8c7.25,0,14.4,2.94,18.41,9.11h0.2v-7.64h10.19v54.26H1377.09z M1358.47,1236.38
		c-10.77,0-18.61,8.82-18.61,19.39c0,10.19,8.13,19.1,18.51,19.1c10.58,0,18.9-8.62,18.9-19.1
		C1377.28,1244.9,1369.54,1236.38,1358.47,1236.38z"/>
</g>
<path class="st2" d="M535.01,789.48c0.41-1.73,0.93-3.49,1.52-5.3c1.56-4.75-0.88-13.93-4.7-16.68c-1.87-1.34-3.85-2.52-5.91-3.59
	C529.1,772.38,532.14,780.9,535.01,789.48z"/>
<path class="st2" d="M692.43,298.49c-1.8-2.18-6.29-3.52-9.3-3.05c-8.97,1.43-17.77,3.91-28.39,6.4c1.88-4.58,2.84-6.93,5.33-13
	c-18.16,5.87-33.31,10.52-48.29,15.71c-6.79,2.35-13.29,5.62-19.78,8.76c-5.38,2.6-10.46,5.83-15.87,8.37
	c-2.78,1.31-5.97,1.72-9.66,2.73c12.35,13.93,20.08-4.4,31.15-2.29c-5.37,4.37-10.11,8.24-15.51,12.64c2.9,1.35,4.77,2.21,7.54,3.5
	c-9.34,12.01-17.04,24.15-27.09,33.86c-0.52,0.5-1,1.03-1.46,1.58c4.13-0.5,8.3-0.8,12.48-0.91c37.73-27.28,79.9-47.13,119.08-72.31
	C692.83,299.63,692.79,298.93,692.43,298.49z"/>
<path class="st2" d="M441.03,458.32c1.23,4.62,1.77,6.64,2.88,10.8c11.84-17.6,22.89-34.04,33.95-50.47
	c1.64,0.87,3.28,1.75,4.92,2.62c-2.91,8.17-5.82,16.34-9.35,26.27c4.59-3.72,7.84-6.36,12.42-10.08
	c-1.95,6.04-3.13,10.67-4.92,15.05c-2.83,6.92-5.69,13.64-1.35,21.04c0.67,1.14,0.81,3.19,0.26,4.37
	c-5.76,12.25-6.12,25.48-5.56,40.99c-6.66-3.26-10.99-5.39-16.4-8.04c3.15-4.71,6.13-9.16,11.1-16.58
	c-7.21,3.24-11.47,5.16-16.23,7.31c-0.21-0.48-1.06-2.39-3.34-7.53c-1.52,8.85-2.95,14.95-3.27,21.12
	c-0.06,1.14,4.38,2.52,10.28,5.69c-8.64,3.6-15.36,6.16-21.85,9.22c-2.7,1.27-6.1,3.1-7.13,5.55
	c-7.46,17.58-14.39,35.39-21.53,53.11c-0.23,0.57-0.86,0.98-2.96,3.3C406.85,544.57,420.8,502.17,441.03,458.32z"/>
<path class="st2" d="M1072.93,673.85c-47.52,208.25-225.46,273.43-225.46,273.43c181.7-24.84,238.57-241.92,238.57-241.92"/>
<g>
	
		<rect x="867.94" y="551.08" transform="matrix(0.9445 -0.3285 0.3285 0.9445 -151.6934 332.2028)" class="st2" width="78.66" height="127.89"/>
	
		<rect x="816.3" y="439.46" transform="matrix(0.9445 -0.3285 0.3285 0.9445 -104.5021 306.0826)" class="st5" width="74.52" height="45.69"/>
	
		<rect x="791.68" y="368.81" transform="matrix(0.9445 -0.3285 0.3285 0.9445 -85.626 294.7146)" class="st2" width="75.36" height="63.89"/>
	
		<rect x="673.28" y="756.8" transform="matrix(0.9445 -0.3285 0.3285 0.9445 -220.7042 285.8449)" class="st2" width="124.57" height="78.55"/>
	<polygon class="st2" points="792.14,734.81 817.95,809 818.01,808.97 822.97,823.21 910.76,792.67 933,730.41 988.76,711.01 
		974.92,671.23 	"/>
	
		<rect x="764.26" y="583.65" transform="matrix(0.9445 -0.3285 0.3285 0.9445 -167.5933 303.2444)" class="st5" width="98.71" height="127.89"/>
	
		<rect x="825.03" y="497.55" transform="matrix(0.9445 -0.3285 0.3285 0.9445 -124.8222 310.7242)" class="st5" width="64.21" height="54.41"/>
	
		<rect x="896.64" y="481.25" transform="matrix(0.9445 -0.3285 0.3285 0.9445 -116.862 325.2221)" class="st2" width="14.76" height="54.41"/>
	<polygon class="st2" points="743.65,475.96 743.62,475.87 743.55,475.99 729.92,468.71 748.49,522.12 815.88,498.67 801.04,455.99 
			"/>
	
		<rect x="776.18" y="518.6" transform="matrix(0.9445 -0.3285 0.3285 0.9445 -135.0955 292.0135)" class="st2" width="40.9" height="54.41"/>
	<path class="st2" d="M687.07,613.71l17.27-6.01l-19.79-56.88c-2.66-7.41-5.33-14.82-7.99-22.23c-1.23,2.66-17.46,46.25-31.41,83.86
		c-10.84,29.22-20.32,54.83-20.32,54.83l35.27,101.41l58.8-20.45l-40.57-116.63C673.14,616.69,687.07,613.71,687.07,613.71z"/>
	<path class="st2" d="M696.71,620.56c-10,3.48-6.97,12.22-6.97,12.22l38.98,112.05l49.04-17.06l-42.02-120.79L696.71,620.56z"/>
	<polygon class="st2" points="709.46,547.33 692.98,538.84 715.26,602.91 718.07,601.93 774.98,582.14 757.11,530.75 	"/>
	<polygon class="st2" points="705.37,455.62 682.31,519.14 711.8,534.88 737.52,525.93 714.82,460.66 	"/>
	<polygon class="st2" points="728.45,401.11 710.27,446.42 745.84,463.63 795.8,446.25 774.53,385.08 	"/>
</g>
<path class="st2" d="M473.05,369.93c7.37-5.36,14.7-10.77,21.99-16.26c4.39-3.3,8.76-6.63,13.12-9.97c0.66-0.51,1.33-1.02,1.99-1.53
	c1.59-1.23,3.17-2.46,4.76-3.7c2.54-1.98,5.06-3.97,7.59-5.97c2.41-2.86,5.36-5.08,8.63-6.68c0.08-0.06,0.15-0.11,0.23-0.17
	c0.25-0.2,0.49-0.41,0.71-0.59c1.07-0.89,2.13-1.79,3.19-2.68c4.58-19.84,14.77-49.71,39.14-76.79
	c65.57-72.86,171.56-56.36,181.29-54.69C755.68,190.91,500.56,119.45,473.05,369.93z"/>
<polygon class="st2" points="473.68,742.35 444.22,742.35 402.76,706.62 402.76,671.95 386.98,645.28 430.33,619.86 461.52,623.79 
	516.41,634.08 534.99,648.83 570.32,651.67 586.66,686.52 581.57,734.68 562.43,745.04 559.92,812.39 573.24,857.98 559.92,871.44 
	519.12,826.02 499.64,792.19 "/>
<polygon class="st2" points="591.24,332.48 553.52,380.54 528.81,417.99 536.45,437.46 552.46,437.71 588.39,419.83 627,402.63 
	703.58,303.37 703.58,283.07 "/>
<polygon class="st2" points="419.43,547.23 485.84,526.23 488.82,476.52 506.41,425.6 485.91,405.66 422.7,502.86 "/>
<g>
	<path class="st2" d="M913.76,248.36l-43.84-20.27c-2.98-1.38-6.5-0.08-7.88,2.9l-2.92,6.32l-6.72-3.11l9.18-19.86
		c2.94-6.37,0.17-13.92-6.2-16.86l-1.08-0.5c-6.37-2.94-13.92-0.17-16.86,6.2l-9.18,19.86l-7.4-3.42l2.92-6.32
		c1.38-2.98,0.08-6.5-2.9-7.88l-43.84-20.27c-2.98-1.38-6.5-0.08-7.88,2.9l-8.24,17.83c-1.38,2.98-0.08,6.5,2.9,7.88l43.84,20.27
		c2.98,1.38,6.5,0.08,7.88-2.9l2.06-4.46l7.4,3.42l-9.18,19.86c-2.94,6.37-0.17,13.92,6.2,16.86l1.08,0.5
		c6.37,2.94,13.92,0.17,16.86-6.2l9.18-19.86l6.72,3.11l-2.06,4.46c-1.38,2.98-0.08,6.5,2.9,7.88l43.84,20.27
		c2.98,1.38,6.5,0.08,7.88-2.9l8.24-17.83C918.03,253.26,916.73,249.73,913.76,248.36z"/>
	<path class="st2" d="M832.3,283.39c0,0-7.72,2.07-16.47-2.43c-9.09-3.75-12.52-10.97-12.52-10.97s-1.37-4.35-3.94-2.95
		s-1.11,4.11-1.11,4.11c4.13,9.35,15.24,14.82,15.24,14.82s11.37,4.92,21.17,2.01c0,0,3-0.64,2.41-3.51
		C836.51,281.61,832.3,283.39,832.3,283.39z"/>
	<path class="st2" d="M818.17,275.93c0,0,8.26,3.57,15.38,1.46c0,0,2.18-0.47,1.75-2.55c-0.43-2.08-3.48-0.79-3.48-0.79
		s-5.61,1.5-11.96-1.76c-6.6-2.73-9.09-7.97-9.09-7.97s-1-3.16-2.86-2.14c-1.86,1.02-0.81,2.99-0.81,2.99
		C810.09,271.95,818.17,275.93,818.17,275.93z"/>
</g>
<path class="st2" d="M1089.37,558.82c-11.65-61.17-35.87-114.37-73.13-159.19l8.27,47.59c-7.44-11.91-14.87-23.83-22.31-35.74
	c-10.08-13.68-20.16-27.36-30.24-41.04c-25.2-5.04-50.4-10.08-75.6-15.12c13.68,43.2,27.36,86.4,41.04,129.6
	c9.89,12.4,19.78,24.8,29.67,37.2l35.13,111.84l19.04,66.96c13.09-16.56,26.19-33.12,39.28-49.68c-5.76-32.4-11.52-64.8-17.28-97.2
	c13.3,30.16,26.59,60.32,39.89,90.47c0.4,0.15,0.81,0.29,1.21,0.44c0.56,5.83,1.11,11.67,1.7,17.8v0v0
	c0.71,7.44,1.46,15.32,2.31,24.19C1096.83,642.08,1097.28,600.36,1089.37,558.82z"/>
</svg>
