<?xml version="1.0" encoding="UTF-8"?>
<!DOCTYPE svg PUBLIC "-//W3C//DTD SVG 1.1//EN" "http://www.w3.org/Graphics/SVG/1.1/DTD/svg11.dtd">
<!-- Creator: CorelDRAW 2018 (64 Bit) -->
<svg xmlns="http://www.w3.org/2000/svg" xml:space="preserve" width="457.553mm" height="122.061mm" version="1.1" style="shape-rendering:geometricPrecision; text-rendering:geometricPrecision; image-rendering:optimizeQuality; fill-rule:evenodd; clip-rule:evenodd"
viewBox="0 0 45755.28 12206.1"
 xmlns:xlink="http://www.w3.org/1999/xlink">
 <defs>
  <style type="text/css">
   <![CDATA[
    .str0 {stroke:#FEFEFE;stroke-width:500;stroke-miterlimit:10}
    .str1 {stroke:#FEFEFE;stroke-width:300;stroke-linecap:square;stroke-miterlimit:10}
    .str5 {stroke:#FEFEFE;stroke-width:300;stroke-linecap:square;stroke-miterlimit:10}
    .str2 {stroke:#FEFEFE;stroke-width:300;stroke-linecap:square;stroke-miterlimit:10}
    .str4 {stroke:#FEFEFE;stroke-width:300;stroke-linecap:square;stroke-miterlimit:10}
    .str6 {stroke:#FEFEFE;stroke-width:300;stroke-linecap:square;stroke-miterlimit:10}
    .str3 {stroke:#FEFEFE;stroke-width:300;stroke-linecap:square;stroke-miterlimit:10}
    .str9 {stroke:#FEFEFE;stroke-width:300;stroke-linecap:square;stroke-miterlimit:10}
    .str10 {stroke:#FEFEFE;stroke-width:300;stroke-linecap:square;stroke-miterlimit:10}
    .str11 {stroke:#FEFEFE;stroke-width:300;stroke-linecap:square;stroke-miterlimit:10}
    .str8 {stroke:#FEFEFE;stroke-width:300;stroke-linecap:square;stroke-miterlimit:10}
    .str7 {stroke:#FEFEFE;stroke-width:300;stroke-linecap:square;stroke-miterlimit:10}
    .fil3 {fill:#FEFEFE;fill-rule:nonzero}
    .fil0 {fill:#FEFEFE;fill-rule:nonzero}
    .fil4 {fill:#D5B37D;fill-rule:nonzero}
    .fil2 {fill:#7892AD;fill-rule:nonzero}
    .fil1 {fill:#255376;fill-rule:nonzero}
   ]]>
  </style>
 </defs>
 <g id="Camada_x0020_1">
  <metadata id="CorelCorpID_0Corel-Layer"/>
  <g id="_2863153648336">
   <path class="fil0 str0" d="M15632.37 7553.44c-1012.31,0 -1884.2,-784.67 -1884.2,-1816.44 0,-266.41 43.59,-518.27 140.46,-765.3 53.29,-140.49 140.48,-280.94 232.51,-402.02 368.14,-484.37 905.79,-736.28 1516.11,-736.28 1046.24,0 1893.89,804.09 1893.89,1860 0,1060.78 -847.65,1860.04 -1898.77,1860.04zm9.71 -2915.95c-586.11,0 -978.42,484.35 -978.42,1046.24 0,571.57 392.31,1065.66 988.1,1065.66 576.44,0 963.92,-503.79 963.92,-1051.12 0,-557.06 -387.48,-1060.78 -973.6,-1060.78zm4611.31 2848.14l-1365.94 -2179.71 -9.68 4.84 24.22 2174.87 -876.74 0 0 -3584.41 789.55 0 1385.33 2252.35 9.66 -9.71 -38.72 -2242.64 876.7 0 0 3584.41 -794.38 0z"/>
   <path class="fil0 str0" d="M22791.49 7553.44c-721.7,0 -1293.26,-372.98 -1293.26,-1138.3l0 -116.25 910.62 0c0,232.49 106.57,489.22 372.97,489.22 188.92,0 348.76,-150.16 348.76,-343.93 0,-232.47 -193.76,-309.96 -382.65,-392.35 -106.57,-48.43 -213.14,-91.98 -319.71,-135.58 -465,-193.8 -876.73,-465.03 -876.73,-1026.9 0,-668.43 644.26,-1055.95 1254.54,-1055.95 348.77,0 741.12,130.79 968.76,406.91 184.05,227.64 227.68,426.24 237.36,707.18l-905.78 0c-29.06,-198.6 -96.91,-348.75 -329.38,-348.75 -159.84,0 -314.84,111.4 -314.84,280.95 0,53.26 4.84,106.52 33.89,150.15 87.18,145.29 557.06,329.39 707.22,397.16 474.67,217.97 837.94,465.04 837.94,1026.89 0,750.78 -542.48,1099.55 -1249.71,1099.55z"/>
   <polygon class="fil0 str0" points="25823.75,4705.3 25823.75,7485.63 24908.3,7485.63 24908.3,4705.3 24201.07,4705.3 24201.07,3901.22 26526.1,3901.22 26526.1,4705.3 "/>
   <path class="fil0 str0" d="M28608.87 7485.63l-828.26 -1157.64 -9.67 0 0 1157.64 -876.73 0 0 -3584.41 1133.42 0c377.85,0 794.38,9.71 1104.42,256.73 295.45,237.36 440.75,605.46 440.75,978.43 0,552.19 -324.55,1036.56 -891.25,1128.59l973.6 1220.66 -1046.28 0zm-503.72 -2780.33l-334.21 0 0 997.81 324.5 0c343.93,0 600.66,-145.29 600.66,-513.43 0,-353.59 -276.12,-484.38 -590.95,-484.38z"/>
   <path class="fil0 str0" d="M32488.77 7165.92c-271.23,276.07 -619.99,387.52 -1002.64,387.52 -372.97,0 -770.16,-106.57 -1031.73,-382.73 -324.54,-343.88 -358.43,-649 -358.43,-1104.34l0 -2165.15 915.46 0 0 2165.15c0,324.52 53.26,683.02 464.99,683.02 431.11,0 455.34,-343.93 455.34,-683.02l0 -2165.15 915.45 0 0 2165.15c0,426.24 -48.43,789.55 -358.44,1099.55z"/>
   <path class="fil0 str0" d="M35235.14 7558.27c-1055.84,0 -1903.51,-818.59 -1903.51,-1879.37 0,-1075.33 867.06,-1845.5 1918.06,-1845.5 775.18,0 1574.35,503.77 1792.15,1269.09l-1026.79 0c-164.71,-295.46 -450.49,-465 -789.36,-465 -586.22,0 -978.57,474.67 -978.57,1041.41 0,586.07 372.97,1075.28 983.3,1075.28 392.32,0 745.73,-179.18 857.35,-576.36l-1070.42 0 0 -731.44 2126.3 0c4.72,63.01 4.72,125.95 4.72,188.92 0,1099.51 -813.73,1922.97 -1913.23,1922.97z"/>
   <path class="fil0 str0" d="M39337.93 7485.63l-828.27 -1157.64 -9.81 0 0 1157.64 -876.63 0 0 -3584.41 1133.32 0c377.77,0 794.46,9.71 1104.6,256.73 295.23,237.36 440.67,605.46 440.67,978.43 0,552.19 -324.69,1036.56 -891.17,1128.59l973.34 1220.66 -1046.05 0zm-503.94 -2780.33l-334.14 0 0 997.81 324.69 0c343.95,0 600.65,-145.29 600.65,-513.43 0,-353.59 -276.34,-484.38 -591.2,-484.38z"/>
   <polygon class="fil0 str0" points="40786.12,7485.63 41701.65,7485.63 41701.65,3901.21 40786.12,3901.21 "/>
   <path class="fil0 str0" d="M43556.7 7485.63l-1254.39 0 0 -3584.41 1186.76 0c649.01,0 1176.95,106.57 1583.81,668.46 232.7,324.51 329.42,716.86 329.42,1114.05 0,1177.02 -673.37,1801.9 -1845.6,1801.9zm58.17 -2780.33l-397.04 0 0 1976.2 392.32 0c624.65,0 876.63,-401.94 876.63,-983.23 0,-571.57 -261.43,-992.97 -871.91,-992.97z"/>
   <path class="fil0 str0" d="M11616.93 7553.44c-1041.41,0 -1889.05,-813.76 -1889.05,-1864.87 0,-1051.08 837.98,-1855.17 1879.37,-1855.17 649.06,0 1220.62,300.34 1579.05,842.85 116.24,174.34 208.31,377.81 242.2,586.08l-959.06 0c-140.49,-368.14 -464.99,-624.84 -867.02,-624.84 -581.24,0 -959.09,494.06 -959.09,1046.24 0,552.19 377.85,1065.66 963.92,1065.66 402.03,0 702.36,-251.9 862.19,-605.53l959.06 0c-208.27,847.68 -944.51,1409.58 -1811.57,1409.58z"/>
  </g>
  <g id="_2863153641584">
   <path class="fil1" d="M11616.93 7553.45c-1041.41,0 -1889.05,-813.76 -1889.05,-1864.87 0,-1051.08 837.98,-1855.17 1879.37,-1855.17 649.06,0 1220.62,300.34 1579.05,842.85 116.24,174.34 208.31,377.81 242.2,586.08l-959.06 0c-140.49,-368.14 -464.99,-624.84 -867.02,-624.84 -581.24,0 -959.09,494.06 -959.09,1046.24 0,552.19 377.85,1065.66 963.92,1065.66 402.03,0 702.36,-251.9 862.19,-605.53l959.06 0c-208.27,847.68 -944.51,1409.58 -1811.57,1409.58z"/>
   <path class="fil1" d="M15642.08 4637.5c-586.11,0 -978.42,484.35 -978.42,1046.24 0,571.57 392.31,1065.66 988.1,1065.66 576.44,0 963.92,-503.79 963.92,-1051.12 0,-557.06 -387.48,-1060.78 -973.6,-1060.78zm-9.71 2915.95c-1012.31,0 -1884.2,-784.67 -1884.2,-1816.44 0,-266.41 43.59,-518.27 140.46,-765.3 53.29,-140.49 140.48,-280.94 232.51,-402.02 368.14,-484.37 905.79,-736.28 1516.11,-736.28 1046.24,0 1893.89,804.09 1893.89,1860 0,1060.78 -847.65,1860.04 -1898.77,1860.04z"/>
   <polygon class="fil1" points="20253.39,7485.64 18887.45,5305.93 18877.77,5310.77 18901.99,7485.64 18025.25,7485.64 18025.25,3901.23 18814.8,3901.23 20200.13,6153.58 20209.79,6143.87 20171.07,3901.23 21047.77,3901.23 21047.77,7485.64 "/>
   <path class="fil1" d="M22791.49 7553.45c-721.7,0 -1293.26,-372.98 -1293.26,-1138.3l0 -116.25 910.62 0c0,232.49 106.57,489.22 372.97,489.22 188.92,0 348.76,-150.16 348.76,-343.93 0,-232.47 -193.76,-309.96 -382.65,-392.35 -106.57,-48.43 -213.14,-91.98 -319.71,-135.58 -465,-193.8 -876.73,-465.03 -876.73,-1026.9 0,-668.43 644.26,-1055.95 1254.54,-1055.95 348.77,0 741.12,130.79 968.76,406.91 184.05,227.64 227.68,426.24 237.36,707.18l-905.78 0c-29.06,-198.6 -96.91,-348.75 -329.38,-348.75 -159.84,0 -314.84,111.4 -314.84,280.95 0,53.26 4.84,106.52 33.89,150.15 87.18,145.29 557.06,329.39 707.22,397.16 474.67,217.97 837.94,465.04 837.94,1026.89 0,750.78 -542.48,1099.55 -1249.71,1099.55z"/>
   <polygon class="fil1" points="25823.75,4705.31 25823.75,7485.64 24908.3,7485.64 24908.3,4705.31 24201.07,4705.31 24201.07,3901.23 26526.1,3901.23 26526.1,4705.31 "/>
   <path class="fil1" d="M28105.15 4705.31l-334.21 0 0 997.81 324.5 0c343.93,0 600.66,-145.29 600.66,-513.43 0,-353.59 -276.12,-484.38 -590.95,-484.38zm503.72 2780.33l-828.26 -1157.64 -9.67 0 0 1157.64 -876.73 0 0 -3584.41 1133.42 0c377.85,0 794.38,9.71 1104.42,256.73 295.45,237.36 440.75,605.46 440.75,978.43 0,552.19 -324.55,1036.56 -891.25,1128.59l973.6 1220.66 -1046.28 0z"/>
   <path class="fil1" d="M32488.77 7165.93c-271.23,276.07 -619.99,387.52 -1002.64,387.52 -372.97,0 -770.16,-106.57 -1031.73,-382.73 -324.54,-343.88 -358.43,-649 -358.43,-1104.34l0 -2165.15 915.46 0 0 2165.15c0,324.52 53.26,683.02 464.99,683.02 431.11,0 455.34,-343.93 455.34,-683.02l0 -2165.15 915.45 0 0 2165.15c0,426.24 -48.43,789.55 -358.44,1099.55z"/>
   <path class="fil1" d="M35235.14 7558.28c-1055.84,0 -1903.51,-818.59 -1903.51,-1879.37 0,-1075.33 867.06,-1845.5 1918.06,-1845.5 775.18,0 1574.35,503.77 1792.15,1269.09l-1026.79 0c-164.71,-295.46 -450.49,-465 -789.36,-465 -586.22,0 -978.57,474.67 -978.57,1041.41 0,586.07 372.97,1075.28 983.3,1075.28 392.32,0 745.73,-179.18 857.35,-576.36l-1070.42 0 0 -731.44 2126.3 0c4.72,63.01 4.72,125.95 4.72,188.92 0,1099.51 -813.73,1922.97 -1913.23,1922.97z"/>
   <path class="fil1" d="M38833.99 4705.31l-334.14 0 0 997.81 324.69 0c343.95,0 600.65,-145.29 600.65,-513.43 0,-353.59 -276.34,-484.38 -591.2,-484.38zm503.94 2780.33l-828.27 -1157.64 -9.81 0 0 1157.64 -876.63 0 0 -3584.41 1133.32 0c377.77,0 794.46,9.71 1104.6,256.73 295.23,237.36 440.67,605.46 440.67,978.43 0,552.19 -324.69,1036.56 -891.17,1128.59l973.34 1220.66 -1046.05 0z"/>
   <polygon class="fil1" points="40786.12,7485.64 41701.65,7485.64 41701.65,3901.22 40786.12,3901.22 "/>
   <path class="fil1" d="M43614.87 4705.31l-397.04 0 0 1976.2 392.32 0c624.65,0 876.63,-401.94 876.63,-983.23 0,-571.57 -261.43,-992.97 -871.91,-992.97zm-58.17 2780.33l-1254.39 0 0 -3584.41 1186.76 0c649.01,0 1176.95,106.57 1583.81,668.46 232.7,324.51 329.42,716.86 329.42,1114.05 0,1177.02 -673.37,1801.9 -1845.6,1801.9z"/>
  </g>
  <g id="_2863153675888">
   <g>
    <g>
     <polygon class="fil2" points="9910.78,11032.68 9910.78,9018.89 10996.62,9018.89 10996.62,9288.31 10204.71,9288.31 10204.71,9881.55 10996.62,9881.55 10996.62,10150.96 10204.71,10150.96 10204.71,10763.27 10996.62,10763.27 10996.62,11032.68 "/>
     <path class="fil2" d="M12384.57 11032.68l0 -819.13c0,-255.82 -76.22,-470.81 -375.57,-470.81 -277.59,0 -397.32,214.99 -397.32,468.13l0 821.81 -283.03 0 0 -1507.63 263.97 0 0 160.52 5.45 0c108.86,-144.23 266.69,-201.4 440.86,-201.4 214.99,0 416.39,84.44 533.39,269.48 73.49,114.27 95.22,253.08 95.22,386.41l0 892.62 -282.97 0z"/>
     <path class="fil2" d="M13954.85 9783.6c-62.58,-24.54 -130.64,-40.86 -198.67,-40.86 -293.9,0 -522.49,244.94 -522.49,536.14 0,285.72 231.32,533.41 519.8,533.41 220.41,0 391.84,-122.48 478.96,-321.14 29.92,-65.3 48.98,-138.78 48.98,-209.54 0,-231.35 -108.86,-413.69 -326.58,-498.01zm-206.82 1842.37c-329.3,0 -609.59,-171.45 -742.96,-476.29l315.67 0c103.44,146.97 247.65,217.74 429.98,217.74 342.94,0 530.71,-187.77 530.71,-533.41l-5.45 0c-119.73,166.02 -321.13,236.78 -519.8,236.78 -432.67,0 -805.5,-361.96 -805.5,-797.39 0,-116.97 29.88,-233.98 81.62,-337.42 138.78,-288.47 408.21,-451.81 729.34,-451.81 185.06,0 394.61,73.53 519.79,215.01l0 -174.13 283.02 0 0 1303.55c0,508.85 -315.67,797.37 -816.42,797.37z"/>
     <path class="fil2" d="M15579.61 9742.74c-244.93,0 -470.79,193.24 -487.16,440.86l974.25 0c-16.28,-247.62 -242.18,-440.86 -487.09,-440.86zm761.97 658.57l-1249.13 0c57.16,234.07 247.65,410.98 495.3,410.98 176.92,0 348.35,-95.24 430.02,-253.12l283.02 0c-114.31,307.53 -394.61,511.62 -723.92,511.62 -429.99,0 -767.43,-372.87 -767.43,-794.66 0,-435.4 332.03,-791.96 772.89,-791.96 427.26,0 767.39,351.09 767.39,775.66 0,46.25 -2.69,95.27 -8.14,141.48z"/>
     <path class="fil2" d="M17686.04 11032.68l0 -819.13c0,-255.82 -76.2,-470.81 -375.56,-470.81 -277.6,0 -397.33,214.99 -397.33,468.13l0 821.81 -283.02 0 0 -1507.63 263.97 0 0 160.52 5.45 0c108.87,-144.23 266.7,-201.4 440.86,-201.4 215,0 416.39,84.44 533.39,269.48 73.48,114.27 95.26,253.08 95.26,386.41l0 892.62 -283.02 0z"/>
     <path class="fil2" d="M19384.24 11032.68l0 -819.13c0,-255.82 -76.21,-470.81 -375.55,-470.81 -277.57,0 -397.34,214.99 -397.34,468.13l0 821.81 -283.02 0 0 -2013.79 283.02 0 0 666.68 5.45 0c97.99,-146.96 253.07,-201.4 421.85,-201.4 214.95,0 416.34,84.44 533.35,269.48 73.48,114.27 95.26,253.08 95.26,386.41l0 892.62 -283.02 0z"/>
     <path class="fil2" d="M20744.98 9742.74c-299.34,0 -517.03,244.94 -517.03,538.87 0,282.99 225.87,530.68 514.31,530.68 293.93,0 525.25,-239.49 525.25,-530.68 0,-302.14 -215,-538.87 -522.53,-538.87zm517.11 1289.94l0 -234 -5.49 0c-106.09,182.3 -304.76,272.11 -511.62,272.11 -451.72,0 -800.07,-331.99 -800.07,-786.48 0,-457.19 342.89,-800.14 800.07,-800.14 201.4,0 400.06,81.67 511.62,253.11l5.49 0 0 -212.23 283.02 0 0 1507.63 -283.02 0z"/>
     <path class="fil2" d="M22358.87 9829.81c-133.37,68.07 -166.02,242.2 -166.02,378.33l0 824.54 -283.02 0 0 -1507.63 263.97 0 0 136.09 5.46 0c92.49,-130.64 231.31,-171.42 383.69,-176.97l0 291.2c-62.57,0 -149.65,24.54 -204.08,54.44z"/>
     <path class="fil2" d="M22837.83 11032.68l0 -1507.63 283.02 0 0 1507.63 -283.02 0zm0 -1681.83l0 -331.96 283.02 0 0 331.96 -283.02 0z"/>
     <path class="fil2" d="M24206.72 9742.74c-299.38,0 -517.06,244.94 -517.06,538.87 0,282.99 225.86,530.68 514.34,530.68 293.89,0 525.21,-239.49 525.21,-530.68 0,-302.14 -215,-538.87 -522.49,-538.87zm517.03 1289.94l0 -234 -5.41 0c-106.14,182.3 -304.81,272.11 -511.62,272.11 -451.76,0 -800.08,-331.99 -800.08,-786.48 0,-457.19 342.87,-800.14 800.08,-800.14 201.4,0 400.03,81.67 511.62,253.11l5.41 0 0 -212.23 283.06 0 0 1507.63 -283.06 0z"/>
    </g>
    <path class="fil2" d="M26868.33 9742.74c-244.92,0 -470.82,193.24 -487.14,440.86l974.25 0c-16.29,-247.62 -242.19,-440.86 -487.11,-440.86zm761.98 658.57l-1249.12 0c57.16,234.07 247.64,410.98 495.29,410.98 176.92,0 348.35,-95.24 429.98,-253.12l283.02 0c-114.27,307.53 -394.57,511.62 -723.87,511.62 -429.99,0 -767.44,-372.87 -767.44,-794.66 0,-435.4 332.04,-791.96 772.89,-791.96 427.26,0 767.4,351.09 767.4,775.66 0,46.25 -2.69,95.27 -8.15,141.48z"/>
    <path class="fil2" d="M29423.84 9399.86l-5.41 0 -258.55 770.17 519.79 0 -255.83 -770.17zm579.69 1632.82l-223.14 -593.27 -723.91 0 -223.18 593.27 -310.22 0 764.71 -2013.79 264.01 0 764.67 2013.79 -312.94 0z"/>
    <path class="fil2" d="M31361.58 9783.6c-62.61,-24.54 -130.64,-40.86 -198.66,-40.86 -293.94,0 -522.53,244.94 -522.53,536.14 0,285.72 231.35,533.41 519.79,533.41 220.45,0 391.89,-122.48 478.97,-321.14 29.96,-65.3 49.01,-138.78 49.01,-209.54 0,-231.35 -108.86,-413.69 -326.58,-498.01zm-206.81 1842.37c-329.3,0 -609.6,-171.45 -742.97,-476.29l315.67 0c103.45,146.97 247.68,217.74 430.02,217.74 342.87,0 530.67,-187.77 530.67,-533.41l-5.45 0c-119.73,166.02 -321.13,236.78 -519.79,236.78 -432.72,0 -805.55,-361.96 -805.55,-797.39 0,-116.97 29.96,-233.98 81.63,-337.42 138.82,-288.47 408.25,-451.81 729.34,-451.81 185.06,0 394.64,73.53 519.82,215.01l0 -174.13 283.02 0 0 1303.55c0,508.85 -315.7,797.37 -816.41,797.37z"/>
    <path class="fil2" d="M32782.21 9829.81c-133.32,68.07 -166.02,242.2 -166.02,378.33l0 824.54 -283.01 0 0 -1507.63 263.97 0 0 136.09 5.45 0c92.53,-130.64 231.31,-171.42 383.69,-176.97l0 291.2c-62.57,0 -149.65,24.54 -204.08,54.44z"/>
    <path class="fil2" d="M33261.21 11032.68l0 -1507.63 283.02 0 0 1507.63 -283.02 0zm0 -1681.83l0 -331.96 283.02 0 0 331.96 -283.02 0z"/>
   </g>
   <path class="fil2" d="M35906.31 11032.68l0 -838.15c0,-236.8 -78.89,-451.79 -356.32,-451.79 -294.15,0 -359.22,201.38 -359.22,449.04l0 840.9 -283.25 0 0 -838.15c0,-114.32 0,-209.53 -62.54,-310.29 -65.07,-100.64 -163.21,-141.5 -280.25,-141.5 -291.21,0 -372.79,195.92 -372.79,449.04l0 840.9 -283.06 0 0 -1507.63 261.28 0 0 163.25 5.41 0c125.19,-146.96 234.05,-204.13 432.72,-204.13 177.07,0 389.04,84.44 467.94,253.11 117.08,-185.03 277.78,-253.11 498.13,-253.11 399.94,0 615.2,250.41 615.2,639.57l0 908.94 -283.25 0z"/>
   <path class="fil2" d="M37245.43 9742.74c-245.06,0 -470.85,193.24 -487.22,440.86l974.44 0c-16.37,-247.62 -242.15,-440.86 -487.22,-440.86zm762.09 658.57l-1249.31 0c57.09,234.07 247.61,410.98 495.21,410.98 177.08,0 348.33,-95.24 430.14,-253.12l282.87 0c-114.16,307.53 -394.49,511.62 -723.91,511.62 -429.76,0 -767.18,-372.87 -767.18,-794.66 0,-435.4 331.96,-791.96 772.63,-791.96 427.59,0 767.55,351.09 767.55,775.66 0,46.25 -2.54,95.27 -8,141.48z"/>
   <path class="fil2" d="M39351.72 11032.68l0 -819.13c0,-255.82 -75.99,-470.81 -375.22,-470.81 -277.79,0 -397.41,214.99 -397.41,468.13l0 821.81 -283.24 0 0 -1507.63 263.96 0 0 160.52 5.47 0c109.07,-144.23 266.87,-201.4 441.03,-201.4 214.89,0 416.32,84.44 533.39,269.48 73.45,114.27 95.26,253.08 95.26,386.41l0 892.62 -283.24 0z"/>
   <path class="fil2" d="M40402.51 11070.79c-65.45,0 -130.9,-13.59 -193.44,-35.38 -223.24,-78.85 -339.95,-261.24 -339.95,-498.01l282.87 0c10.91,155.11 87.27,274.89 255.97,274.89 125.08,0 217.44,-76.22 217.44,-206.9 0,-315.63 -688.29,-152.34 -688.29,-685.73 0,-258.52 225.79,-435.49 473.39,-435.49 258.52,0 457.41,179.65 462.5,440.86l-282.87 0c-13.46,-108.82 -78.91,-182.29 -193.08,-182.29 -95.26,0 -177.06,59.87 -177.06,160.59 0,133.33 130.53,163.24 234.15,195.9 247.61,76.21 454.49,198.71 454.49,489.91 0,296.61 -217.79,481.65 -506.12,481.65z"/>
   <path class="fil2" d="M42225.92 11032.68l0 -163.24 -5.45 0c-87.26,146.93 -283.23,201.35 -443.58,201.35 -158.17,0 -310.51,-46.24 -430.13,-149.66 -166.16,-144.23 -198.52,-372.87 -198.52,-579.67l0 -816.41 282.87 0 0 816.41c0,266.69 78.9,470.83 375.59,470.83 288.33,0 394.5,-217.74 394.5,-478.97l0 -808.27 283.24 0 0 1507.63 -258.52 0z"/>
   <path class="fil2" d="M43298.16 9829.81c-133.43,68.07 -166.15,242.2 -166.15,378.33l0 824.54 -282.89 0 0 -1507.63 263.97 0 0 136.09 5.46 0c92.35,-130.64 231.25,-171.42 383.59,-176.97l0 291.2c-62.53,0 -149.8,24.54 -203.98,54.44z"/>
   <path class="fil2" d="M44419.12 9742.74c-299.24,0 -517.03,244.94 -517.03,538.87 0,282.99 226.16,530.68 514.49,530.68 293.78,0 525.03,-239.49 525.03,-530.68 0,-302.14 -214.89,-538.87 -522.49,-538.87zm517.39 1289.94l0 -234 -5.45 0c-106.17,182.3 -305.05,272.11 -511.94,272.11 -451.58,0 -799.9,-331.99 -799.9,-786.48 0,-457.19 342.87,-800.14 799.9,-800.14 201.44,0 400.32,81.67 511.94,253.11l5.45 0 0 -212.23 282.88 0 0 1507.63 -282.88 0z"/>
  </g>
  <g id="_2863153650800">
   <g>
    <polygon class="fil1" points="6090.92,5451.35 6882.15,7931.31 8541.76,7351.13 7750.52,4871.21 "/>
    <path id="1" class="fil3" d="M6740.35 7980.88l-791.23 -2479.96 283.6 -99.14 791.23 2479.96 -100.22 179.89 -183.38 -80.75zm183.38 80.75l-141.8 49.57 -41.58 -130.32 183.38 80.75zm1659.61 -580.18l-1659.61 580.18 -83.16 -260.64 1659.61 -580.18 183.38 80.75 -100.22 179.89zm100.22 -179.89l41.58 130.32 -141.8 49.57 100.22 -179.89zm-791.24 -2479.92l791.24 2479.92 -283.6 99.14 -791.24 -2479.92 100.22 -179.89 183.38 80.75zm-183.38 -80.75l141.8 -49.57 41.58 130.32 -183.38 -80.75zm-1659.6 580.14l1659.6 -580.14 83.16 260.64 -1659.6 580.14 -183.38 -80.75 100.22 -179.89zm-100.22 179.89l-41.58 -130.32 141.8 -49.57 -100.22 179.89z"/>
   </g>
   <polygon class="fil4 str1" points="5039.61,2559.72 5369.29,3507.48 6915.04,2969.81 6585.37,2022.06 "/>
   <polygon class="fil1 str2" points="6466.13,1665.3 6005.18,340.06 4442.17,883.74 4903.12,2208.96 "/>
   <polygon class="fil1 str3" points="4134.99,9338.1 1551.12,10236.85 2117.83,11866.04 4701.69,10967.31 "/>
   <polygon class="fil1 str4" points="4498.77,9256.75 5065.46,10885.96 5066.91,10885.46 5175.64,11198.11 7103.79,10527.48 7592.04,9160.09 8816.65,8734.14 8512.79,7860.56 "/>
   <g>
    <polygon class="fil4" points="4428.55,8757.42 6511.27,8029.34 5720.03,5549.41 3637.33,6277.49 "/>
    <path id="1" class="fil3" d="M6552.85 8159.66l-2082.72 728.08 -83.16 -260.64 2082.72 -728.08 183.38 80.75 -100.22 179.89zm100.22 -179.89l41.58 130.32 -141.8 49.57 100.22 -179.89zm-791.24 -2479.93l791.24 2479.93 -283.6 99.14 -791.24 -2479.93 100.22 -179.89 183.38 80.75zm-183.38 -80.75l141.8 -49.57 41.58 130.32 -183.38 -80.75zm-2082.7 728.08l2082.7 -728.08 83.16 260.64 -2082.7 728.08 -183.38 -80.75 100.22 -179.89zm-100.22 179.89l-41.58 -130.32 141.8 -49.57 -100.22 179.89zm791.22 2479.93l-791.22 -2479.93 283.6 -99.14 791.22 2479.93 -100.22 179.89 -183.38 -80.75zm183.38 80.75l-141.8 49.57 -41.58 -130.32 183.38 80.75z"/>
   </g>
   <polygon class="fil4 str5" points="6443.91,3591.8 5112.06,4055.07 5504.58,5183.54 6836.41,4720.26 "/>
   <g>
    <polygon class="fil1" points="6744.51,3498.52 7137.03,4627 7443.21,4520.51 7050.66,3392.05 "/>
    <path id="1" class="fil3" d="M6995.36 4676.28l-392.52 -1128.48 283.34 -98.56 392.52 1128.48 -92.4 190.95 -190.94 -92.39zm190.94 92.39l-141.67 49.27 -49.27 -141.66 190.94 92.39zm306.18 -106.49l-306.18 106.49 -98.54 -283.34 306.18 -106.49 190.94 92.39 -92.4 190.95zm92.4 -190.95l49.28 141.67 -141.68 49.28 92.4 -190.95zm-392.55 -1128.46l392.55 1128.46 -283.34 98.56 -392.55 -1128.46 92.4 -190.96 190.94 92.4zm-190.94 -92.4l141.66 -49.27 49.28 141.67 -190.94 -92.4zm-306.15 106.47l306.15 -106.47 98.54 283.36 -306.15 106.47 -190.94 -92.4 92.4 -190.96zm-92.4 190.96l-49.28 -141.69 141.68 -49.27 -92.4 190.96z"/>
   </g>
   <polygon class="fil1 str6" points="3421.23,3144.03 3419.82,3146.7 3120.31,2986.87 3528.25,4159.65 5008.24,3644.85 4682.24,2707.56 "/>
   <polygon class="fil1 str7" points="3895.01,4433.17 4287.52,5561.64 5135.85,5266.57 4743.33,4138.09 "/>
   <path class="fil1 str8" d="M1949.37 6421.2l379.19 -131.9 -434.51 -1249.24c-58.49,-162.72 -117.01,-325.49 -175.5,-488.21 -26.96,58.4 -383.36,1015.65 -689.86,1841.61 -238.15,641.74 -446.19,1204.19 -446.19,1204.19l774.66 2227.01 1291.19 -449.11 -890.89 -2561.25c-113.98,-327.71 191.91,-393.1 191.91,-393.1z"/>
   <g>
    <path class="fil1" d="M2406.34 6662.38c-223.47,78.1 -166.27,257.59 -166.27,257.59l733.97 2300.48 1095.54 -383 -791.23 -2479.92 -872.01 304.85z"/>
    <path id="1" class="fil3" d="M2381.87 6870.4l-283.6 99.14 -0.01 -0.04 -1.1 -3.58 -1.11 -3.95 -1.33 -5.15 -1.45 -6.22 -1.53 -7.34 -1.55 -8.59 -1.41 -9.43 -1.25 -10.4 -0.99 -11.52 -0.63 -12.44 -0.16 -13.32 0.4 -14.09 1.07 -15.07 1.87 -15.86 2.78 -16.6 3.86 -17.41 5.04 -17.97 6.35 -18.45 7.8 -18.92 9.38 -19.22 11.03 -19.31 12.76 -19.28 14.53 -19.03 16.28 -18.56 17.97 -17.91 19.66 -17.15 21.25 -16.22 22.7 -15.15 24.09 -14.05 25.46 -12.93 26.78 -11.76 27.96 -10.57 83.14 260.66 -12.32 4.65 -10.32 4.54 -8.62 4.37 -7.05 4.11 -5.66 3.79 -4.45 3.4 -3.48 3.05 -2.75 2.75 -2.14 2.46 -1.71 2.25 -1.42 2.16 -1.23 2.19 -1.08 2.24 -0.98 2.4 -0.87 2.59 -0.76 2.73 -0.62 2.83 -0.5 3.08 -0.37 3.16 -0.21 3.19 -0.08 3.29 0.04 3.1 0.15 2.9 0.23 2.62 0.31 2.48 0.31 2.07 0.27 1.43 0.23 1.08 0.13 0.5 -0.05 -0.21 -0.25 -0.93 -0.78 -2.54 -0.01 -0.04zm450.37 2399.62l-733.97 -2300.48 283.6 -99.14 733.97 2300.48 -100.22 179.89 -183.38 -80.75zm183.38 80.75l-141.8 49.57 -41.58 -130.32 183.38 80.75zm1095.54 -383l-1095.54 383 -83.16 -260.64 1095.54 -383 183.38 80.75 -100.22 179.89zm100.22 -179.89l41.58 130.32 -141.8 49.57 100.22 -179.89zm-791.23 -2479.92l791.23 2479.92 -283.6 99.14 -791.23 -2479.92 100.22 -179.89 183.38 80.75zm-183.38 -80.75l141.8 -49.57 41.58 130.32 -183.38 -80.75zm-872.01 304.85l872.01 -304.85 83.16 260.64 -872.01 304.85 -0.01 0.01 -83.15 -260.65z"/>
   </g>
   <polygon class="fil1 str9" points="2541,4883.28 2179.17,4696.9 2668.59,6103.91 2730.1,6082.51 3980.07,5647.72 3587.54,4519.24 "/>
   <polygon class="fil1 str10" points="2451.3,2739.23 1944.96,4134.36 2592.52,4479.93 3157.35,4283.44 2658.72,2849.92 "/>
   <polygon class="fil1 str11" points="3068.11,1342.24 2668.89,2337.37 3449.94,2715.31 4547.23,2333.6 4080,990.31 "/>
  </g>
 </g>
</svg>
