<?xml version="1.0" encoding="UTF-8"?>
<!DOCTYPE svg PUBLIC "-//W3C//DTD SVG 1.1//EN" "http://www.w3.org/Graphics/SVG/1.1/DTD/svg11.dtd">
<!-- Creator: CorelDRAW 2018 (64 Bit) -->
<svg xmlns="http://www.w3.org/2000/svg" xml:space="preserve" width="260.236mm" height="184.214mm" version="1.1" style="shape-rendering:geometricPrecision; text-rendering:geometricPrecision; image-rendering:optimizeQuality; fill-rule:evenodd; clip-rule:evenodd"
viewBox="0 0 26023.6 18421.4"
 xmlns:xlink="http://www.w3.org/1999/xlink">
 <defs>
  <style type="text/css">
   <![CDATA[
    .str2 {stroke:#FEFEFE;stroke-width:364.74;stroke-miterlimit:10}
    .str0 {stroke:#FEFEFE;stroke-width:364.74;stroke-miterlimit:10}
    .str1 {stroke:#FEFEFE;stroke-width:364.74;stroke-miterlimit:10}
    .str4 {stroke:#FEFEFE;stroke-width:364.74;stroke-miterlimit:10}
    .str3 {stroke:#FEFEFE;stroke-width:364.74;stroke-miterlimit:10}
    .str6 {stroke:#FEFEFE;stroke-width:300;stroke-linecap:square;stroke-miterlimit:10}
    .str8 {stroke:#FEFEFE;stroke-width:300;stroke-linecap:square;stroke-miterlimit:10}
    .str11 {stroke:#FEFEFE;stroke-width:300;stroke-linecap:square;stroke-miterlimit:10}
    .str7 {stroke:#FEFEFE;stroke-width:300;stroke-linecap:square;stroke-miterlimit:10}
    .str10 {stroke:#FEFEFE;stroke-width:300;stroke-linecap:square;stroke-miterlimit:10}
    .str12 {stroke:#FEFEFE;stroke-width:300;stroke-linecap:square;stroke-miterlimit:10}
    .str15 {stroke:#FEFEFE;stroke-width:300;stroke-linecap:square;stroke-miterlimit:10}
    .str13 {stroke:#FEFEFE;stroke-width:300;stroke-linecap:square;stroke-miterlimit:10}
    .str14 {stroke:#FEFEFE;stroke-width:300;stroke-linecap:square;stroke-miterlimit:10}
    .str5 {stroke:#FEFEFE;stroke-width:300;stroke-linecap:square;stroke-miterlimit:10}
    .str9 {stroke:#FEFEFE;stroke-width:300;stroke-linecap:square;stroke-miterlimit:10}
    .fil3 {fill:#FEFEFE;fill-rule:nonzero}
    .fil0 {fill:#FEFEFE;fill-rule:nonzero}
    .fil4 {fill:#D5B37D;fill-rule:nonzero}
    .fil2 {fill:#7892AD;fill-rule:nonzero}
    .fil1 {fill:#255376;fill-rule:nonzero}
   ]]>
  </style>
 </defs>
 <g id="Camada_x0020_1">
  <metadata id="CorelCorpID_0Corel-Layer"/>
  <g id="_1659004205936">
   <g>
    <path class="fil0 str0" d="M4307.18 15450.6c-738.46,0 -1374.48,-572.4 -1374.48,-1325.05 0,-194.34 31.8,-378.07 102.46,-558.27 38.87,-102.48 102.48,-204.94 169.61,-293.26 268.55,-353.34 660.75,-537.1 1105.97,-537.1 763.2,0 1381.54,586.56 1381.54,1356.82 0,773.82 -618.34,1356.86 -1385.1,1356.86zm7.08 -2127.12c-427.55,0 -713.73,353.33 -713.73,763.21 0,416.95 286.18,777.37 720.79,777.37 420.5,0 703.16,-367.5 703.16,-766.76 0,-406.36 -282.66,-773.82 -710.22,-773.82zm3363.84 2077.65l-996.42 -1590.04 -7.07 3.53 17.67 1586.51 -639.56 0 0 -2614.74 575.96 0 1010.56 1643.04 7.05 -7.09 -28.25 -1635.95 639.54 0 0 2614.74 -579.48 0z"/>
    <path class="fil0 str1" d="M9529.58 15450.6c-526.47,0 -943.4,-272.08 -943.4,-830.36l0 -84.81 664.27 0c0,169.6 77.74,356.88 272.07,356.88 137.82,0 254.41,-109.54 254.41,-250.89 0,-169.58 -141.34,-226.11 -279.13,-286.21 -77.74,-35.33 -155.48,-67.1 -233.22,-98.9 -339.21,-141.37 -639.55,-339.23 -639.55,-749.1 0,-487.6 469.97,-770.29 915.15,-770.29 254.42,0 540.63,95.41 706.69,296.83 134.26,166.06 166.09,310.93 173.15,515.87l-660.75 0c-21.19,-144.87 -70.69,-254.4 -240.27,-254.4 -116.6,0 -229.67,81.26 -229.67,204.94 0,38.85 3.53,77.71 24.72,109.53 63.6,105.99 406.36,240.29 515.9,289.72 346.26,159.01 611.26,339.24 611.26,749.09 0,547.68 -395.73,802.1 -911.63,802.1z"/>
    <polygon class="fil0 str1" points="11741.54,13372.95 11741.54,15401.13 11073.74,15401.13 11073.74,13372.95 10557.83,13372.95 10557.83,12786.39 12253.88,12786.39 12253.88,13372.95 "/>
    <path class="fil0 str2" d="M13773.21 15401.13l-604.19 -844.47 -7.06 0 0 844.47 -639.55 0 0 -2614.74 826.8 0c275.63,0 579.48,7.09 805.65,187.28 215.52,173.15 321.51,441.67 321.51,713.74 0,402.81 -236.75,756.15 -650.14,823.28l710.22 890.44 -763.24 0zm-367.45 -2028.18l-243.8 0 0 727.88 236.72 0c250.89,0 438.16,-105.99 438.16,-374.54 0,-257.93 -201.42,-353.34 -431.08,-353.34z"/>
    <path class="fil0 str1" d="M16603.5 15167.91c-197.85,201.39 -452.26,282.69 -731.4,282.69 -272.07,0 -561.81,-77.74 -752.62,-279.19 -236.74,-250.86 -261.47,-473.43 -261.47,-805.59l0 -1579.43 667.81 0 0 1579.43c0,236.73 38.85,498.24 339.2,498.24 314.48,0 332.16,-250.89 332.16,-498.24l0 -1579.43 667.8 0 0 1579.43c0,310.93 -35.33,575.95 -261.48,802.09z"/>
    <path class="fil0 str1" d="M18606.91 15454.12c-770.21,0 -1388.56,-597.14 -1388.56,-1370.95 0,-784.43 632.5,-1346.25 1399.18,-1346.25 565.47,0 1148.45,367.49 1307.33,925.77l-749.02 0c-120.15,-215.53 -328.62,-339.21 -575.82,-339.21 -427.63,0 -713.84,346.26 -713.84,759.69 0,427.52 272.07,784.39 717.29,784.39 286.19,0 543.99,-130.71 625.41,-420.44l-780.84 0 0 -533.57 1551.08 0c3.45,45.96 3.45,91.88 3.45,137.81 0,802.07 -593.6,1402.76 -1395.66,1402.76z"/>
    <path class="fil0 str3" d="M21599.8 15401.13l-604.21 -844.47 -7.15 0 0 844.47 -639.48 0 0 -2614.74 826.73 0c275.57,0 579.54,7.09 805.78,187.28 215.36,173.15 321.45,441.67 321.45,713.74 0,402.81 -236.85,756.15 -650.08,823.28l710.02 890.44 -763.06 0zm-367.62 -2028.18l-243.74 0 0 727.88 236.85 0c250.9,0 438.16,-105.99 438.16,-374.54 0,-257.93 -201.58,-353.34 -431.27,-353.34z"/>
    <polygon class="fil0 str1" points="22656.22,15401.13 23324.07,15401.13 23324.07,12786.39 22656.22,12786.39 "/>
    <path class="fil0 str4" d="M24677.28 15401.13l-915.04 0 0 -2614.74 865.71 0c473.44,0 858.56,77.74 1155.35,487.63 169.75,236.72 240.3,522.93 240.3,812.67 0,858.61 -491.2,1314.44 -1346.32,1314.44zm42.44 -2028.18l-289.63 0 0 1441.59 286.19 0c455.66,0 639.48,-293.21 639.48,-717.24 0,-416.95 -190.71,-724.35 -636.04,-724.35z"/>
    <path class="fil0 str1" d="M1378.01 15450.6c-759.68,0 -1378.01,-593.62 -1378.01,-1360.38 0,-766.74 611.28,-1353.3 1370.95,-1353.3 473.47,0 890.41,219.09 1151.88,614.84 84.79,127.17 151.95,275.6 176.68,427.53l-699.61 0c-102.49,-268.55 -339.2,-455.81 -632.47,-455.81 -424,0 -699.64,360.41 -699.64,763.21 0,402.81 275.64,777.37 703.16,777.37 293.27,0 512.35,-183.75 628.95,-441.72l699.61 0c-151.93,618.37 -689,1028.26 -1321.5,1028.26z"/>
   </g>
   <g>
    <path class="fil1" d="M1378.01 15450.6c-759.68,0 -1378.01,-593.61 -1378.01,-1360.37 0,-766.74 611.28,-1353.3 1370.95,-1353.3 473.47,0 890.41,219.09 1151.88,614.84 84.79,127.17 151.95,275.6 176.68,427.52l-699.61 0c-102.49,-268.55 -339.2,-455.8 -632.47,-455.8 -424,0 -699.64,360.4 -699.64,763.21 0,402.8 275.64,777.37 703.16,777.37 293.27,0 512.35,-183.76 628.95,-441.72l699.61 0c-151.93,618.37 -689,1028.25 -1321.5,1028.25z"/>
    <path class="fil1" d="M4314.26 13323.49c-427.56,0 -713.74,353.32 -713.74,763.21 0,416.95 286.18,777.37 720.8,777.37 420.5,0 703.16,-367.51 703.16,-766.76 0,-406.36 -282.66,-773.82 -710.22,-773.82zm-7.08 2127.11c-738.46,0 -1374.48,-572.39 -1374.48,-1325.05 0,-194.33 31.8,-378.06 102.46,-558.26 38.87,-102.48 102.48,-204.94 169.61,-293.26 268.55,-353.34 660.75,-537.1 1105.96,-537.1 763.21,0 1381.55,586.56 1381.55,1356.82 0,773.82 -618.34,1356.85 -1385.1,1356.85z"/>
    <polygon class="fil1" points="7678.1,15401.14 6681.68,13811.1 6674.62,13814.62 6692.28,15401.14 6052.72,15401.14 6052.72,12786.4 6628.68,12786.4 7639.24,14429.43 7646.29,14422.35 7618.05,12786.4 8257.58,12786.4 8257.58,15401.14 "/>
    <path class="fil1" d="M9529.58 15450.6c-526.46,0 -943.4,-272.07 -943.4,-830.36l0 -84.8 664.27 0c0,169.59 77.74,356.88 272.07,356.88 137.82,0 254.41,-109.55 254.41,-250.89 0,-169.59 -141.34,-226.11 -279.13,-286.21 -77.74,-35.33 -155.48,-67.1 -233.22,-98.91 -339.2,-141.36 -639.55,-339.23 -639.55,-749.09 0,-487.61 469.97,-770.29 915.15,-770.29 254.42,0 540.63,95.41 706.69,296.83 134.26,166.05 166.09,310.93 173.15,515.87l-660.75 0c-21.19,-144.87 -70.69,-254.41 -240.27,-254.41 -116.6,0 -229.67,81.27 -229.67,204.95 0,38.85 3.53,77.71 24.72,109.53 63.6,105.99 406.37,240.28 515.9,289.72 346.26,159 611.26,339.23 611.26,749.09 0,547.68 -395.73,802.09 -911.63,802.09z"/>
    <polygon class="fil1" points="11741.53,13372.96 11741.53,15401.14 11073.73,15401.14 11073.73,13372.96 10557.83,13372.96 10557.83,12786.4 12253.88,12786.4 12253.88,13372.96 "/>
    <path class="fil1" d="M13405.76 13372.96l-243.8 0 0 727.87 236.72 0c250.89,0 438.16,-105.98 438.16,-374.53 0,-257.94 -201.42,-353.34 -431.08,-353.34zm367.45 2028.18l-604.2 -844.47 -7.05 0 0 844.47 -639.55 0 0 -2614.74 826.8 0c275.64,0 579.48,7.08 805.65,187.28 215.52,173.14 321.51,441.66 321.51,713.74 0,402.81 -236.75,756.15 -650.14,823.28l710.21 890.44 -763.23 0z"/>
    <path class="fil1" d="M16603.51 15167.92c-197.87,201.39 -452.27,282.68 -731.41,282.68 -272.07,0 -561.81,-77.74 -752.62,-279.18 -236.75,-250.86 -261.47,-473.44 -261.47,-805.59l0 -1579.43 667.81 0 0 1579.43c0,236.72 38.85,498.24 339.2,498.24 314.49,0 332.15,-250.89 332.15,-498.24l0 -1579.43 667.8 0 0 1579.43c0,310.93 -35.33,575.95 -261.46,802.09z"/>
    <path class="fil1" d="M18606.91 15454.13c-770.21,0 -1388.56,-597.14 -1388.56,-1370.96 0,-784.42 632.5,-1346.24 1399.18,-1346.24 565.47,0 1148.45,367.48 1307.32,925.77l-749.02 0c-120.15,-215.53 -328.62,-339.21 -575.81,-339.21 -427.64,0 -713.85,346.26 -713.85,759.68 0,427.53 272.08,784.4 717.3,784.4 286.18,0 543.99,-130.71 625.41,-420.45l-780.84 0 0 -533.56 1551.08 0c3.44,45.96 3.44,91.87 3.44,137.81 0,802.06 -593.59,1402.76 -1395.65,1402.76z"/>
    <path class="fil1" d="M21232.18 13372.96l-243.74 0 0 727.87 236.85 0c250.9,0 438.16,-105.98 438.16,-374.53 0,-257.94 -201.58,-353.34 -431.27,-353.34zm367.62 2028.18l-604.21 -844.47 -7.15 0 0 844.47 -639.48 0 0 -2614.74 826.73 0c275.57,0 579.53,7.08 805.78,187.28 215.36,173.14 321.45,441.66 321.45,713.74 0,402.81 -236.85,756.15 -650.08,823.28l710.03 890.44 -763.07 0z"/>
    <polygon class="fil1" points="22656.21,15401.14 23324.07,15401.14 23324.07,12786.39 22656.21,12786.39 "/>
    <path class="fil1" d="M24719.72 13372.96l-289.63 0 0 1441.59 286.19 0c455.66,0 639.47,-293.21 639.47,-717.24 0,-416.95 -190.7,-724.35 -636.03,-724.35zm-42.44 2028.18l-915.04 0 0 -2614.74 865.71 0c473.44,0 858.55,77.74 1155.35,487.63 169.75,236.71 240.3,522.93 240.3,812.67 0,858.61 -491.2,1314.44 -1346.32,1314.44z"/>
   </g>
   <g>
    <g>
     <g>
      <polygon class="fil2" points="133.42,17988.62 133.42,16519.61 925.51,16519.61 925.51,16716.15 347.83,16716.15 347.83,17148.9 925.51,17148.9 925.51,17345.43 347.83,17345.43 347.83,17792.09 925.51,17792.09 925.51,17988.62 "/>
      <path class="fil2" d="M1937.98 17988.62l0 -597.54c0,-186.62 -55.6,-343.44 -273.96,-343.44 -202.5,0 -289.84,156.82 -289.84,341.48l0 599.5 -206.46 0 0 -1099.78 192.56 0 0 117.09 3.97 0c79.41,-105.21 194.55,-146.91 321.6,-146.91 156.83,0 303.75,61.6 389.09,196.57 53.61,83.36 69.47,184.62 69.47,281.88l0 651.15 -206.43 0z"/>
      <path class="fil2" d="M3083.46 17077.44c-45.64,-17.9 -95.29,-29.8 -144.92,-29.8 -214.39,0 -381.14,178.67 -381.14,391.1 0,208.42 168.74,389.11 379.18,389.11 160.78,0 285.84,-89.35 349.39,-234.26 21.83,-47.64 35.73,-101.25 35.73,-152.86 0,-168.76 -79.41,-301.78 -238.24,-363.29zm-150.86 1343.97c-240.22,0 -444.68,-125.07 -541.97,-347.44l230.27 0c75.46,107.21 180.65,158.83 313.66,158.83 250.17,0 387.14,-136.97 387.14,-389.11l-3.98 0c-87.34,121.11 -234.26,172.72 -379.18,172.72 -315.62,0 -587.6,-264.03 -587.6,-581.67 0,-85.33 21.81,-170.68 59.55,-246.14 101.24,-210.43 297.77,-329.58 532.03,-329.58 135,0 287.86,53.63 379.18,156.84l0 -127.02 206.45 0 0 950.91c0,371.19 -230.27,581.66 -595.55,581.66z"/>
      <path class="fil2" d="M4268.68 17047.64c-178.66,0 -343.42,140.96 -355.36,321.59l710.69 0c-11.88,-180.63 -176.67,-321.59 -355.33,-321.59zm555.85 480.41l-911.21 0c41.7,170.75 180.65,299.8 361.3,299.8 129.06,0 254.12,-69.47 313.69,-184.65l206.46 0c-83.39,224.34 -287.86,373.21 -528.08,373.21 -313.67,0 -559.83,-271.99 -559.83,-579.68 0,-317.61 242.22,-577.71 563.81,-577.71 311.67,0 559.8,256.11 559.8,565.82 0,33.74 -1.97,69.5 -5.94,103.21z"/>
      <path class="fil2" d="M5805.28 17988.62l0 -597.54c0,-186.62 -55.59,-343.44 -273.96,-343.44 -202.5,0 -289.85,156.82 -289.85,341.48l0 599.5 -206.45 0 0 -1099.78 192.55 0 0 117.09 3.98 0c79.42,-105.21 194.55,-146.91 321.6,-146.91 156.83,0 303.74,61.6 389.09,196.57 53.61,83.36 69.49,184.62 69.49,281.88l0 651.15 -206.45 0z"/>
      <path class="fil2" d="M7044.07 17988.62l0 -597.54c0,-186.62 -55.59,-343.44 -273.96,-343.44 -202.47,0 -289.84,156.82 -289.84,341.48l0 599.5 -206.46 0 0 -1469.01 206.46 0 0 486.32 3.97 0c71.49,-107.2 184.61,-146.91 307.73,-146.91 156.8,0 303.71,61.6 389.07,196.57 53.6,83.36 69.49,184.62 69.49,281.88l0 651.15 -206.46 0z"/>
      <path class="fil2" d="M8036.7 17047.64c-218.36,0 -377.16,178.67 -377.16,393.09 0,206.43 164.77,387.12 375.18,387.12 214.41,0 383.15,-174.7 383.15,-387.12 0,-220.4 -156.84,-393.09 -381.17,-393.09zm377.21 940.98l0 -170.7 -4 0c-77.39,132.99 -222.31,198.49 -373.21,198.49 -329.52,0 -583.64,-242.17 -583.64,-573.71 0,-333.51 250.14,-583.68 583.64,-583.68 146.92,0 291.84,59.57 373.21,184.63l4 0 0 -154.81 206.47 0 0 1099.78 -206.47 0z"/>
      <path class="fil2" d="M9213.99 17111.15c-97.29,49.66 -121.1,176.68 -121.1,275.98l0 601.49 -206.46 0 0 -1099.78 192.55 0 0 99.28 3.99 0c67.47,-95.31 168.73,-125.06 279.89,-129.1l0 212.42c-45.64,0 -109.16,17.9 -148.87,39.71z"/>
      <path class="fil2" d="M9563.38 17988.62l0 -1099.78 206.45 0 0 1099.78 -206.45 0zm0 -1226.85l0 -242.16 206.45 0 0 242.16 -206.45 0z"/>
      <path class="fil2" d="M10561.95 17047.64c-218.39,0 -377.18,178.67 -377.18,393.09 0,206.43 164.76,387.12 375.19,387.12 214.39,0 383.13,-174.7 383.13,-387.12 0,-220.4 -156.83,-393.09 -381.14,-393.09zm377.16 940.98l0 -170.7 -3.95 0c-77.42,132.99 -222.35,198.49 -373.21,198.49 -329.55,0 -583.64,-242.17 -583.64,-573.71 0,-333.51 250.12,-583.68 583.64,-583.68 146.92,0 291.81,59.57 373.21,184.63l3.95 0 0 -154.81 206.48 0 0 1099.78 -206.48 0z"/>
     </g>
     <path class="fil2" d="M12503.53 17047.64c-178.66,0 -343.45,140.96 -355.36,321.59l710.69 0c-11.87,-180.63 -176.66,-321.59 -355.33,-321.59zm555.85 480.41l-911.21 0c41.7,170.75 180.65,299.8 361.31,299.8 129.06,0 254.11,-69.47 313.66,-184.65l206.45 0c-83.35,224.34 -287.82,373.21 -528.04,373.21 -313.67,0 -559.83,-271.99 -559.83,-579.68 0,-317.61 242.21,-577.71 563.8,-577.71 311.68,0 559.8,256.11 559.8,565.82 0,33.74 -1.96,69.5 -5.94,103.21z"/>
     <path class="fil2" d="M14367.72 16797.52l-3.95 0 -188.61 561.82 379.18 0 -186.62 -561.82zm422.86 1191.1l-162.77 -432.78 -528.08 0 -162.8 432.78 -226.3 0 557.84 -1469.01 192.59 0 557.8 1469.01 -228.28 0z"/>
     <path class="fil2" d="M15781.25 17077.44c-45.67,-17.9 -95.3,-29.8 -144.93,-29.8 -214.41,0 -381.16,178.67 -381.16,391.1 0,208.42 168.76,389.11 379.17,389.11 160.81,0 285.87,-89.35 349.4,-234.26 21.85,-47.64 35.75,-101.25 35.75,-152.86 0,-168.76 -79.41,-301.78 -238.23,-363.29zm-150.86 1343.97c-240.23,0 -444.7,-125.07 -541.98,-347.44l230.27 0c75.46,107.21 180.67,158.83 313.69,158.83 250.11,0 387.11,-136.97 387.11,-389.11l-3.98 0c-87.34,121.11 -234.25,172.72 -379.18,172.72 -315.65,0 -587.62,-264.03 -587.62,-581.67 0,-85.33 21.86,-170.68 59.55,-246.14 101.26,-210.43 297.8,-329.58 532.03,-329.58 135,0 287.88,53.63 379.2,156.84l0 -127.02 206.45 0 0 950.91c0,371.19 -230.29,581.66 -595.54,581.66z"/>
     <path class="fil2" d="M16817.56 17111.15c-97.26,49.66 -121.1,176.68 -121.1,275.98l0 601.49 -206.46 0 0 -1099.78 192.56 0 0 99.28 3.98 0c67.5,-95.31 168.73,-125.06 279.89,-129.1l0 212.42c-45.64,0 -109.16,17.9 -148.87,39.71z"/>
     <path class="fil2" d="M17166.98 17988.62l0 -1099.78 206.45 0 0 1099.78 -206.45 0zm0 -1226.85l0 -242.16 206.45 0 0 242.16 -206.45 0z"/>
    </g>
    <path class="fil2" d="M19096.52 17988.62l0 -611.41c0,-172.75 -57.56,-329.57 -259.93,-329.57 -214.58,0 -262.05,146.9 -262.05,327.56l0 613.42 -206.62 0 0 -611.41c0,-83.4 0,-152.85 -45.62,-226.35 -47.47,-73.42 -119.06,-103.22 -204.44,-103.22 -212.42,0 -271.94,142.92 -271.94,327.56l0 613.42 -206.48 0 0 -1099.78 190.59 0 0 119.09 3.95 0c91.33,-107.21 170.74,-148.91 315.66,-148.91 129.17,0 283.8,61.6 341.35,184.63 85.41,-134.97 202.64,-184.63 363.37,-184.63 291.75,0 448.78,182.66 448.78,466.55l0 663.05 -206.62 0z"/>
    <path class="fil2" d="M20073.37 17047.64c-178.77,0 -343.47,140.96 -355.41,321.59l710.82 0c-11.94,-180.63 -176.64,-321.59 -355.41,-321.59zm555.93 480.41l-911.34 0c41.64,170.75 180.62,299.8 361.24,299.8 129.17,0 254.1,-69.47 313.77,-184.65l206.35 0c-83.28,224.34 -287.77,373.21 -528.07,373.21 -313.51,0 -559.64,-271.99 -559.64,-579.68 0,-317.61 242.16,-577.71 563.61,-577.71 311.92,0 559.91,256.11 559.91,565.82 0,33.74 -1.85,69.5 -5.83,103.21z"/>
    <path class="fil2" d="M21609.85 17988.62l0 -597.54c0,-186.62 -55.43,-343.44 -273.71,-343.44 -202.64,0 -289.9,156.82 -289.9,341.48l0 599.5 -206.61 0 0 -1099.78 192.55 0 0 117.09 3.98 0c79.57,-105.21 194.69,-146.91 321.73,-146.91 156.75,0 303.69,61.6 389.09,196.57 53.58,83.36 69.5,184.62 69.5,281.88l0 651.15 -206.63 0z"/>
    <path class="fil2" d="M22376.38 18016.41c-47.74,0 -95.49,-9.91 -141.11,-25.8 -162.85,-57.52 -247.98,-190.57 -247.98,-363.29l206.35 0c7.95,113.15 63.65,200.53 186.72,200.53 91.24,0 158.61,-55.6 158.61,-150.93 0,-230.24 -502.09,-111.13 -502.09,-500.22 0,-188.58 164.71,-317.68 345.33,-317.68 188.59,0 333.67,131.05 337.38,321.6l-206.35 0c-9.82,-79.39 -57.56,-132.98 -140.84,-132.98 -69.49,0 -129.17,43.67 -129.17,117.14 0,97.27 95.23,119.09 170.81,142.9 180.63,55.6 331.54,144.96 331.54,357.38 0,216.38 -158.87,351.35 -369.2,351.35z"/>
    <path class="fil2" d="M23706.52 17988.62l0 -119.09 -3.98 0c-63.66,107.19 -206.61,146.88 -323.58,146.88 -115.38,0 -226.51,-33.72 -313.77,-109.16 -121.21,-105.22 -144.82,-272 -144.82,-422.86l0 -595.55 206.35 0 0 595.55c0,194.55 57.55,343.46 273.99,343.46 210.32,0 287.77,-158.84 287.77,-349.4l0 -589.61 206.62 0 0 1099.78 -188.58 0z"/>
    <path class="fil2" d="M24488.69 17111.15c-97.34,49.66 -121.21,176.68 -121.21,275.98l0 601.49 -206.36 0 0 -1099.78 192.57 0 0 99.28 3.97 0c67.38,-95.31 168.69,-125.06 279.82,-129.1l0 212.42c-45.61,0 -109.27,17.9 -148.79,39.71z"/>
    <path class="fil2" d="M25306.4 17047.64c-218.29,0 -377.16,178.67 -377.16,393.09 0,206.43 164.98,387.12 375.3,387.12 214.31,0 383,-174.7 383,-387.12 0,-220.4 -156.75,-393.09 -381.14,-393.09zm377.43 940.98l0 -170.7 -3.98 0c-77.45,132.99 -222.53,198.49 -373.45,198.49 -329.42,0 -583.51,-242.17 -583.51,-573.71 0,-333.51 250.12,-583.68 583.51,-583.68 146.94,0 292.02,59.57 373.45,184.63l3.98 0 0 -154.81 206.34 0 0 1099.78 -206.34 0z"/>
   </g>
   <g>
    <g>
     <polygon class="fil1" points="14403.14,5111.29 15194.37,7591.25 16853.98,7011.07 16062.74,4531.15 "/>
     <path id="1" class="fil3" d="M15052.57 7640.82l-791.23 -2479.96 283.6 -99.14 791.23 2479.96 -100.22 179.89 -183.38 -80.75zm183.38 80.75l-141.8 49.57 -41.58 -130.32 183.38 80.75zm1659.61 -580.18l-1659.61 580.18 -83.16 -260.64 1659.61 -580.18 183.38 80.75 -100.22 179.89zm100.22 -179.89l41.58 130.32 -141.8 49.57 100.22 -179.89zm-791.24 -2479.92l791.24 2479.92 -283.6 99.14 -791.24 -2479.92 100.22 -179.89 183.38 80.75zm-183.38 -80.75l141.8 -49.57 41.58 130.32 -183.38 -80.75zm-1659.6 580.14l1659.6 -580.14 83.16 260.64 -1659.6 580.14 -183.38 -80.75 100.22 -179.89zm-100.22 179.89l-41.58 -130.32 141.8 -49.57 -100.22 179.89z"/>
    </g>
    <polygon class="fil4 str5" points="13351.83,2219.66 13681.51,3167.42 15227.26,2629.75 14897.59,1682 "/>
    <polygon class="fil1 str6" points="14778.35,1325.24 14317.4,0 12754.39,543.68 13215.34,1868.9 "/>
    <polygon class="fil1 str7" points="12447.21,8998.04 9863.34,9896.79 10430.05,11525.98 13013.91,10627.25 "/>
    <polygon class="fil1 str8" points="12810.99,8916.69 13377.68,10545.9 13379.13,10545.4 13487.86,10858.05 15416.01,10187.42 15904.26,8820.03 17128.87,8394.08 16825.01,7520.5 "/>
    <g>
     <polygon class="fil4" points="12740.77,8417.36 14823.49,7689.28 14032.25,5209.35 11949.55,5937.43 "/>
     <path id="1" class="fil3" d="M14865.07 7819.6l-2082.72 728.08 -83.16 -260.64 2082.72 -728.08 183.38 80.75 -100.22 179.89zm100.22 -179.89l41.58 130.32 -141.8 49.57 100.22 -179.89zm-791.24 -2479.93l791.24 2479.93 -283.6 99.14 -791.24 -2479.93 100.22 -179.89 183.38 80.75zm-183.38 -80.75l141.8 -49.57 41.58 130.32 -183.38 -80.75zm-2082.7 728.08l2082.7 -728.08 83.16 260.64 -2082.7 728.08 -183.38 -80.75 100.22 -179.89zm-100.22 179.89l-41.58 -130.32 141.8 -49.57 -100.22 179.89zm791.22 2479.93l-791.22 -2479.93 283.6 -99.14 791.22 2479.93 -100.22 179.89 -183.38 -80.75zm183.38 80.75l-141.8 49.57 -41.58 -130.32 183.38 80.75z"/>
    </g>
    <polygon class="fil4 str9" points="14756.13,3251.74 13424.28,3715.01 13816.8,4843.48 15148.63,4380.2 "/>
    <g>
     <polygon class="fil1" points="15056.73,3158.46 15449.25,4286.94 15755.43,4180.45 15362.88,3051.99 "/>
     <path id="1" class="fil3" d="M15307.58 4336.22l-392.52 -1128.48 283.34 -98.56 392.52 1128.48 -92.4 190.95 -190.94 -92.39zm190.94 92.39l-141.67 49.27 -49.27 -141.66 190.94 92.39zm306.18 -106.49l-306.18 106.49 -98.54 -283.34 306.18 -106.49 190.94 92.39 -92.4 190.95zm92.4 -190.95l49.28 141.67 -141.68 49.28 92.4 -190.95zm-392.55 -1128.46l392.55 1128.46 -283.34 98.56 -392.55 -1128.46 92.4 -190.96 190.94 92.4zm-190.94 -92.4l141.66 -49.27 49.28 141.67 -190.94 -92.4zm-306.15 106.47l306.15 -106.47 98.54 283.36 -306.15 106.47 -190.94 -92.4 92.4 -190.96zm-92.4 190.96l-49.28 -141.69 141.68 -49.27 -92.4 190.96z"/>
    </g>
    <polygon class="fil1 str10" points="11733.45,2803.97 11732.04,2806.64 11432.53,2646.81 11840.47,3819.59 13320.46,3304.79 12994.46,2367.5 "/>
    <polygon class="fil1 str11" points="12207.23,4093.11 12599.74,5221.58 13448.07,4926.51 13055.55,3798.03 "/>
    <path class="fil1 str12" d="M10261.59 6081.14l379.19 -131.9 -434.51 -1249.24c-58.49,-162.72 -117.01,-325.49 -175.5,-488.21 -26.96,58.4 -383.36,1015.65 -689.86,1841.61 -238.15,641.74 -446.19,1204.19 -446.19,1204.19l774.66 2227.01 1291.19 -449.11 -890.89 -2561.25c-113.98,-327.71 191.91,-393.1 191.91,-393.1z"/>
    <g>
     <path class="fil1" d="M10718.56 6322.32c-223.47,78.1 -166.27,257.59 -166.27,257.59l733.97 2300.48 1095.54 -383 -791.23 -2479.92 -872.01 304.85z"/>
     <path id="1" class="fil3" d="M10694.09 6530.34l-283.6 99.14 -0.01 -0.04 -1.1 -3.58 -1.11 -3.95 -1.34 -5.2 -1.44 -6.18 -1.53 -7.31 -1.55 -8.61 -1.41 -9.43 -1.25 -10.4 -0.99 -11.52 -0.63 -12.44 -0.16 -13.32 0.4 -14.09 1.07 -15.07 1.87 -15.86 2.78 -16.6 3.86 -17.41 5.04 -17.97 6.35 -18.45 7.8 -18.92 9.38 -19.22 11.03 -19.31 12.76 -19.28 14.53 -19.03 16.28 -18.56 17.97 -17.91 19.66 -17.15 21.25 -16.22 22.7 -15.15 24.09 -14.05 25.46 -12.93 26.78 -11.76 27.96 -10.57 83.14 260.66 -12.32 4.65 -10.32 4.54 -8.62 4.37 -7.05 4.11 -5.66 3.79 -4.45 3.4 -3.48 3.05 -2.75 2.75 -2.14 2.46 -1.71 2.25 -1.42 2.16 -1.23 2.19 -1.08 2.24 -0.98 2.4 -0.87 2.59 -0.76 2.73 -0.62 2.83 -0.5 3.08 -0.37 3.16 -0.21 3.19 -0.08 3.29 0.04 3.1 0.15 2.9 0.23 2.62 0.31 2.48 0.31 2.07 0.27 1.41 0.23 1.09 0.14 0.56 -0.06 -0.26 -0.25 -0.93 -0.78 -2.54 -0.01 -0.04zm450.37 2399.62l-733.97 -2300.48 283.6 -99.14 733.97 2300.48 -100.22 179.89 -183.38 -80.75zm183.38 80.75l-141.8 49.57 -41.58 -130.32 183.38 80.75zm1095.54 -383l-1095.54 383 -83.16 -260.64 1095.54 -383 183.38 80.75 -100.22 179.89zm100.22 -179.89l41.58 130.32 -141.8 49.57 100.22 -179.89zm-791.23 -2479.92l791.23 2479.92 -283.6 99.14 -791.23 -2479.92 100.22 -179.89 183.38 80.75zm-183.38 -80.75l141.8 -49.57 41.58 130.32 -183.38 -80.75zm-872.01 304.85l872.01 -304.85 83.16 260.64 -872.01 304.85 -0.01 0.01 -83.15 -260.65z"/>
    </g>
    <polygon class="fil1 str13" points="10853.22,4543.22 10491.39,4356.84 10980.81,5763.85 11042.32,5742.45 12292.29,5307.66 11899.76,4179.18 "/>
    <polygon class="fil1 str14" points="10763.52,2399.17 10257.18,3794.3 10904.74,4139.87 11469.57,3943.38 10970.94,2509.86 "/>
    <polygon class="fil1 str15" points="11380.33,1002.18 10981.11,1997.31 11762.16,2375.25 12859.45,1993.54 12392.22,650.25 "/>
   </g>
  </g>
 </g>
</svg>
