<?xml version="1.0" standalone="no"?>
<!DOCTYPE svg PUBLIC "-//W3C//DTD SVG 20010904//EN"
 "http://www.w3.org/TR/2001/REC-SVG-20010904/DTD/svg10.dtd">
<svg version="1.0" xmlns="http://www.w3.org/2000/svg"
 width="1223.000000pt" height="392.000000pt" viewBox="0 0 1223.000000 392.000000"
 preserveAspectRatio="xMidYMid meet">
<metadata>
Created by potrace 1.16, written by Peter Selinger 2001-2019
</metadata>
<g transform="translate(0.000000,392.000000) scale(0.100000,-0.100000)"
fill="#000000" stroke="none">
<path d="M1351 3719 c-291 -36 -521 -178 -652 -401 -65 -110 -149 -383 -137
-444 2 -12 32 6 123 75 66 50 130 99 141 108 12 10 31 49 42 88 58 191 200
358 384 451 125 63 223 85 408 93 l165 6 -80 13 c-107 17 -302 23 -394 11z"/>
<path d="M1912 3665 c-36 -74 -34 -76 89 -134 119 -55 134 -59 143 -36 6 16
36 21 36 6 0 -4 -10 -31 -21 -59 -26 -62 -20 -98 18 -113 42 -16 71 3 98 66
26 58 55 69 47 17 -3 -26 2 -30 111 -81 64 -29 121 -50 127 -46 17 11 60 107
53 118 -9 15 -209 107 -232 107 -11 0 -22 -9 -26 -20 -3 -11 -10 -20 -15 -20
-19 0 -19 20 0 65 25 58 25 87 2 108 -43 39 -97 9 -122 -69 -16 -47 -47 -44
-42 4 4 32 3 33 -103 82 -58 28 -114 50 -123 50 -11 0 -26 -17 -40 -45z"/>
<path d="M1570 3233 c-48 -22 -157 -63 -166 -63 -2 0 1 12 7 26 5 15 8 28 7
30 -8 7 -249 -79 -320 -115 -44 -23 -87 -41 -95 -41 -13 0 -13 -3 -3 -15 16
-19 51 -19 76 0 36 27 50 15 15 -14 -24 -20 -30 -30 -20 -33 10 -3 -7 -31 -57
-94 -80 -101 -194 -268 -194 -283 0 -6 7 -29 16 -51 15 -37 19 -40 55 -40 26
0 74 18 156 58 65 32 142 68 170 80 48 21 64 37 190 200 75 97 156 202 180
233 39 51 44 62 41 102 l-3 45 -55 -25z"/>
<path d="M2520 2915 c0 -2 42 -137 93 -299 l94 -294 70 -88 69 -89 92 -295
c50 -162 105 -344 122 -405 17 -60 32 -114 33 -118 2 -7 156 180 179 218 4 7
-8 97 -28 201 -19 104 -33 195 -32 202 2 7 42 -77 90 -185 82 -186 88 -204 95
-288 l7 -90 12 64 c30 164 26 384 -12 571 -41 202 -156 465 -274 625 -30 40
-55 73 -56 72 -1 -1 6 -47 16 -102 10 -55 17 -101 15 -103 -1 -1 -25 35 -53
80 -28 46 -82 123 -119 173 l-68 89 -160 33 c-166 33 -185 36 -185 28z"/>
<path d="M2158 2853 c-93 -33 -158 -61 -158 -69 0 -7 21 -70 46 -141 l45 -130
162 57 c89 31 162 61 162 67 0 17 -89 273 -95 272 -3 0 -76 -26 -162 -56z"/>
<path d="M6911 2842 c-1 -7 -5 -11 -10 -7 -5 3 -13 0 -16 -6 -4 -5 -13 -8 -21
-5 -8 3 -14 0 -14 -5 0 -6 -9 -9 -20 -6 -11 3 -18 1 -14 -4 3 -5 0 -9 -6 -9
-20 0 -102 -84 -118 -120 -17 -38 -26 -150 -12 -150 4 0 11 -12 15 -27 3 -15
24 -43 45 -62 50 -47 74 -67 75 -62 0 3 41 -13 108 -42 15 -6 27 -16 27 -20 0
-5 5 -5 10 -2 6 3 17 0 25 -8 8 -9 20 -17 26 -19 14 -5 19 -68 7 -91 -5 -10
-13 -15 -19 -12 -5 4 -9 1 -9 -4 0 -14 -57 -14 -65 -1 -4 6 -10 8 -15 5 -12
-8 -33 33 -26 52 13 32 -19 43 -122 43 l-99 0 -6 -47 c-3 -27 -1 -50 3 -53 5
-3 16 -24 25 -47 16 -40 74 -103 95 -103 6 0 8 -5 4 -12 -5 -8 -2 -9 9 -5 9 3
19 2 22 -3 4 -6 15 -10 26 -10 10 0 19 -3 19 -7 0 -5 45 -8 99 -8 55 0 97 3
94 8 -2 4 7 7 21 7 14 0 26 5 26 10 0 6 7 10 15 10 20 0 105 85 105 105 0 8 5
15 11 15 6 0 8 8 4 19 -3 10 0 31 6 45 10 22 9 37 -11 96 -13 39 -27 70 -31
70 -4 0 -11 9 -14 21 -4 11 -20 25 -36 31 -16 5 -29 14 -29 20 0 5 -4 6 -10 3
-5 -3 -21 5 -34 18 -14 14 -27 20 -28 15 -2 -6 -10 -5 -19 4 -8 8 -26 18 -41
21 -43 11 -97 50 -104 75 -8 27 17 68 46 77 38 12 65 -2 84 -45 l17 -40 98 0
98 0 6 38 c4 21 2 38 -3 40 -6 2 -10 10 -10 19 0 8 -9 28 -21 44 -11 16 -18
29 -15 29 3 0 -4 10 -16 23 -13 12 -26 22 -30 22 -4 0 -17 8 -28 18 -12 10
-25 15 -30 12 -6 -4 -10 -1 -10 5 0 6 -8 10 -17 9 -10 -1 -26 1 -36 6 -10 4
-35 5 -57 1 -26 -4 -40 -2 -43 7 -4 9 -6 9 -6 -1z"/>
<path d="M4344 2829 c-3 -6 -17 -8 -30 -5 -15 4 -24 2 -24 -5 0 -6 -9 -9 -20
-6 -11 3 -18 2 -15 -3 3 -4 -6 -11 -20 -14 -50 -13 -159 -119 -195 -191 -14
-28 -29 -53 -33 -56 -4 -3 -5 -13 -1 -22 3 -10 2 -23 -4 -30 -13 -15 -12 -158
1 -174 5 -7 6 -20 3 -30 -4 -9 -3 -19 1 -22 4 -3 16 -22 27 -41 31 -59 80
-129 90 -130 5 0 20 -12 34 -27 14 -16 28 -29 31 -29 29 -7 51 -18 51 -25 0
-5 6 -6 13 -3 7 2 23 -5 35 -16 14 -13 22 -16 22 -8 0 8 3 9 8 3 8 -11 202
-14 202 -2 0 4 11 7 25 7 14 0 25 5 25 11 0 6 7 9 15 5 8 -3 15 -1 15 5 0 6 7
9 15 5 8 -3 15 -1 15 5 0 5 8 13 18 16 33 12 128 118 151 168 12 28 26 57 31
66 5 9 6 20 3 23 -4 3 -57 6 -120 6 -97 0 -113 -2 -113 -16 0 -18 -72 -94 -89
-94 -6 0 -11 -5 -11 -11 0 -7 -10 -9 -26 -5 -17 5 -23 3 -19 -4 4 -6 -9 -10
-34 -10 -23 0 -41 5 -41 11 0 6 -9 8 -20 4 -11 -4 -20 -2 -20 4 0 6 -6 11 -14
11 -41 0 -123 121 -110 162 3 10 1 18 -5 18 -6 0 -11 14 -11 30 0 17 4 30 8
30 5 0 7 14 4 30 -3 18 0 30 7 30 6 0 11 9 11 20 0 22 58 92 70 85 5 -3 13 3
19 12 6 10 11 14 11 9 0 -5 6 -3 14 3 20 17 125 20 138 4 6 -7 14 -10 19 -7 5
3 9 2 9 -3 0 -4 12 -14 28 -21 27 -12 76 -77 68 -90 -4 -8 226 -3 234 4 2 3 0
8 -6 12 -6 4 -14 20 -18 35 -12 50 -114 192 -138 192 -4 0 -16 8 -27 17 -11 9
-22 14 -25 11 -3 -4 -6 -1 -6 5 0 7 -7 12 -15 12 -8 0 -15 4 -15 9 0 5 -9 7
-20 4 -12 -3 -20 0 -20 7 0 8 -8 10 -24 6 -14 -3 -28 -2 -31 4 -8 14 -142 13
-151 -1z"/>
<path d="M5260 2830 c-8 -5 -23 -7 -32 -4 -10 3 -18 0 -18 -6 0 -8 -9 -10 -26
-6 -17 5 -23 3 -19 -4 3 -6 -3 -10 -14 -10 -12 0 -21 -4 -21 -9 0 -5 -10 -13
-22 -16 -35 -10 -130 -116 -157 -174 -14 -28 -28 -51 -32 -51 -4 0 -5 -9 -2
-20 3 -11 1 -26 -5 -33 -12 -14 -10 -166 2 -185 4 -7 5 -19 2 -27 -3 -8 -1
-15 4 -15 4 0 11 -13 15 -30 4 -16 10 -30 15 -30 4 0 10 -8 14 -17 11 -34 88
-123 105 -123 5 0 21 -11 36 -24 16 -14 32 -23 37 -20 4 3 8 1 8 -5 0 -6 6 -8
14 -5 8 3 17 1 21 -5 3 -6 15 -11 26 -11 10 0 19 -3 19 -7 0 -14 204 -9 213 4
4 7 14 10 21 7 8 -3 17 -1 20 5 4 6 13 8 21 4 8 -3 15 0 15 7 0 6 5 8 10 5 6
-3 10 -1 10 4 0 6 4 11 10 11 11 0 37 20 82 63 16 15 34 27 40 27 6 0 8 3 5 6
-4 4 2 19 12 33 26 37 61 112 61 131 0 9 3 19 6 23 9 9 10 177 2 177 -5 0 -8
7 -8 15 0 9 -13 43 -29 78 -21 45 -49 82 -104 134 -46 44 -77 68 -80 60 -4 -9
-6 -9 -6 1 -1 6 -8 12 -16 12 -8 0 -15 4 -15 9 0 5 -9 7 -20 4 -12 -3 -20 0
-20 7 0 8 -8 10 -24 6 -14 -3 -28 -2 -31 4 -8 13 -125 13 -145 0z m167 -205
c81 -41 123 -114 123 -215 0 -75 -26 -135 -77 -181 -50 -45 -102 -63 -159 -55
-136 18 -224 149 -194 289 15 70 56 126 115 159 65 36 124 37 192 3z"/>
<path d="M9705 2827 c-9 -4 -24 -5 -35 -2 -12 4 -20 2 -20 -5 0 -7 -8 -9 -19
-5 -12 3 -21 0 -25 -10 -3 -9 -10 -13 -16 -10 -5 3 -10 1 -10 -5 0 -7 -5 -10
-12 -8 -7 3 -20 -3 -30 -11 -10 -9 -22 -16 -26 -16 -5 0 -24 -18 -43 -40 -18
-22 -36 -42 -40 -45 -18 -17 -50 -84 -65 -137 -9 -35 -21 -63 -26 -63 -4 0 -8
-27 -8 -60 0 -33 4 -60 9 -60 4 0 16 -29 26 -65 9 -36 30 -82 45 -103 28 -38
120 -135 120 -126 0 3 14 -3 30 -13 17 -9 30 -21 30 -25 0 -4 7 -5 15 -2 8 4
15 1 15 -5 0 -6 11 -11 25 -11 14 0 25 -3 25 -7 0 -5 50 -8 110 -8 61 0 110 3
110 8 0 4 7 7 15 7 9 0 27 7 40 16 13 9 29 13 35 9 5 -3 10 -1 10 4 0 6 7 11
15 11 8 0 15 5 15 10 0 6 12 16 28 22 29 13 62 42 62 56 0 4 8 17 18 28 10 10
27 41 38 68 10 26 24 50 30 52 6 3 8 18 6 34 -2 17 0 30 6 30 6 0 9 26 9 65
l-2 64 -231 3 c-127 2 -238 2 -247 0 -14 -3 -17 -17 -17 -88 l0 -84 118 0 c65
0 122 -3 125 -7 7 -6 -37 -71 -57 -85 -6 -4 -13 -2 -17 4 -4 6 -10 2 -14 -11
-5 -16 -12 -20 -31 -15 -14 4 -24 2 -24 -5 0 -6 -19 -11 -45 -11 -26 0 -45 5
-45 11 0 6 -7 8 -17 5 -24 -10 -88 37 -119 86 -23 36 -27 55 -30 128 -2 69 1
92 18 125 23 45 85 105 109 105 9 0 19 3 22 7 13 13 117 10 128 -4 6 -7 15
-11 19 -8 4 3 11 -2 14 -11 3 -8 10 -13 14 -10 10 6 47 -31 53 -52 5 -17 249
-23 249 -7 0 13 -34 81 -50 100 -7 8 -10 15 -8 15 7 0 -85 94 -92 95 -17 1
-80 47 -80 57 0 9 -3 9 -10 -2 -6 -9 -10 -11 -10 -3 0 7 -7 10 -15 7 -8 -4
-15 -1 -15 5 0 5 -12 10 -27 11 -16 0 -58 2 -96 3 -37 2 -74 -1 -82 -6z"/>
<path d="M5860 2434 c0 -253 4 -402 10 -415 10 -17 22 -19 111 -19 l100 0 -3
240 c-2 141 1 240 6 240 5 0 6 -3 3 -7 -4 -3 1 -16 12 -27 10 -12 27 -37 37
-56 11 -19 29 -50 42 -68 13 -17 20 -32 15 -32 -4 0 -3 -4 2 -8 16 -11 65 -87
65 -99 0 -6 3 -13 8 -15 7 -3 40 -51 86 -125 l26 -43 95 0 95 0 0 415 0 415
-103 0 -104 0 -6 -122 c-10 -180 -9 -328 3 -328 6 0 10 -11 10 -25 0 -14 -3
-25 -8 -25 -7 0 -161 248 -171 274 -2 6 -7 13 -10 16 -11 9 -71 111 -71 121 0
5 -4 9 -8 9 -5 0 -17 18 -28 40 l-19 40 -97 0 -98 0 0 -396z"/>
<path d="M7270 2730 l0 -100 85 0 85 0 0 -315 0 -315 100 0 100 0 0 315 c0
173 3 314 8 314 4 -1 40 -1 80 0 l72 1 0 100 0 100 -265 0 -265 0 0 -100z"/>
<path d="M7890 2415 l0 -415 106 0 106 0 -3 124 c-2 68 -1 122 4 119 4 -2 7
-11 7 -19 0 -8 4 -14 8 -14 5 0 31 -33 57 -72 27 -40 52 -75 55 -78 3 -3 13
-17 23 -32 l17 -28 125 0 c69 0 125 3 125 6 0 3 -11 15 -25 26 -14 11 -25 23
-25 28 0 5 -12 22 -27 38 -16 16 -32 36 -38 43 -5 8 -29 37 -52 65 -24 29 -43
57 -43 63 0 9 66 45 80 43 3 0 22 22 42 49 50 67 73 144 62 206 -4 26 -8 54
-7 61 0 6 -3 12 -7 12 -4 0 -11 11 -14 25 -7 29 -99 129 -109 119 -4 -4 -7 -2
-7 4 0 7 -9 12 -20 12 -11 0 -20 3 -20 8 0 4 -18 6 -40 4 -25 -3 -40 0 -40 7
0 8 -53 11 -170 11 l-170 0 0 -415z m371 188 c14 -14 23 -38 27 -71 4 -44 1
-53 -26 -83 -27 -31 -35 -34 -101 -37 l-71 -4 0 112 0 112 75 -4 c60 -3 79 -8
96 -25z"/>
<path d="M8600 2541 c0 -200 3 -292 11 -297 6 -3 9 -19 5 -35 -3 -16 -2 -29 3
-29 4 0 16 -18 26 -40 18 -39 85 -110 105 -110 5 0 10 -5 10 -11 0 -5 4 -8 9
-4 5 3 12 1 16 -5 3 -5 15 -10 26 -10 10 0 19 -3 19 -7 0 -5 43 -8 95 -8 52 0
95 3 95 8 0 4 7 7 15 7 9 0 33 11 54 24 21 14 42 22 45 18 4 -3 9 4 13 16 3
12 10 22 17 22 11 1 56 87 56 108 0 7 3 12 8 12 4 0 8 142 9 315 l2 315 -104
0 -105 0 0 -279 c0 -167 -4 -282 -10 -286 -5 -3 -7 -12 -3 -21 6 -17 -23 -54
-44 -54 -7 0 -13 -4 -13 -10 0 -5 -7 -10 -15 -10 -8 0 -15 6 -15 13 0 8 -4 7
-10 -3 -8 -13 -11 -13 -19 -1 -5 7 -13 11 -19 8 -11 -7 -35 18 -46 48 -4 11
-7 149 -6 308 l1 287 -115 0 -116 0 0 -289z"/>
<path d="M10322 2418 l3 -413 102 -3 103 -3 -4 126 c-2 69 -1 125 3 125 4 0
16 -18 27 -40 10 -22 22 -40 25 -40 4 0 19 -19 35 -42 15 -24 43 -62 62 -85
l33 -43 109 0 c60 0 111 4 115 9 3 5 -5 21 -17 34 -13 13 -48 56 -78 96 -30
39 -68 86 -83 103 -32 34 -23 52 23 42 20 -4 22 -3 10 5 -13 9 -13 11 3 11 9
0 17 5 17 11 0 6 7 8 16 5 8 -3 12 -2 9 4 -3 6 1 10 10 10 8 0 19 8 22 18 4 9
14 27 24 40 10 13 21 44 25 70 3 26 11 53 16 60 7 8 6 17 -2 27 -8 9 -11 30
-7 55 3 22 2 38 -2 35 -8 -4 -31 37 -31 54 0 15 -88 97 -99 93 -6 -2 -11 1
-11 8 0 6 -4 9 -9 5 -5 -3 -16 1 -23 8 -8 9 -26 12 -45 10 -17 -3 -34 0 -37 6
-5 7 -65 11 -177 11 l-169 0 2 -412z m372 183 c53 -50 37 -149 -28 -176 -20
-8 -60 -15 -91 -15 l-55 0 0 111 0 112 75 -5 c60 -4 80 -10 99 -27z"/>
<path d="M11020 2415 l0 -416 113 3 112 3 3 413 2 412 -115 0 -115 0 0 -415z"/>
<path d="M11382 2418 l3 -413 195 -2 c121 -1 200 3 207 9 7 6 20 8 28 4 8 -3
15 0 15 7 0 8 4 6 10 -3 6 -10 10 -11 10 -3 0 7 11 15 25 19 14 3 25 11 25 17
0 6 3 8 6 4 6 -6 55 33 83 67 9 10 22 25 30 33 7 8 25 49 38 91 30 91 34 228
9 297 -24 65 -42 102 -58 121 -10 11 -18 26 -18 32 0 17 -34 49 -47 45 -6 -2
-18 5 -25 16 -8 12 -18 18 -21 14 -4 -3 -7 -1 -7 6 0 7 -7 11 -15 8 -8 -4 -17
-2 -20 3 -4 6 -15 10 -26 10 -10 0 -19 4 -19 9 0 5 -17 7 -39 4 -23 -3 -41 -1
-45 6 -5 7 -63 11 -177 11 l-169 0 2 -412z m375 201 c71 -27 112 -100 113
-199 0 -162 -62 -230 -211 -230 l-69 0 0 220 0 220 69 0 c38 0 82 -5 98 -11z"/>
<path d="M1840 2746 c-47 -17 -90 -34 -96 -38 -11 -7 -89 -206 -83 -212 2 -2
40 -20 83 -40 l79 -36 106 37 c58 20 109 39 113 43 5 3 -13 68 -38 143 -35
105 -50 137 -62 136 -10 -1 -55 -16 -102 -33z"/>
<path d="M520 2545 c-82 -124 -96 -141 -103 -122 -20 54 -151 -329 -172 -503
-3 -30 -9 -64 -12 -75 -13 -49 19 8 55 95 l38 95 146 48 146 47 7 118 c7 100
13 133 47 227 25 70 36 115 31 126 -4 8 -26 32 -48 51 l-40 36 -95 -143z"/>
<path d="M1581 2317 c-28 -78 -51 -145 -51 -149 0 -3 30 -23 66 -43 l66 -36
52 17 c28 9 55 20 59 24 4 4 -15 74 -43 157 -41 120 -56 153 -74 161 -23 10
-25 7 -75 -131z"/>
<path d="M1946 2412 c-114 -40 -132 -44 -159 -34 -17 6 -32 10 -34 8 -3 -2 75
-227 81 -234 3 -3 297 98 305 105 5 4 -32 123 -52 173 l-12 27 -129 -45z"/>
<path d="M738 2372 l-37 -68 20 -134 c16 -109 32 -167 81 -302 34 -92 63 -166
65 -164 2 1 -2 36 -8 77 -6 41 -12 185 -13 320 -2 219 -4 248 -19 264 -10 9
-24 30 -32 46 -9 16 -17 29 -18 29 -2 0 -19 -31 -39 -68z"/>
<path d="M2501 2329 c-12 -5 -21 -15 -19 -22 3 -6 22 -60 42 -118 l38 -107 33
11 33 10 -40 118 c-22 66 -45 119 -51 118 -7 0 -23 -5 -36 -10z"/>
<path d="M2018 2162 c-42 -15 -80 -30 -83 -34 -8 -7 62 -225 74 -232 3 -3 45
9 93 26 l87 30 -42 119 c-23 65 -44 119 -47 118 -3 0 -40 -13 -82 -27z"/>
<path d="M1377 1794 l-118 -316 81 -231 c44 -127 82 -233 84 -235 2 -2 65 18
139 43 l135 47 -23 66 c-13 37 -57 166 -99 286 -87 251 -87 251 4 281 40 13
50 21 45 34 -4 9 -32 89 -63 179 -31 89 -59 162 -62 162 -3 0 -58 -142 -123
-316z"/>
<path d="M1758 2072 c-106 -35 -108 -36 -143 -19 -19 9 -35 15 -35 12 0 -14
92 -271 100 -279 5 -5 64 11 143 38 l134 48 -41 119 c-23 65 -43 119 -46 118
-3 0 -53 -17 -112 -37z"/>
<path d="M2473 2002 c-89 -32 -164 -60 -167 -63 -5 -5 178 -546 187 -556 5 -5
333 111 338 119 5 8 -184 558 -191 557 -3 0 -78 -26 -167 -57z"/>
<path d="M1672 1723 c-84 -29 -103 -39 -108 -58 -4 -15 25 -110 81 -272 48
-137 90 -255 94 -261 5 -9 35 -3 109 22 56 19 106 37 111 40 5 4 -21 94 -61
209 -39 111 -82 236 -97 278 l-26 76 -103 -34z"/>
<path d="M267 1645 c-49 -28 -92 -56 -97 -61 -6 -6 4 -32 25 -67 32 -54 35
-64 35 -140 l0 -82 97 -83 97 -82 67 0 67 0 87 -162 c108 -201 135 -241 234
-348 l80 -85 32 31 32 32 -32 106 c-31 105 -31 108 -25 260 l7 153 43 23 c48
27 50 32 60 167 6 86 5 90 -29 164 l-35 76 -47 7 c-26 3 -63 6 -82 6 -25 0
-47 10 -77 35 -35 28 -60 38 -137 54 -85 18 -301 52 -310 50 -2 0 -44 -25 -92
-54z"/>
<path d="M8450 1644 c0 -6 -7 -25 -15 -40 -8 -16 -15 -36 -15 -45 0 -8 -7 -24
-15 -35 -8 -10 -15 -25 -15 -32 0 -8 -7 -28 -15 -45 -8 -18 -21 -52 -29 -77
-8 -25 -25 -73 -39 -108 l-26 -63 31 3 c34 3 37 7 70 86 l22 52 78 0 c63 0 78
-3 78 -15 0 -8 5 -15 10 -15 6 0 10 -6 10 -14 0 -7 7 -27 15 -42 8 -16 15 -36
15 -45 0 -12 8 -14 31 -11 29 4 30 6 24 41 -4 20 -13 45 -20 57 -7 12 -17 37
-20 58 -4 20 -11 36 -15 36 -4 0 -11 12 -14 28 -6 25 -36 108 -57 157 -5 11
-13 32 -18 46 -7 19 -18 28 -40 31 -20 3 -31 0 -31 -8z"/>
<path d="M4067 1643 c-4 -3 -7 -105 -7 -225 l0 -218 125 0 125 0 0 25 c0 25
-1 25 -91 25 -90 0 -91 0 -85 23 3 12 6 41 6 65 l0 42 85 0 85 0 0 35 c0 39
-1 39 -120 37 -56 -1 -78 12 -58 35 6 8 8 33 5 63 l-6 50 89 0 c89 0 90 0 90
25 l0 25 -118 0 c-65 0 -122 -3 -125 -7z"/>
<path d="M5970 1425 l0 -225 36 0 37 0 -5 118 c-4 106 -3 121 14 142 15 18 30
24 69 26 43 2 52 -1 66 -22 8 -13 13 -33 10 -44 -3 -11 -1 -20 4 -20 5 0 9
-45 9 -100 l0 -100 25 0 25 0 0 124 c0 138 -9 178 -46 195 -14 6 -23 15 -20
20 3 4 -6 6 -19 3 -14 -2 -32 2 -41 9 -13 10 -17 10 -24 -1 -5 -7 -17 -11 -30
-7 -12 3 -19 3 -16 0 7 -7 -12 -33 -24 -33 -4 0 -5 32 -2 70 l5 70 -37 0 -36
0 0 -225z"/>
<path d="M4530 1550 c0 -5 -11 -10 -24 -10 -13 0 -29 -7 -36 -15 -17 -20 -30
-19 -30 3 0 13 -8 17 -35 17 l-35 0 0 -172 0 -173 35 0 35 0 0 111 c0 87 4
117 17 140 10 16 20 29 23 30 43 8 96 2 114 -12 19 -16 21 -29 24 -143 l4
-126 34 0 34 0 0 110 c0 67 -4 110 -10 110 -5 0 -10 13 -10 29 0 20 -9 37 -30
54 -16 14 -30 31 -30 37 0 6 -10 8 -24 4 -13 -3 -27 -1 -30 5 -9 14 -26 14
-26 1z"/>
<path d="M4915 1550 c-3 -5 -15 -10 -25 -10 -53 0 -130 -79 -130 -133 0 -14
-4 -27 -10 -29 -16 -5 21 -96 54 -133 18 -19 36 -32 39 -28 4 3 7 -1 7 -9 0
-11 7 -14 25 -10 15 2 25 0 25 -7 0 -6 16 -11 35 -11 19 0 35 5 35 10 0 6 5
10 11 10 6 0 24 9 40 21 l29 20 0 -25 c0 -30 -48 -89 -66 -82 -8 3 -14 1 -14
-4 0 -6 -18 -10 -40 -10 -22 0 -40 5 -40 11 0 5 -5 7 -11 4 -6 -4 -20 2 -32
13 -12 11 -40 24 -62 28 l-40 7 20 -24 c36 -44 83 -87 88 -82 3 3 11 2 18 -3
14 -8 111 -12 119 -4 3 3 23 15 45 26 63 34 74 74 74 282 l1 172 -30 0 c-23 0
-30 -4 -30 -20 0 -26 -15 -25 -41 1 -13 13 -27 18 -40 14 -11 -4 -19 -2 -19 4
0 14 -27 14 -35 1z m92 -86 c82 -78 33 -217 -76 -217 -65 0 -121 57 -121 124
0 34 31 89 59 105 35 19 112 13 138 -12z"/>
<path d="M5334 1549 c-3 -6 -19 -9 -35 -7 -20 3 -29 0 -29 -9 0 -7 -5 -13 -10
-13 -19 0 -69 -56 -75 -85 -4 -17 -11 -40 -17 -52 -8 -15 -8 -26 -1 -35 6 -7
13 -25 17 -40 8 -36 91 -119 111 -112 8 4 15 1 15 -5 0 -14 57 -15 65 -1 4 6
15 8 26 5 13 -4 19 -2 19 9 0 8 6 13 13 11 14 -5 67 65 67 89 0 11 -9 16 -30
16 -24 0 -30 -4 -30 -21 0 -12 -8 -23 -20 -26 -11 -3 -20 -10 -20 -15 0 -5 -9
-6 -20 -3 -11 4 -20 2 -20 -4 0 -6 -7 -11 -15 -11 -8 0 -15 5 -15 11 0 6 -8 8
-19 4 -13 -4 -28 5 -50 30 -17 20 -31 39 -31 43 0 4 62 6 139 4 l139 -3 4 43
c3 24 2 45 -2 48 -6 5 -19 37 -35 85 -4 14 -8 16 -14 7 -6 -9 -14 -7 -32 10
-14 13 -34 22 -47 20 -12 -2 -22 1 -22 7 0 14 -17 14 -26 0z m83 -91 c18 -18
33 -40 33 -50 0 -16 -11 -18 -110 -18 -121 0 -128 4 -89 54 44 56 116 62 166
14z"/>
<path d="M5730 1549 c0 -7 -10 -9 -24 -7 -15 3 -27 -2 -35 -14 -14 -23 -31
-23 -31 0 0 12 -8 17 -25 17 l-25 0 0 -172 0 -173 25 0 25 0 0 100 c0 64 4
100 11 100 6 0 8 9 4 20 -6 20 17 55 29 43 3 -4 6 0 6 8 0 10 13 14 45 14 29
0 45 -4 45 -12 0 -7 7 -10 17 -6 10 4 14 2 9 -5 -3 -6 -2 -13 2 -16 5 -3 7
-60 4 -126 l-5 -120 36 0 36 0 3 123 c2 67 0 124 -4 125 -5 2 -8 9 -8 15 0 7
-16 28 -34 48 -27 29 -40 36 -60 32 -15 -3 -26 -1 -26 6 0 6 -4 11 -10 11 -5
0 -10 -5 -10 -11z"/>
<path d="M6510 1549 c0 -7 -14 -10 -35 -7 -24 3 -35 0 -35 -9 0 -7 -6 -13 -13
-13 -18 0 -64 -49 -76 -83 -14 -36 -14 -108 -1 -143 11 -29 54 -74 71 -74 5 0
9 -6 9 -14 0 -9 8 -12 25 -8 15 2 25 0 25 -7 0 -6 16 -11 35 -11 19 0 35 5 35
10 0 6 6 10 13 10 6 0 23 9 37 20 32 25 40 25 40 0 0 -16 7 -20 35 -20 l35 0
0 170 c0 129 -3 170 -12 170 -7 0 -23 3 -35 6 -20 5 -23 2 -23 -20 0 -32 -10
-33 -41 -3 -14 12 -34 21 -47 19 -12 -2 -22 1 -22 7 0 6 -4 11 -10 11 -5 0
-10 -5 -10 -11z m64 -70 c25 -12 66 -84 66 -116 0 -27 -35 -79 -66 -100 -16
-10 -43 -17 -68 -16 -33 2 -47 9 -73 37 -28 31 -33 43 -33 87 0 45 4 55 34 85
27 27 42 34 75 34 22 0 51 -5 65 -11z"/>
<path d="M6914 1549 c-3 -6 -16 -8 -29 -5 -16 4 -25 0 -33 -17 l-11 -22 -6 21
c-5 14 -14 21 -28 20 -22 -1 -22 -3 -20 -171 l2 -170 26 -3 25 -3 0 106 c0 61
4 104 9 101 5 -4 7 2 4 13 -6 23 25 61 43 54 8 -3 14 0 14 6 0 6 7 11 15 11
10 0 15 11 15 35 0 34 -12 46 -26 24z"/>
<path d="M7284 1549 c-3 -6 -17 -9 -30 -6 -14 2 -25 -1 -28 -9 -3 -8 -13 -14
-23 -14 -24 0 -64 -61 -74 -113 -12 -68 6 -130 52 -171 23 -21 49 -36 64 -36
14 0 25 -4 25 -10 0 -5 14 -10 30 -10 17 0 30 5 30 11 0 6 9 9 20 6 13 -3 20
0 20 10 0 8 4 12 9 9 5 -3 11 1 15 9 8 22 26 18 26 -6 0 -16 5 -20 26 -17 l25
3 2 170 2 170 -27 0 c-22 0 -28 -5 -28 -22 0 -13 -3 -23 -7 -23 -15 1 -43 27
-43 40 0 8 -8 10 -25 6 -14 -4 -25 -2 -25 4 0 13 -27 13 -36 -1z m94 -92 c57
-59 53 -144 -10 -189 -63 -44 -154 -14 -178 58 -16 49 -6 92 32 131 27 28 39
33 78 33 39 0 51 -5 78 -33z"/>
<path d="M7894 1549 c-3 -6 -19 -9 -35 -7 -22 3 -29 0 -29 -11 0 -14 -1 -14
-10 -1 -6 9 -10 10 -10 3 0 -6 -13 -25 -29 -41 -17 -16 -33 -42 -36 -58 -3
-16 -11 -37 -16 -47 -6 -12 -7 -23 -1 -30 5 -7 12 -28 16 -48 7 -42 81 -116
109 -111 9 2 17 -1 17 -7 0 -15 57 -14 64 2 5 9 7 9 12 0 7 -16 34 -5 34 15 0
8 3 12 7 9 10 -11 73 60 73 83 0 16 -6 20 -30 20 -21 0 -30 -5 -30 -16 0 -22
-42 -54 -62 -48 -10 3 -18 1 -18 -5 0 -6 -7 -11 -15 -11 -8 0 -15 5 -15 11 0
6 -8 8 -19 4 -13 -4 -28 5 -50 30 -17 20 -31 39 -31 43 0 4 63 5 139 4 l139
-4 3 51 c2 28 2 51 -1 51 -5 0 -21 34 -34 74 -4 11 -12 16 -21 12 -9 -3 -23 2
-33 12 -9 9 -27 16 -39 14 -13 -2 -23 1 -23 7 0 14 -17 14 -26 0z m84 -88 c17
-17 32 -39 32 -50 0 -20 -6 -21 -111 -21 -110 0 -110 0 -104 23 4 12 20 34 36
50 42 39 102 38 147 -2z"/>
<path d="M8860 1550 c0 -5 -10 -10 -22 -10 -42 -1 -101 -52 -123 -105 -11 -28
-24 -53 -30 -57 -7 -6 -7 -10 1 -15 5 -5 18 -28 27 -53 20 -52 62 -104 77 -95
6 3 10 0 10 -8 0 -10 7 -13 20 -10 11 3 20 0 20 -6 0 -6 17 -11 40 -11 22 0
40 4 40 9 0 5 8 11 18 14 9 4 28 14 41 24 l24 18 -7 -30 c-9 -38 -39 -80 -57
-80 -8 0 -17 -4 -21 -9 -9 -13 -72 -10 -76 3 -2 6 -8 8 -14 5 -5 -3 -20 4 -33
16 -15 14 -38 23 -58 24 l-33 1 15 -27 c9 -16 19 -28 24 -28 4 0 7 -10 7 -22
0 -17 3 -19 9 -10 7 11 11 11 22 -1 8 -7 20 -12 27 -9 6 2 12 -2 12 -8 0 -7 7
-10 16 -6 9 4 23 1 30 -5 10 -8 14 -8 14 0 0 15 40 14 40 -1 0 -8 7 -5 15 6 8
11 18 17 21 13 3 -3 18 5 32 19 15 13 30 24 33 24 16 0 23 58 28 236 l6 191
-27 -1 c-22 -1 -28 -6 -28 -23 0 -20 -2 -21 -25 -11 -14 6 -25 18 -25 25 0 11
-8 13 -30 8 -19 -4 -30 -3 -30 4 0 6 -7 11 -15 11 -8 0 -15 -4 -15 -10z m94
-90 c41 -36 53 -84 33 -132 -45 -104 -161 -110 -218 -12 -24 41 -23 68 6 115
29 45 52 57 107 58 28 1 46 -7 72 -29z"/>
<path d="M9640 1550 c0 -5 -7 -10 -15 -10 -9 0 -27 -7 -41 -17 -24 -15 -25
-15 -31 5 -3 13 -13 22 -24 22 -18 0 -19 -10 -19 -175 l0 -175 24 0 c24 0 24
1 27 124 5 149 13 165 86 161 69 -2 77 -19 74 -166 l-2 -119 35 0 36 0 0 113
c0 124 6 157 26 157 8 0 14 4 14 8 0 5 19 7 42 6 33 -1 47 -8 65 -30 21 -26
23 -39 23 -141 l0 -113 35 0 35 0 0 110 c0 61 -4 110 -8 110 -5 0 -14 18 -21
39 -13 45 -52 81 -87 81 -12 0 -24 6 -27 13 -3 9 -7 9 -20 -2 -9 -7 -24 -10
-33 -7 -10 4 -23 -3 -36 -19 -24 -31 -41 -32 -65 -2 -11 14 -26 21 -40 19 -13
-2 -23 1 -23 7 0 6 -7 11 -15 11 -8 0 -15 -4 -15 -10z"/>
<path d="M10250 1549 c0 -7 -12 -10 -30 -7 -16 3 -30 1 -30 -3 0 -4 -12 -15
-28 -24 -30 -18 -72 -76 -72 -100 0 -8 -6 -25 -12 -36 -10 -17 -10 -23 0 -26
6 -3 12 -14 12 -25 0 -31 51 -95 92 -115 21 -10 38 -21 38 -25 0 -5 16 -8 35
-8 19 0 35 5 35 11 0 6 9 8 20 4 14 -5 20 -2 20 10 0 9 6 15 12 13 16 -6 68
59 68 83 0 14 -7 19 -30 19 -23 0 -30 -4 -30 -20 0 -18 -31 -43 -55 -46 -5 0
-19 -5 -29 -9 -13 -6 -21 -5 -24 3 -2 6 -10 8 -18 5 -17 -6 -64 33 -64 54 0 7
-4 13 -10 13 -5 0 -10 3 -10 8 0 4 65 6 144 4 l144 -3 4 45 c2 25 0 46 -4 46
-9 0 -38 59 -38 77 0 8 -5 11 -10 8 -6 -3 -23 3 -39 14 -16 12 -39 21 -50 21
-12 0 -21 5 -21 10 0 6 -4 10 -10 10 -5 0 -10 -5 -10 -11z m68 -75 c19 -13 52
-63 52 -79 0 -3 -52 -5 -115 -5 -63 0 -115 3 -115 8 0 18 42 74 63 82 35 14
91 11 115 -6z"/>
<path d="M10645 1550 c-3 -5 -15 -10 -26 -10 -11 0 -27 -7 -35 -15 -21 -21
-34 -19 -34 5 0 15 -7 20 -25 20 l-25 0 0 -175 0 -175 25 0 25 0 0 100 c0 66
4 100 11 100 6 0 8 7 5 16 -3 9 1 25 9 37 11 15 15 17 16 7 0 -10 3 -9 8 4 5
13 19 19 49 20 23 1 42 -1 42 -6 0 -4 6 -8 14 -8 21 0 23 -14 18 -147 l-5
-123 36 0 36 0 3 123 c2 67 0 124 -4 125 -5 2 -8 10 -8 18 0 22 -68 84 -85 78
-8 -4 -22 -1 -29 5 -10 8 -16 9 -21 1z"/>
<path d="M10960 1549 c0 -6 -8 -9 -17 -7 -32 6 -73 -50 -73 -101 0 -27 35 -79
57 -84 4 -1 7 -5 6 -8 -1 -4 7 -5 17 -2 12 3 20 0 20 -6 0 -7 8 -11 17 -9 10
2 22 -7 29 -21 14 -27 8 -51 -11 -51 -7 0 -15 -5 -17 -11 -7 -22 -56 2 -67 33
-9 24 -15 29 -38 26 -22 -2 -27 -8 -25 -23 4 -28 35 -68 60 -80 12 -5 22 -13
22 -17 0 -5 14 -8 30 -8 17 0 30 4 30 9 0 5 9 7 20 4 11 -3 20 0 20 6 0 6 9
20 20 31 40 40 13 160 -36 160 -8 0 -14 5 -14 11 0 5 -5 7 -12 3 -6 -4 -16 -1
-22 7 -6 8 -18 14 -26 14 -10 0 -15 10 -15 30 0 28 3 30 35 29 26 0 38 -6 45
-22 7 -16 18 -22 42 -22 18 0 33 5 33 10 0 6 -4 10 -10 10 -5 0 -10 6 -10 13
0 27 -44 72 -67 69 -13 -2 -23 1 -23 7 0 6 -4 11 -10 11 -5 0 -10 -5 -10 -11z"/>
<path d="M11870 1549 c0 -7 -12 -10 -30 -7 -19 3 -31 0 -35 -10 -3 -8 -8 -12
-11 -9 -16 16 -84 -79 -84 -118 0 -14 -4 -25 -10 -25 -5 0 -10 -7 -10 -15 0
-8 5 -15 10 -15 6 0 10 -10 10 -23 0 -71 174 -187 205 -136 4 5 12 8 18 6 7
-2 20 7 30 20 23 28 37 30 37 3 0 -16 7 -20 30 -20 l30 0 0 173 0 172 -35 0
c-32 0 -35 -2 -30 -22 7 -30 -9 -29 -32 1 -15 18 -26 23 -46 19 -16 -3 -27 -1
-27 6 0 6 -4 11 -10 11 -5 0 -10 -5 -10 -11z m96 -93 c30 -30 34 -40 34 -84 0
-40 -6 -57 -26 -81 -47 -56 -123 -60 -174 -10 -54 54 -51 128 6 179 28 24 44
30 80 30 39 0 51 -5 80 -34z"/>
<path d="M6990 1375 l0 -175 36 0 36 0 -4 165 c-3 174 -6 184 -50 185 -17 0
-18 -15 -18 -175z"/>
<path d="M9130 1375 l0 -175 35 0 35 0 0 108 c0 89 3 112 20 140 13 20 27 32
38 30 13 -2 18 5 20 29 3 25 -1 33 -19 38 -15 5 -25 2 -31 -9 -11 -20 -28 -21
-28 -1 0 10 -11 15 -35 15 l-35 0 0 -175z"/>
<path d="M9360 1375 l0 -175 35 0 35 0 0 175 0 175 -35 0 -35 0 0 -175z"/>
<path d="M11130 1428 c0 -72 4 -118 10 -118 6 0 10 -10 10 -22 1 -30 65 -99
85 -92 8 4 15 1 15 -5 0 -6 16 -11 35 -11 19 0 35 5 35 11 0 6 6 9 13 6 7 -3
19 4 26 16 13 20 14 20 27 3 7 -10 21 -16 31 -14 16 3 18 18 21 175 l2 171
-25 -6 c-26 -7 -26 -9 -28 -111 -1 -68 -6 -106 -13 -108 -7 -2 -10 -12 -7 -21
7 -28 -33 -57 -79 -57 -33 0 -45 6 -64 30 -22 28 -24 39 -24 150 l0 120 -35 1
-35 1 0 -119z"/>
<path d="M11532 1378 c3 -171 3 -173 26 -176 22 -3 22 -1 22 95 0 92 13 153
33 153 4 0 7 7 7 16 0 10 6 14 14 11 18 -7 36 12 36 39 0 31 -54 39 -69 10
-10 -21 -10 -21 -17 2 -4 15 -14 22 -30 22 l-24 0 2 -172z"/>
<path d="M2590 1359 c-512 -177 -550 -192 -550 -201 0 -24 136 -398 145 -398
6 0 98 31 205 68 l195 68 51 144 52 144 130 46 130 45 -32 87 c-17 47 -33 89
-36 91 -3 3 -133 -39 -290 -94z"/>
<path d="M3316 1377 c-122 -484 -473 -917 -931 -1151 -49 -26 -81 -45 -70 -42
11 2 37 7 58 11 65 11 189 56 272 98 302 157 571 495 719 908 l35 97 -31 73
c-17 41 -31 75 -32 76 -1 1 -10 -30 -20 -70z"/>
<path d="M1712 1055 c-145 -51 -265 -95 -267 -97 -3 -2 22 -80 55 -173 33 -93
60 -169 60 -170 0 -2 523 180 541 187 7 4 -112 348 -120 347 -3 -1 -124 -43
-269 -94z"/>
</g>
</svg>
